<svg id="Capa_1" enable-background="new 0 0 512 512" height="512" viewBox="0 0 512 512" width="512" xmlns="http://www.w3.org/2000/svg"><g><circle cx="256" cy="256" fill="#dbedff" r="256"/><path d="m62.664 256c0-130.777 98.065-238.637 224.668-254.089-10.27-1.253-20.724-1.911-31.332-1.911-141.385 0-256 114.615-256 256s114.615 256 256 256c10.608 0 21.062-.658 31.332-1.911-126.603-15.452-224.668-123.312-224.668-254.089z" fill="#b5dcff"/><circle cx="256" cy="256" fill="#b5dcff" r="195.435"/><path d="m123.229 256c0-97.269 71.064-177.929 164.104-192.924-10.203-1.644-20.665-2.512-31.332-2.512-107.937.001-195.436 87.5-195.436 195.436s87.499 195.435 195.435 195.435c10.667 0 21.129-.867 31.332-2.512-93.039-14.994-164.103-95.653-164.103-192.923z" fill="#8bcaff"/><path d="m291.091 221.001c-24.478-14.022-38.724-40.397-39.125-68.603-.013-.929-.044-1.862-.092-2.799-1.977-38.279-34.098-68.767-72.428-68.869-40.256-.107-72.924 32.494-72.924 72.725v173.072c0 68.009 54.397 124.379 122.403 124.883 68.547.508 124.274-54.906 124.274-123.335.001-45.832-25.001-85.817-62.108-107.074z" fill="#ce775f"/><path d="m155.56 326.527v-173.072c0-31.526 20.063-58.362 48.115-68.449-7.602-2.744-15.763-4.253-24.229-4.276-40.256-.107-72.923 32.494-72.923 72.725v173.072c0 68.008 54.397 124.379 122.403 124.883 8.757.065 17.302-.788 25.551-2.459-56.623-11.55-98.917-62.459-98.917-122.424z" fill="#c0694e"/><g><path d="m384.307 291.103c-2.566 0-5.165-.644-7.555-2.003-7.358-4.181-9.934-13.534-5.754-20.893l51.015-89.795c4.18-7.359 13.535-9.935 20.893-5.754 7.358 4.18 9.934 13.534 5.754 20.893l-51.015 89.795c-2.823 4.969-8.006 7.757-13.338 7.757z" fill="#fcc101"/></g><path d="m385.624 275.677 51.015-89.795c2.565-4.516 7.081-7.221 11.886-7.678-1.315-2.235-3.204-4.172-5.62-5.545-7.358-4.181-16.713-1.605-20.893 5.754l-51.015 89.795c-4.181 7.358-1.605 16.712 5.754 20.893 2.39 1.358 4.989 2.003 7.555 2.003.486 0 .97-.031 1.452-.077-2.69-4.571-2.942-10.408-.134-15.35z" fill="#f2ab08"/><g><path d="m339.259 254.441c-2.566 0-5.165-.644-7.555-2.003-7.358-4.18-9.934-13.534-5.754-20.893l51.015-89.795c4.18-7.359 13.535-9.935 20.893-5.754 7.358 4.18 9.934 13.534 5.754 20.893l-51.015 89.795c-2.824 4.969-8.006 7.757-13.338 7.757z" fill="#fcc101"/></g><path d="m340.576 239.015 51.015-89.795c2.565-4.516 7.081-7.221 11.886-7.678-1.315-2.235-3.204-4.172-5.62-5.545-7.358-4.181-16.713-1.605-20.893 5.754l-51.015 89.795c-4.181 7.358-1.605 16.712 5.754 20.893 2.39 1.358 4.989 2.003 7.555 2.003.486 0 .97-.031 1.452-.077-2.69-4.571-2.942-10.408-.134-15.35z" fill="#f2ab08"/><g><path d="m294.211 217.78c-2.566 0-5.165-.644-7.555-2.003-7.358-4.18-9.934-13.534-5.754-20.893l51.015-89.795c4.18-7.359 13.535-9.935 20.893-5.754s9.934 13.534 5.754 20.893l-51.015 89.795c-2.824 4.968-8.006 7.757-13.338 7.757z" fill="#fcc101"/></g><path d="m295.528 202.353 51.015-89.795c2.565-4.516 7.081-7.221 11.886-7.678-1.315-2.235-3.204-4.172-5.62-5.545-7.358-4.181-16.713-1.605-20.893 5.754l-51.015 89.795c-4.181 7.358-1.605 16.712 5.754 20.893 2.39 1.358 4.989 2.003 7.555 2.003.486 0 .97-.031 1.452-.077-2.69-4.571-2.942-10.407-.134-15.35z" fill="#f2ab08"/><path d="m211.422 151.707c-.866-16.766-15.257-30.425-32.083-30.47-.029 0-.059 0-.088 0-17.815 0-32.221 14.412-32.221 32.219v173.071c0 46.189 36.873 84.042 82.197 84.378 46.149.323 83.466-36.881 83.466-82.829 0-29.618-15.993-57.18-41.737-71.927-36.086-20.672-58.882-60.206-59.492-103.175-.007-.422-.021-.844-.042-1.267z" fill="#c0694e"/><path d="m196.067 326.526v-173.07c0-7.937 2.867-15.195 7.618-20.807-5.955-6.93-14.752-11.386-24.346-11.412-.029 0-.059 0-.088 0-17.815 0-32.221 14.413-32.221 32.219v173.071c0 46.189 36.873 84.042 82.197 84.378 8.831.062 17.335-1.261 25.319-3.746-33.795-10.651-58.479-42.845-58.479-80.633z" fill="#b25d46"/><g><g><path d="m186.284 176.134h-13.523c-4.267 0-7.726-3.459-7.726-7.726s3.459-7.726 7.726-7.726h13.523c4.267 0 7.726 3.459 7.726 7.726.001 4.266-3.459 7.726-7.726 7.726z" fill="#ce775f"/></g></g><g><g><path d="m191.108 210.25h-18.347c-4.267 0-7.726-3.459-7.726-7.726s3.459-7.726 7.726-7.726h18.347c4.267 0 7.726 3.459 7.726 7.726s-3.459 7.726-7.726 7.726z" fill="#ce775f"/></g></g><g><g><path d="m209.455 244.366h-36.694c-4.267 0-7.726-3.459-7.726-7.726s3.459-7.726 7.726-7.726h36.694c4.267 0 7.726 3.459 7.726 7.726s-3.459 7.726-7.726 7.726z" fill="#ce775f"/></g></g><g><g><path d="m246.148 278.482h-73.387c-4.267 0-7.726-3.459-7.726-7.726s3.459-7.726 7.726-7.726h73.387c4.267 0 7.726 3.459 7.726 7.726s-3.459 7.726-7.726 7.726z" fill="#ce775f"/></g></g><g><g><path d="m278.899 312.598h-106.138c-4.267 0-7.726-3.459-7.726-7.726s3.459-7.726 7.726-7.726h106.138c4.267 0 7.726 3.459 7.726 7.726s-3.459 7.726-7.726 7.726z" fill="#ce775f"/></g></g><g><g><path d="m278.899 346.715h-99.376c-4.267 0-7.726-3.459-7.726-7.726s3.459-7.726 7.726-7.726h99.376c4.267 0 7.726 3.459 7.726 7.726s-3.459 7.726-7.726 7.726z" fill="#ce775f"/></g></g><g><g><path d="m259.336 380.83h-60.199c-4.267 0-7.726-3.459-7.726-7.726s3.459-7.726 7.726-7.726h60.199c4.267 0 7.726 3.459 7.726 7.726s-3.459 7.726-7.726 7.726z" fill="#ce775f"/></g></g><path d="m398.628 162.905-100.958-21.749c-8.834-1.905-17.527 3.706-19.431 12.543-1.903 8.835 3.706 17.526 12.543 19.43l100.958 21.749c1.138.245 2.302.37 3.459.37 7.643 0 14.36-5.431 15.972-12.913 1.904-8.835-3.706-17.526-12.543-19.43z" fill="#f4dd45"/><path d="m398.032 178.732c-1.157 0-2.321-.124-3.459-.37l-100.958-21.749c-5.601-1.207-9.897-5.144-11.814-10.112-1.713 1.999-2.969 4.441-3.562 7.198-1.903 8.835 3.706 17.526 12.543 19.43l100.958 21.749c1.138.245 2.302.37 3.459.37 7.643 0 14.36-5.431 15.972-12.913.7-3.248.377-6.474-.741-9.353-3.037 3.538-7.526 5.75-12.398 5.75z" fill="#fcc101"/></g></svg>