<?xml version="1.0" encoding="iso-8859-1"?>
<!-- Generator: Adobe Illustrator 19.0.0, SVG Export Plug-In . SVG Version: 6.00 Build 0)  -->
<svg version="1.1" id="Capa_1" xmlns="http://www.w3.org/2000/svg" xmlns:xlink="http://www.w3.org/1999/xlink" x="0px" y="0px"
	 viewBox="0 0 512 512" style="enable-background:new 0 0 512 512;" xml:space="preserve">
<g>
	<g>
		<g>
			<path d="M477.867,0H34.133C15.282,0,0,15.282,0,34.133V76.8c0,4.713,3.82,8.533,8.533,8.533H230.4
				c4.713,0,8.533-3.82,8.533-8.533s-3.82-8.533-8.533-8.533H17.067V34.133c0-9.426,7.641-17.067,17.067-17.067h443.733
				c9.426,0,17.067,7.641,17.067,17.067v34.133H281.6c-4.713,0-8.533,3.82-8.533,8.533s3.82,8.533,8.533,8.533h221.867
				c4.713,0,8.533-3.82,8.533-8.533V34.133C512,15.282,496.718,0,477.867,0z"/>
			<path d="M503.467,102.4c-4.713,0-8.533,3.82-8.533,8.533v366.933c0,9.426-7.641,17.067-17.067,17.067H34.133
				c-9.426,0-17.067-7.641-17.067-17.067V110.933c0-4.713-3.82-8.533-8.533-8.533S0,106.221,0,110.933v366.933
				C0,496.718,15.282,512,34.133,512h443.733C496.718,512,512,496.718,512,477.867V110.933C512,106.221,508.18,102.4,503.467,102.4z
				"/>
			<path d="M42.667,34.133c-4.713,0-8.533,3.82-8.533,8.533s3.82,8.533,8.533,8.533H51.2c4.713,0,8.533-3.82,8.533-8.533
				s-3.82-8.533-8.533-8.533H42.667z"/>
			<path d="M85.333,34.133c-4.713,0-8.533,3.82-8.533,8.533s3.82,8.533,8.533,8.533h8.533c4.713,0,8.533-3.82,8.533-8.533
				s-3.821-8.533-8.533-8.533H85.333z"/>
			<path d="M128,34.133c-4.713,0-8.533,3.82-8.533,8.533S123.287,51.2,128,51.2h8.533c4.713,0,8.533-3.82,8.533-8.533
				s-3.82-8.533-8.533-8.533H128z"/>
			<path d="M97.109,196.267c-11.189-0.014-20.276,9.035-20.309,20.224v232.619c0.033,11.189,9.12,20.238,20.309,20.224h317.781
				c11.189,0.014,20.276-9.035,20.309-20.224V216.491c-0.033-11.189-9.12-20.238-20.309-20.224H298.667V179.2h25.6
				c3.556,0,6.739-2.205,7.989-5.535c1.25-3.329,0.304-7.084-2.374-9.424l-68.267-59.733c-3.216-2.81-8.014-2.81-11.23,0
				l-68.267,59.733c-2.678,2.34-3.624,6.095-2.374,9.424s4.433,5.535,7.989,5.535h25.6v17.067H97.109z M221.867,162.133h-11.426
				L256,122.274l45.56,39.859h-11.426c-4.713,0-8.533,3.82-8.533,8.533v68.267c0,4.713,3.82,8.533,8.533,8.533
				s8.533-3.82,8.533-8.533v-25.6h116.224c0.849-0.011,1.667,0.315,2.275,0.907c0.608,0.592,0.956,1.402,0.967,2.25v232.619
				c-0.011,0.849-0.359,1.658-0.967,2.25c-0.608,0.592-1.427,0.918-2.275,0.907H97.109c-0.849,0.011-1.667-0.315-2.275-0.907
				c-0.608-0.592-0.956-1.402-0.967-2.25V216.491c0.011-0.849,0.359-1.658,0.967-2.25c0.608-0.592,1.427-0.918,2.275-0.907h116.224
				v25.6c0,4.713,3.82,8.533,8.533,8.533s8.533-3.82,8.533-8.533v-68.267C230.4,165.954,226.58,162.133,221.867,162.133z"/>
			<path d="M112.759,233.66c-2.889,3.699-2.248,9.036,1.434,11.947l125.355,98.628c9.691,7.485,23.214,7.485,32.905,0
				l125.355-98.594c2.455-1.865,3.713-4.908,3.292-7.962c-0.421-3.054-2.457-5.643-5.325-6.773s-6.123-0.625-8.514,1.32
				L261.897,330.82c-3.486,2.646-8.307,2.646-11.793,0L124.74,232.226C121.036,229.314,115.672,229.956,112.759,233.66z"/>
			<path d="M199.077,350.085c-2.968-0.949-6.217-0.205-8.477,1.941l-76.8,68.267c-2.396,1.992-3.516,5.132-2.921,8.19
				c0.595,3.059,2.809,5.55,5.777,6.499s6.217,0.205,8.477-1.941l76.8-68.267c2.396-1.992,3.516-5.132,2.921-8.19
				C204.26,353.525,202.045,351.034,199.077,350.085z"/>
			<path d="M398.2,420.292l-76.8-68.267c-3.54-2.943-8.775-2.548-11.833,0.893c-3.058,3.44-2.836,8.686,0.501,11.856l76.8,68.267
				c2.259,2.146,5.509,2.89,8.477,1.941s5.183-3.441,5.777-6.499S400.596,422.284,398.2,420.292z"/>
		</g>
	</g>
</g>
<g>
</g>
<g>
</g>
<g>
</g>
<g>
</g>
<g>
</g>
<g>
</g>
<g>
</g>
<g>
</g>
<g>
</g>
<g>
</g>
<g>
</g>
<g>
</g>
<g>
</g>
<g>
</g>
<g>
</g>
</svg>
