<svg id="Capa_1" enable-background="new 0 0 512 512" height="512" viewBox="0 0 512 512" width="512" xmlns="http://www.w3.org/2000/svg"><g><circle cx="256" cy="256" fill="#477b9e" r="256"/><path d="m89.771 256c0-126.071 91.133-230.853 211.115-252.073-14.574-2.578-29.572-3.927-44.886-3.927-141.385 0-256 114.615-256 256s114.615 256 256 256c15.314 0 30.312-1.349 44.886-3.927-119.982-21.22-211.115-126.001-211.115-252.073z" fill="#3f6d8e"/><g fill="#365e7d"><circle cx="65.559" cy="267.224" r="34.735"/><circle cx="187.625" cy="267.224" r="34.735"/><circle cx="126.592" cy="187.819" r="34.735"/></g><path d="m65.559 267.224c0-12.855 6.988-24.07 17.368-30.077-5.11-2.958-11.039-4.658-17.368-4.658-19.184 0-34.735 15.551-34.735 34.735s15.551 34.735 34.735 34.735c6.329 0 12.257-1.701 17.368-4.658-10.379-6.007-17.368-17.222-17.368-30.077z" fill="#294b64"/><path d="m187.625 267.224c0-12.855 6.988-24.07 17.368-30.077-5.11-2.958-11.039-4.658-17.368-4.658-19.184 0-34.735 15.551-34.735 34.735s15.551 34.735 34.735 34.735c6.329 0 12.257-1.701 17.368-4.658-10.38-6.007-17.368-17.222-17.368-30.077z" fill="#294b64"/><path d="m126.592 187.819c0-12.855 6.988-24.07 17.368-30.077-5.11-2.958-11.039-4.658-17.368-4.658-19.184 0-34.735 15.551-34.735 34.735s15.552 34.735 34.735 34.735c6.329 0 12.257-1.701 17.368-4.658-10.38-6.007-17.368-17.222-17.368-30.077z" fill="#294b64"/></g></svg>