<?xml version="1.0" encoding="iso-8859-1"?>
<!-- Generator: Adobe Illustrator 19.0.0, SVG Export Plug-In . SVG Version: 6.00 Build 0)  -->
<svg version="1.1" id="Capa_1" xmlns="http://www.w3.org/2000/svg" xmlns:xlink="http://www.w3.org/1999/xlink" x="0px" y="0px"
	 viewBox="0 0 512.003 512.003" style="enable-background:new 0 0 512.003 512.003;" xml:space="preserve">
<g transform="translate(-1)">
	<g>
		<g>
			<path d="M509.41,100.642C490.825,77.013,423.924,0,342.345,0c-81.587,0-148.48,77.039-167.066,100.642
				c-4.776,6.027-4.776,14.547,0,20.574c18.586,23.612,85.478,100.651,167.066,100.651s148.48-77.039,167.066-100.642
				C514.191,115.196,514.191,106.67,509.41,100.642z M342.345,204.8c-73.89,0-136.294-72.047-153.66-93.602
				c17.365-22.084,79.77-94.131,153.66-94.131c73.6,0,135.799,71.475,153.446,93.867C478.144,133.325,415.945,204.8,342.345,204.8z"
				/>
			<path d="M410.612,102.4c-4.713,0-8.533,3.82-8.533,8.533c0,32.99-26.744,59.733-59.733,59.733s-59.733-26.744-59.733-59.733
				S309.355,51.2,342.345,51.2c4.713,0,8.533-3.82,8.533-8.533s-3.82-8.533-8.533-8.533c-42.415,0-76.8,34.385-76.8,76.8
				s34.385,76.8,76.8,76.8s76.8-34.385,76.8-76.8c0-2.263-0.899-4.434-2.499-6.034C415.045,103.299,412.875,102.4,410.612,102.4z"/>
			<path d="M299.678,110.933c0,4.713,3.82,8.533,8.533,8.533s8.533-3.82,8.533-8.533c0-14.138,11.462-25.6,25.6-25.6
				c14.138,0,25.6,11.462,25.6,25.6s-11.462,25.6-25.6,25.6c-4.713,0-8.533,3.82-8.533,8.533s3.821,8.533,8.533,8.533
				c23.564,0,42.667-19.103,42.667-42.667s-19.102-42.667-42.667-42.667C318.781,68.267,299.678,87.369,299.678,110.933z"/>
			<path d="M410.612,230.4c-4.713,0-8.533,3.82-8.533,8.533v204.8c0,4.713-3.821,8.533-8.533,8.533h-281.6
				c-1.128,0-2.244,0.223-3.285,0.657l-83.627,34.85l26.59-66.475c0.395-1.008,0.595-2.083,0.589-3.166V221.867
				c0-4.713,3.82-8.533,8.533-8.533h162.133c4.713,0,8.533-3.821,8.533-8.533s-3.82-8.533-8.533-8.533H60.745
				c-14.138,0-25.6,11.462-25.6,25.6v194.628L1.617,500.301c-1.276,3.191-0.513,6.837,1.936,9.248
				c2.449,2.412,6.106,3.119,9.277,1.794l100.821-42.01h279.893c14.138,0,25.6-11.462,25.6-25.6v-204.8
				C419.145,234.221,415.324,230.4,410.612,230.4z"/>
			<path d="M103.412,298.667c-14.138,0-25.6,11.462-25.6,25.6v17.067c0,14.138,11.462,25.6,25.6,25.6h34.133
				c14.138,0,25.6-11.462,25.6-25.6v-17.067c0-14.138-11.462-25.6-25.6-25.6H103.412z M146.078,324.267v17.067
				c0,4.713-3.82,8.533-8.533,8.533h-34.133c-4.713,0-8.533-3.82-8.533-8.533v-17.067c0-4.713,3.82-8.533,8.533-8.533h34.133
				C142.258,315.733,146.078,319.554,146.078,324.267z"/>
			<path d="M188.745,324.267v17.067c0,14.138,11.461,25.6,25.6,25.6h34.133c14.139,0,25.6-11.462,25.6-25.6v-17.067
				c0-14.138-11.462-25.6-25.6-25.6h-34.133C200.206,298.667,188.745,310.128,188.745,324.267z M257.012,324.267v17.067
				c0,4.713-3.821,8.533-8.533,8.533h-34.133c-4.713,0-8.533-3.82-8.533-8.533v-17.067c0-4.713,3.821-8.533,8.533-8.533h34.133
				C253.191,315.733,257.012,319.554,257.012,324.267z"/>
			<path d="M359.412,366.933c14.138,0,25.6-11.462,25.6-25.6v-17.067c0-14.138-11.461-25.6-25.6-25.6h-34.133
				c-14.138,0-25.6,11.462-25.6,25.6v17.067c0,14.138,11.462,25.6,25.6,25.6H359.412z M316.745,341.333v-17.067
				c0-4.713,3.82-8.533,8.533-8.533h34.133c4.713,0,8.533,3.82,8.533,8.533v17.067c0,4.713-3.82,8.533-8.533,8.533h-34.133
				C320.565,349.867,316.745,346.046,316.745,341.333z"/>
		</g>
	</g>
</g>
<g>
</g>
<g>
</g>
<g>
</g>
<g>
</g>
<g>
</g>
<g>
</g>
<g>
</g>
<g>
</g>
<g>
</g>
<g>
</g>
<g>
</g>
<g>
</g>
<g>
</g>
<g>
</g>
<g>
</g>
</svg>
