<?xml version="1.0" encoding="iso-8859-1"?>
<!-- Generator: Adobe Illustrator 19.0.0, SVG Export Plug-In . SVG Version: 6.00 Build 0)  -->
<svg version="1.1" id="Capa_1" xmlns="http://www.w3.org/2000/svg" xmlns:xlink="http://www.w3.org/1999/xlink" x="0px" y="0px"
	 viewBox="0 0 512 512" style="enable-background:new 0 0 512 512;" xml:space="preserve">
<g>
	<g>
		<g>
			<path d="M486.4,119.467h-34.133c-4.713,0-8.533,3.82-8.533,8.533s3.821,8.533,8.533,8.533H486.4c4.713,0,8.533,3.82,8.533,8.533
				V486.4c0,4.713-3.82,8.533-8.533,8.533H25.6c-4.713,0-8.533-3.82-8.533-8.533V145.067c0-4.713,3.82-8.533,8.533-8.533h34.133
				c4.713,0,8.533-3.82,8.533-8.533s-3.82-8.533-8.533-8.533H25.6c-14.138,0-25.6,11.461-25.6,25.6V486.4
				C0,500.539,11.461,512,25.6,512h460.8c14.138,0,25.6-11.461,25.6-25.6V145.067C512,130.928,500.539,119.467,486.4,119.467z"/>
			<path d="M475.87,156.638c-3.035-3.61-8.422-4.076-12.032-1.041L266.974,320.964c-6.346,5.328-15.602,5.328-21.948,0
				L48.162,155.597c-1.733-1.459-3.975-2.169-6.232-1.974s-4.344,1.28-5.8,3.015c-1.459,1.733-2.169,3.975-1.974,6.232
				c0.195,2.257,1.28,4.344,3.015,5.8l196.873,165.367c12.688,10.683,31.224,10.683,43.913,0L474.829,168.67
				C478.439,165.635,478.905,160.248,475.87,156.638z"/>
			<path d="M164.062,333.017c-2.971-0.689-6.084,0.259-8.166,2.488l-119.467,128c-3.219,3.445-3.035,8.847,0.41,12.066
				c3.445,3.219,8.847,3.035,12.066-0.41l119.467-128c2.082-2.229,2.817-5.399,1.928-8.316
				C169.411,335.928,167.033,333.706,164.062,333.017z"/>
			<path d="M350.156,332.8c-2.263-0.077-4.464,0.749-6.118,2.296c-1.655,1.545-2.628,3.685-2.705,5.948s0.749,4.464,2.296,6.118
				l119.467,128c3.219,3.445,8.621,3.628,12.066,0.41s3.628-8.621,0.41-12.066l-119.467-128
				C354.559,333.85,352.419,332.877,350.156,332.8z"/>
			<path d="M256,221.867c81.587,0,148.48-77.039,167.066-100.642c4.78-6.028,4.78-14.554,0-20.582C404.48,77.013,337.579,0,256,0
				S107.52,77.039,88.934,100.642c-4.776,6.027-4.776,14.547,0,20.574C107.52,144.828,174.413,221.867,256,221.867z M256,17.067
				c73.6,0,135.799,71.475,153.446,93.867C391.799,133.325,329.6,204.8,256,204.8c-73.89,0-136.294-72.047-153.66-93.602
				C119.706,89.114,182.11,17.067,256,17.067z"/>
			<path d="M256,187.733c42.396-0.047,76.753-34.404,76.8-76.8c0-4.713-3.82-8.533-8.533-8.533s-8.533,3.82-8.533,8.533
				c0,32.99-26.744,59.733-59.733,59.733s-59.733-26.744-59.733-59.733S223.01,51.2,256,51.2c4.713,0,8.533-3.82,8.533-8.533
				s-3.82-8.533-8.533-8.533c-42.415,0-76.8,34.385-76.8,76.8S213.585,187.733,256,187.733z"/>
			<path d="M213.333,110.933c0,4.713,3.82,8.533,8.533,8.533s8.533-3.82,8.533-8.533c0-14.138,11.461-25.6,25.6-25.6
				s25.6,11.462,25.6,25.6s-11.462,25.6-25.6,25.6c-4.713,0-8.533,3.82-8.533,8.533s3.82,8.533,8.533,8.533
				c23.564,0,42.667-19.103,42.667-42.667S279.564,68.267,256,68.267S213.333,87.369,213.333,110.933z"/>
		</g>
	</g>
</g>
<g>
</g>
<g>
</g>
<g>
</g>
<g>
</g>
<g>
</g>
<g>
</g>
<g>
</g>
<g>
</g>
<g>
</g>
<g>
</g>
<g>
</g>
<g>
</g>
<g>
</g>
<g>
</g>
<g>
</g>
</svg>
