<svg id="Capa_1" enable-background="new 0 0 512 512" height="512" viewBox="0 0 512 512" width="512" xmlns="http://www.w3.org/2000/svg"><g><path d="m252.236 111.454v-95.886c-1.447.003-2.893.477-4.092 1.425l-146.194 115.555c-1.094.865-1.837 2.007-2.218 3.246 49.484-16.214 100.991-24.34 152.504-24.34z" fill="#f87c68"/><path d="m252.236 53.068v-37.5c-1.446.003-2.892.477-4.092 1.425l-146.194 115.555c-1.094.865-1.837 2.007-2.218 3.246 22.864-7.492 46.162-13.234 69.69-17.268z" fill="#ec625e"/><path d="m252.236 327.133v-215.679c-51.513-.001-103.02 8.126-152.503 24.34-.621 2.021-.269 4.305 1.153 6.082l146.194 182.774c1.321 1.652 3.238 2.48 5.156 2.483z" fill="#f4dd45"/><path d="m142.621 123.896c-14.429 3.312-28.743 7.263-42.889 11.898-.62 2.021-.269 4.305 1.153 6.082l146.194 182.774c1.322 1.653 3.238 2.48 5.156 2.484v-66.195z" fill="#fcc101"/><path d="m404.766 135.803c-.379-1.242-1.122-2.388-2.22-3.255l-146.193-115.555c-1.207-.954-2.662-1.428-4.117-1.425v95.886c51.521.001 103.038 8.132 152.53 24.349z" fill="#f4dd45"/><path d="m257.418 324.649 146.194-182.774c1.419-1.775 1.772-4.053 1.155-6.073-49.492-16.217-101.009-24.348-152.531-24.349v215.679c1.926.005 3.854-.823 5.182-2.483z" fill="#f87c68"/><path d="m252.236 260.682v66.451c1.926.004 3.854-.824 5.182-2.484l22.991-28.744z" fill="#ec625e"/><g><g><path d="m92.687 145.752c-3.158 0-6.109-1.98-7.196-5.134-1.369-3.974.742-8.306 4.716-9.676 104.476-36.002 219.561-36.002 324.055 0 3.975 1.37 6.087 5.702 4.717 9.676-1.369 3.974-5.702 6.087-9.675 4.717-101.296-34.899-212.859-34.9-314.137 0-.82.282-1.657.417-2.48.417z" fill="#477b9e"/></g></g><g><g><path d="m252.248 363.172c-4.204 0-7.612-3.407-7.612-7.612v-347.948c0-4.204 3.408-7.612 7.612-7.612s7.612 3.407 7.612 7.612v347.949c0 4.204-3.408 7.611-7.612 7.611z" fill="#477b9e"/></g></g><path d="m369.788 326.13c-30.688.583-54.97 26.29-54.97 56.984v72.832c0 12.997-10.82 23.515-23.926 23.019-12.466-.472-22.147-11.111-22.147-23.585v-90.708c0-4.424-3.586-8.01-8.01-8.01h-16.998c-4.424 0-8.01 3.586-8.01 8.01v91.274c0 31.269 25.736 56.64 57.139 56.044 30.688-.583 54.97-26.291 54.97-56.985v-72.83c0-12.997 10.82-23.515 23.925-23.02 12.466.471 22.147 11.11 22.147 23.584v121.251c0 4.424 3.586 8.01 8.01 8.01h16.998c4.424 0 8.01-3.586 8.01-8.01v-121.815c0-31.27-25.736-56.641-57.138-56.045z" fill="#dbedff"/><g><g fill="#bbdafc"><path d="m309.836 478.965c13.106.496 23.926-10.021 23.926-23.019v-72.832c0-27.83 19.964-51.56 46.564-56.18-3.42-.584-6.939-.872-10.538-.804-30.688.583-54.97 26.29-54.97 56.984v72.832c0 9.308-5.55 17.342-13.513 20.972 2.611 1.206 5.487 1.932 8.531 2.047z"/><path d="m254.671 455.946v-91.274c0-4.094 3.073-7.464 7.037-7.945-.319-.039-.643-.065-.973-.065h-16.998c-4.424 0-8.01 3.586-8.01 8.01v91.274c0 31.269 25.736 56.64 57.139 56.044 2.862-.054 5.669-.328 8.405-.804-26.42-4.509-46.6-27.555-46.6-55.24z"/><path d="m412.852 503.99v-121.251c0-12.474-9.681-23.113-22.147-23.584-3.72-.141-7.255.608-10.412 2.047 8.082 3.734 13.614 12.11 13.614 21.537v121.251c0 4.424 3.586 8.01 8.01 8.01h16.998c.33 0 .653-.026.973-.065-3.963-.481-7.036-3.851-7.036-7.945z"/></g></g></g></svg>