<?xml version="1.0" encoding="iso-8859-1"?>
<!-- Generator: Adobe Illustrator 19.0.0, SVG Export Plug-In . SVG Version: 6.00 Build 0)  -->
<svg version="1.1" id="Capa_1" xmlns="http://www.w3.org/2000/svg" xmlns:xlink="http://www.w3.org/1999/xlink" x="0px" y="0px"
	 viewBox="0 0 512 512" style="enable-background:new 0 0 512 512;" xml:space="preserve">
<g>
	<g>
		<g>
			<path d="M486.4,0H25.6C11.461,0,0,11.461,0,25.6v384c0,14.138,11.461,25.6,25.6,25.6h179.2v59.733H128
				c-4.713,0-8.533,3.82-8.533,8.533S123.287,512,128,512h256c4.713,0,8.533-3.82,8.533-8.533s-3.82-8.533-8.533-8.533H221.867
				V435.2h68.267v25.6c0,4.713,3.82,8.533,8.533,8.533s8.533-3.82,8.533-8.533v-25.6h179.2c14.138,0,25.6-11.461,25.6-25.6v-384
				C512,11.461,500.539,0,486.4,0z M494.933,409.6c0,4.713-3.82,8.533-8.533,8.533H25.6c-4.713,0-8.533-3.82-8.533-8.533v-42.667
				h477.867V409.6z M494.933,349.867H17.067V25.6c0-4.713,3.82-8.533,8.533-8.533h460.8c4.713,0,8.533,3.82,8.533,8.533V349.867z"/>
			<path d="M413.278,37.239c-3.788-3.161-9.008-3.984-13.585-2.142l-232.218,93.756c-2.828,1.14-4.832,3.702-5.259,6.721
				c-0.426,3.019,0.79,6.036,3.191,7.915c2.401,1.879,5.622,2.334,8.45,1.193L381.44,60.868l-97.818,115.388
				c-1.971,2.326-2.551,5.527-1.522,8.397c1.029,2.87,3.511,4.973,6.511,5.517c3,0.544,6.062-0.554,8.033-2.88L396.689,69.291
				l-13.542,68.096l-16.333,109.039c-0.059,0.446-0.333,0.835-0.734,1.041c-0.36,0.204-0.801,0.204-1.161,0l-63.659-25.028h-0.06
				l-4.173-1.647l-32.495-13.611c-3.535-1.463-7.611-0.346-9.907,2.714c-0.068,0.077-0.111,0.179-0.179,0.265
				c-0.42,0.487-0.783,1.019-1.084,1.587c-0.094,0.239-0.06,0.478-0.137,0.708s-0.213,0.316-0.273,0.503l-17.655,59.255
				l-18.773-68.053l0.077-0.051c0.077,0,0.128-0.085,0.205-0.111c0.731-0.326,1.412-0.754,2.022-1.271l79.753-59.366
				c2.439-1.829,3.717-4.821,3.352-7.847c-0.365-3.027-2.316-5.629-5.12-6.827s-6.033-0.808-8.472,1.021l-76.373,56.875
				l-85.82-34.731c-2.847-1.257-6.153-0.864-8.626,1.024c-2.473,1.889-3.722,4.974-3.259,8.052s2.565,5.659,5.485,6.736l0.043-0.017
				l76.911,31.13c0.292,1.007,0.769,1.951,1.408,2.782l24.107,87.432c1.667,5.757,6.952,9.707,12.945,9.677h0.154
				c3.273-0.055,6.413-1.309,8.823-3.524c0.188-0.154,0.41-0.213,0.589-0.384l55.467-54.613l58.334,23.125
				c2.232,0.948,4.632,1.435,7.057,1.434c3.098-0.006,6.144-0.802,8.849-2.313c5.006-2.781,8.439-7.726,9.293-13.389l16.213-108.732
				l17.92-89.882C418.874,45.496,417.113,40.443,413.278,37.239z M257.22,258.509l9.523-31.915l12.971,5.444l3.106,1.237
				L257.22,258.509z"/>
			<path d="M143.36,204.22c-2.828-3.77-8.176-4.534-11.947-1.707l-51.2,38.127c-2.938,2.204-4.137,6.041-2.975,9.525
				S81.66,256,85.333,256c1.846,0,3.643-0.599,5.12-1.707l51.2-38.127C145.424,213.339,146.188,207.99,143.36,204.22z"/>
			<path d="M182.4,274.935l-42.667,34.133c-3.681,2.945-4.277,8.317-1.331,11.998c2.945,3.681,8.317,4.277,11.998,1.331
				l42.667-34.133c3.681-2.945,4.277-8.317,1.331-11.998C191.452,272.586,186.081,271.99,182.4,274.935z"/>
			<path d="M326.938,278.035c-2.896-0.954-6.08-0.292-8.355,1.739l-42.667,38.127c-3.516,3.139-3.821,8.533-0.683,12.049
				c3.139,3.516,8.533,3.821,12.049,0.683l42.667-38.127c2.274-2.03,3.293-5.12,2.671-8.105
				C332,281.416,329.834,278.989,326.938,278.035z"/>
		</g>
	</g>
</g>
<g>
</g>
<g>
</g>
<g>
</g>
<g>
</g>
<g>
</g>
<g>
</g>
<g>
</g>
<g>
</g>
<g>
</g>
<g>
</g>
<g>
</g>
<g>
</g>
<g>
</g>
<g>
</g>
<g>
</g>
</svg>
