<svg id="Capa_1" enable-background="new 0 0 512 512" height="512" viewBox="0 0 512 512" width="512" xmlns="http://www.w3.org/2000/svg"><g><path d="m242.726 5.801h-25.905c-6.835 0-12.377 5.541-12.377 12.377v81.241h50.658v-81.241c.001-6.835-5.54-12.377-12.376-12.377z" fill="#3f6d8e"/><path d="m242.947 5.813c-.074-.001-.147-.011-.222-.011h-25.905c-6.835 0-12.377 5.541-12.377 12.377v81.241h26.348v-81.241c.001-6.762 5.424-12.247 12.156-12.366z" fill="#365e7d"/><path d="m255.103 32.316h-12.526c-7.042 0-12.803 5.761-12.803 12.803v12.537c0 7.042 5.762 12.803 12.803 12.803h12.526z" fill="#477b9e"/><g><path d="m305.587 59.23h-14.582c-4.219 0-7.639-3.42-7.639-7.639s3.42-7.639 7.639-7.639h14.582c4.219 0 7.639 3.42 7.639 7.639s-3.421 7.639-7.639 7.639z" fill="#f4dd45"/></g><g><path d="m350.636 59.23h-14.582c-4.219 0-7.639-3.42-7.639-7.639s3.42-7.639 7.639-7.639h14.582c4.219 0 7.639 3.42 7.639 7.639s-3.42 7.639-7.639 7.639z" fill="#f4dd45"/></g><g><path d="m395.685 59.23h-14.581c-4.219 0-7.639-3.42-7.639-7.639s3.42-7.639 7.639-7.639h14.581c4.219 0 7.639 3.42 7.639 7.639s-3.42 7.639-7.639 7.639z" fill="#f4dd45"/></g><g><path d="m290.996 33.558c-3.634 0-6.856-2.603-7.513-6.307-.737-4.154 2.034-8.119 6.188-8.855l14.358-2.546c4.157-.736 8.119 2.034 8.855 6.188.737 4.154-2.034 8.119-6.188 8.855l-14.358 2.546c-.451.08-.9.119-1.342.119z" fill="#f4dd45"/></g><g><path d="m335.353 25.692c-3.634 0-6.856-2.603-7.513-6.307-.737-4.154 2.034-8.119 6.188-8.855l14.358-2.546c4.156-.736 8.119 2.034 8.855 6.188.737 4.154-2.034 8.119-6.188 8.855l-14.358 2.546c-.45.08-.899.119-1.342.119z" fill="#f4dd45"/></g><g><path d="m379.71 17.826c-3.634 0-6.856-2.603-7.513-6.307-.737-4.154 2.034-8.119 6.188-8.855l14.358-2.546c4.156-.736 8.119 2.034 8.855 6.188.737 4.154-2.034 8.119-6.188 8.855l-14.358 2.546c-.45.08-.899.119-1.342.119z" fill="#f4dd45"/></g><g><path d="m305.371 87.452c-.443 0-.892-.039-1.343-.119l-14.358-2.546c-4.154-.737-6.924-4.701-6.188-8.855s4.705-6.925 8.855-6.188l14.358 2.546c4.154.737 6.924 4.701 6.188 8.855-.656 3.703-3.878 6.307-7.512 6.307z" fill="#f4dd45"/></g><g><path d="m349.729 95.318c-.443 0-.891-.039-1.343-.119l-14.358-2.546c-4.154-.737-6.924-4.701-6.188-8.855s4.701-6.925 8.855-6.188l14.358 2.546c4.154.737 6.924 4.701 6.188 8.855-.656 3.703-3.878 6.307-7.512 6.307z" fill="#f4dd45"/></g><g><path d="m394.086 103.184c-.443 0-.892-.039-1.343-.119l-14.358-2.546c-4.154-.737-6.924-4.701-6.188-8.855s4.702-6.925 8.855-6.188l14.358 2.546c4.154.737 6.924 4.701 6.188 8.855-.656 3.703-3.878 6.307-7.512 6.307z" fill="#f4dd45"/></g><g><path d="m263.027 59.026h-14.581c-4.219 0-7.639-3.42-7.639-7.639s3.42-7.639 7.639-7.639h14.581c4.219 0 7.639 3.42 7.639 7.639s-3.42 7.639-7.639 7.639z" fill="#f4dd45"/></g><path d="m256.374 97.382h-53.201c-40.052 0-73.42 29.586-80.871 67.454h214.943c-7.451-37.868-40.819-67.454-80.871-67.454z" fill="#dbedff"/><path d="m235.089 97.382h-31.916c-40.052 0-73.42 29.586-80.871 67.454h53.591c6.055-32.195 29.229-58.667 59.196-67.454z" fill="#b5dcff"/><path d="m120.737 192.697h218.073v76.808h-218.073z" fill="#f4dd45"/><path d="m120.737 192.697h55.85v76.808h-55.85z" fill="#fcc101"/><path d="m120.737 406.312h218.073v77.68h-218.073z" fill="#f4dd45"/><path d="m120.737 406.312h55.85v77.68h-55.85z" fill="#fcc101"/><path d="m343.052 163.818h-226.557c-4.318 0-7.819 3.5-7.819 7.818v16.364c0 4.318 3.5 7.819 7.819 7.819h226.557c4.318 0 7.819-3.5 7.819-7.819v-16.364c0-4.318-3.501-7.818-7.819-7.818z" fill="#ffe97b"/><path d="m343.052 479.998h-226.557c-4.318 0-7.819 3.5-7.819 7.818v16.365c0 4.318 3.5 7.819 7.819 7.819h226.557c4.318 0 7.819-3.5 7.819-7.819v-16.365c0-4.317-3.501-7.818-7.819-7.818z" fill="#ffe97b"/><path d="m168.769 188v-16.364c0-4.318 3.501-7.819 7.819-7.819h-60.092c-4.318 0-7.819 3.501-7.819 7.819v16.364c0 4.318 3.501 7.819 7.819 7.819h60.092c-4.319 0-7.819-3.5-7.819-7.819z" fill="#f4dd45"/><path d="m168.769 504.181v-16.364c0-4.318 3.501-7.818 7.819-7.818h-60.092c-4.318 0-7.819 3.5-7.819 7.818v16.364c0 4.318 3.501 7.819 7.819 7.819h60.092c-4.319 0-7.819-3.5-7.819-7.819z" fill="#f4dd45"/><path d="m120.737 264.008h218.073v147.802h-218.073z" fill="#f87c68"/><path d="m120.737 264.008h55.85v147.802h-55.85z" fill="#ec625e"/></g></svg>