<?xml version="1.0" encoding="iso-8859-1"?>
<!-- Generator: Adobe Illustrator 19.0.0, SVG Export Plug-In . SVG Version: 6.00 Build 0)  -->
<svg version="1.1" id="Capa_1" xmlns="http://www.w3.org/2000/svg" xmlns:xlink="http://www.w3.org/1999/xlink" x="0px" y="0px"
	 viewBox="0 0 512 512" style="enable-background:new 0 0 512 512;" xml:space="preserve">
<g>
	<g>
		<g>
			<path d="M358.4,252.86V20.207C358.358,9.028,349.278-0.009,338.099,0H20.301C9.122-0.009,0.042,9.028,0,20.207V252.86
				c0.038,11.181,9.12,20.221,20.301,20.207h317.798C349.28,273.081,358.362,264.041,358.4,252.86z M17.067,252.86V20.207
				c0.028-1.759,1.475-3.164,3.234-3.14h317.798c1.759-0.024,3.206,1.381,3.234,3.14V252.86c-0.028,1.759-1.475,3.164-3.234,3.14
				H20.301C18.541,256.024,17.095,254.619,17.067,252.86z"/>
			<path d="M310.494,35.959l-125.389,98.594c-3.495,2.627-8.306,2.627-11.802,0L47.94,35.959c-2.391-1.946-5.646-2.45-8.514-1.32
				c-2.868,1.13-4.904,3.719-5.325,6.773s0.837,6.097,3.292,7.962l125.363,98.594c9.687,7.487,23.209,7.487,32.896,0l125.355-98.594
				c3.704-2.913,4.345-8.276,1.434-11.981C319.53,33.711,314.193,33.071,310.494,35.959z"/>
			<path d="M122.15,154.032c-2.894-0.959-6.08-0.3-8.358,1.727l-76.8,68.267c-3.521,3.134-3.834,8.529-0.7,12.049
				c3.134,3.52,8.529,3.834,12.049,0.7l76.8-68.267c2.277-2.027,3.3-5.116,2.683-8.102
				C127.207,157.42,125.044,154.99,122.15,154.032z"/>
			<path d="M244.608,155.759c-2.277-2.027-5.463-2.686-8.358-1.727c-2.894,0.959-5.058,3.388-5.675,6.374
				c-0.617,2.986,0.406,6.074,2.683,8.102l76.8,68.267c2.277,2.027,5.463,2.686,8.358,1.727c2.894-0.959,5.058-3.388,5.675-6.374
				c0.617-2.986-0.406-6.074-2.683-8.102L244.608,155.759z"/>
			<path d="M491.691,238.933H460.8c-4.713,0-8.533,3.82-8.533,8.533S456.087,256,460.8,256h30.891
				c0.849-0.011,1.667,0.315,2.275,0.907c0.608,0.592,0.956,1.402,0.967,2.25v232.619c-0.011,0.849-0.359,1.658-0.967,2.25
				s-1.427,0.918-2.275,0.907H173.909c-0.849,0.011-1.667-0.315-2.275-0.907s-0.956-1.402-0.967-2.25v-73.643
				c0-4.713-3.82-8.533-8.533-8.533s-8.533,3.82-8.533,8.533v73.643c0.033,11.189,9.12,20.238,20.309,20.224h317.781
				c11.189,0.014,20.276-9.035,20.309-20.224V259.157C511.967,247.968,502.88,238.919,491.691,238.933z"/>
			<path d="M248.192,411.759l-57.6,51.2c-3.52,3.134-3.834,8.529-0.7,12.049c3.134,3.52,8.529,3.834,12.049,0.7l57.6-51.2
				c3.52-3.134,3.834-8.529,0.7-12.049C257.107,408.938,251.713,408.625,248.192,411.759z"/>
			<path d="M411.215,409.613c-2.262,0.133-4.378,1.16-5.882,2.854c-3.127,3.521-2.81,8.91,0.708,12.041l57.6,51.2
				c3.521,3.134,8.915,2.821,12.049-0.7c3.134-3.521,2.821-8.915-0.7-12.049l-57.6-51.2
				C415.699,410.252,413.477,409.48,411.215,409.613z"/>
			<path d="M435.2,372.309V139.691c-0.033-11.189-9.12-20.238-20.309-20.224H384c-4.713,0-8.533,3.82-8.533,8.533
				c0,4.713,3.82,8.533,8.533,8.533h30.891c0.849-0.011,1.667,0.315,2.275,0.907c0.608,0.592,0.956,1.402,0.967,2.25v232.619
				c-0.011,0.849-0.359,1.658-0.967,2.25s-1.427,0.918-2.275,0.907H97.109c-0.849,0.011-1.667-0.315-2.275-0.907
				c-0.608-0.592-0.956-1.402-0.967-2.25v-73.643c0-4.713-3.821-8.533-8.533-8.533s-8.533,3.82-8.533,8.533v73.643
				c0.033,11.189,9.12,20.238,20.309,20.224h317.781C426.08,392.547,435.167,383.498,435.2,372.309z"/>
			<path d="M179.75,290.565c-2.894-0.959-6.08-0.3-8.358,1.727l-57.6,51.2c-3.52,3.134-3.834,8.529-0.7,12.049
				c3.134,3.52,8.529,3.834,12.049,0.7l57.6-51.2c2.277-2.027,3.3-5.116,2.683-8.102
				C184.807,293.954,182.644,291.524,179.75,290.565z"/>
			<path d="M334.415,290.146c-2.262,0.133-4.378,1.16-5.882,2.854c-3.127,3.521-2.81,8.91,0.708,12.041l57.6,51.2
				c2.277,2.027,5.463,2.686,8.358,1.727s5.058-3.388,5.675-6.374c0.617-2.986-0.406-6.074-2.683-8.102l-57.6-51.2
				C338.899,290.785,336.677,290.013,334.415,290.146z"/>
		</g>
	</g>
</g>
<g>
</g>
<g>
</g>
<g>
</g>
<g>
</g>
<g>
</g>
<g>
</g>
<g>
</g>
<g>
</g>
<g>
</g>
<g>
</g>
<g>
</g>
<g>
</g>
<g>
</g>
<g>
</g>
<g>
</g>
</svg>
