<?xml version="1.0" encoding="iso-8859-1"?>
<!-- Generator: Adobe Illustrator 19.0.0, SVG Export Plug-In . SVG Version: 6.00 Build 0)  -->
<svg version="1.1" id="Capa_1" xmlns="http://www.w3.org/2000/svg" xmlns:xlink="http://www.w3.org/1999/xlink" x="0px" y="0px"
	 viewBox="0 0 512 512" style="enable-background:new 0 0 512 512;" xml:space="preserve">
<g>
	<g>
		<g>
			<path d="M260.264,460.8h-17.067c-4.713,0-8.533,3.82-8.533,8.533s3.82,8.533,8.533,8.533h17.067c4.713,0,8.533-3.82,8.533-8.533
				S264.977,460.8,260.264,460.8z"/>
			<path d="M268.797,256c0,4.713,3.82,8.533,8.533,8.533s8.533-3.82,8.533-8.533c-0.042-37.685-30.582-68.224-68.267-68.267h-68.267
				c-37.703,0-68.267,30.564-68.267,68.267s30.564,68.267,68.267,68.267c4.713,0,8.533-3.82,8.533-8.533s-3.82-8.533-8.533-8.533
				c-28.277,0-51.2-22.923-51.2-51.2s22.923-51.2,51.2-51.2h68.267C245.863,204.828,268.769,227.735,268.797,256z"/>
			<path d="M362.664,187.733c-4.713,0-8.533,3.82-8.533,8.533s3.82,8.533,8.533,8.533c28.277,0,51.2,22.923,51.2,51.2
				s-22.923,51.2-51.2,51.2h-68.267c-28.265-0.028-51.172-22.935-51.2-51.2c0-4.713-3.82-8.533-8.533-8.533s-8.533,3.82-8.533,8.533
				c0.042,37.685,30.582,68.224,68.267,68.267h68.267c37.703,0,68.267-30.564,68.267-68.267S400.367,187.733,362.664,187.733z"/>
			<path d="M405.331,144.546V25.6c0-14.138-11.461-25.6-25.6-25.6h-256c-14.138,0-25.6,11.461-25.6,25.6v122.624
				C56.45,167.927,29.866,209.897,29.866,256s26.584,88.073,68.264,107.776V486.4c0,14.138,11.462,25.6,25.6,25.6h256
				c14.138,0,25.6-11.461,25.6-25.6V367.454c46.244-17.62,76.803-61.967,76.803-111.454
				C482.134,206.513,451.575,162.166,405.331,144.546z M393.683,353.57h-0.008l-0.307,0.111c-9.933,3.131-20.288,4.723-30.703,4.719
				h-68.267c-56.529-0.061-102.339-45.871-102.4-102.4c0-4.713-3.82-8.533-8.533-8.533s-8.533,3.82-8.533,8.533
				c0.07,65.95,53.516,119.396,119.467,119.467h68.267c8.61-0.019,17.194-0.969,25.6-2.833v45.5h-25.6
				c-4.713,0-8.533,3.82-8.533,8.533s3.82,8.533,8.533,8.533h25.6v51.2c0,4.713-3.82,8.533-8.533,8.533h-256
				c-4.713,0-8.533-3.82-8.533-8.533v-51.2h196.267c4.713,0,8.533-3.82,8.533-8.533s-3.82-8.533-8.533-8.533H115.197v-47.701
				c11.072,3.331,22.571,5.027,34.133,5.035h34.133c4.713,0,8.533-3.82,8.533-8.533s-3.82-8.533-8.533-8.533h-34.133
				c-56.554,0-102.4-45.846-102.4-102.4c0-56.554,45.846-102.4,102.4-102.4h68.267c56.529,0.061,102.339,45.871,102.4,102.4
				c0,4.713,3.82,8.533,8.533,8.533s8.533-3.82,8.533-8.533c-0.07-65.95-53.516-119.396-119.467-119.467h-68.267
				c-11.562,0.008-23.061,1.704-34.133,5.035V85.333h25.6c4.713,0,8.533-3.82,8.533-8.533s-3.82-8.533-8.533-8.533h-25.6V25.6
				c0-4.713,3.82-8.533,8.533-8.533h256c4.713,0,8.533,3.82,8.533,8.533v42.667H191.997c-4.713,0-8.533,3.82-8.533,8.533
				s3.82,8.533,8.533,8.533h196.267v54.033c-8.406-1.864-16.99-2.814-25.6-2.833h-34.133c-4.713,0-8.533,3.82-8.533,8.533
				s3.82,8.533,8.533,8.533h34.133c10.421-0.004,20.781,1.587,30.72,4.719l0.299,0.111c42.479,13.53,71.322,52.989,71.322,97.57
				S436.161,340.04,393.683,353.57z"/>
		</g>
	</g>
</g>
<g>
</g>
<g>
</g>
<g>
</g>
<g>
</g>
<g>
</g>
<g>
</g>
<g>
</g>
<g>
</g>
<g>
</g>
<g>
</g>
<g>
</g>
<g>
</g>
<g>
</g>
<g>
</g>
<g>
</g>
</svg>
