<?xml version="1.0" encoding="iso-8859-1"?>
<!-- Generator: Adobe Illustrator 19.0.0, SVG Export Plug-In . SVG Version: 6.00 Build 0)  -->
<svg version="1.1" id="Capa_1" xmlns="http://www.w3.org/2000/svg" xmlns:xlink="http://www.w3.org/1999/xlink" x="0px" y="0px"
	 viewBox="0 0 504.201 504.201" style="enable-background:new 0 0 504.201 504.201;" xml:space="preserve">
<g transform="translate(-1)">
	<g>
		<g>
			<path d="M389.498,411.326l-79.226-52.82c-10.868-7.188-25.435-4.825-33.473,5.431l-23.065,29.662
				c-2.408,3.171-6.778,4.097-10.265,2.174l-4.415-2.434c-14.445-7.873-32.424-17.677-68.717-53.97
				c-36.293-36.293-46.105-54.289-53.978-68.734l-2.426-4.398c-1.926-3.488-1.004-7.86,2.166-10.274l29.662-23.065
				c10.259-8.036,12.623-22.606,5.431-33.473L98.38,120.2c-7.367-11.097-22.164-14.426-33.574-7.554l-33.079,19.893
				c-10.831,6.361-18.776,16.67-22.167,28.764c-12.053,43.948-3.097,119.665,108.04,230.82
				c88.307,88.291,154.255,112.086,199.672,112.078c10.512,0.046,20.982-1.318,31.131-4.054c12.092-3.395,22.4-11.339,28.764-22.167
				l19.867-33.129C403.892,433.457,400.571,418.687,389.498,411.326z M382.649,436.221l-19.876,33.12
				c-4.149,7.114-10.889,12.347-18.81,14.605c-39.625,10.911-109.056,1.679-214.494-103.709S14.874,205.401,25.752,165.742
				c2.257-7.92,7.491-14.66,14.605-18.81l33.146-19.876c3.712-2.217,8.51-1.136,10.911,2.459l52.812,79.217
				c2.339,3.544,1.569,8.289-1.771,10.911l-29.662,23.065c-9.745,7.471-12.523,20.965-6.522,31.677l2.342,4.281
				c8.393,15.385,18.843,34.539,56.857,72.561s57.159,48.447,72.544,56.84l4.289,2.359c10.717,6,24.214,3.219,31.685-6.53
				l23.065-29.646c2.615-3.35,7.367-4.125,10.911-1.779l79.226,52.82C383.799,427.693,384.882,432.506,382.649,436.221z"/>
			<path d="M257.318,109.112h-25.18c-4.636,0-8.393,3.758-8.393,8.393c0,4.636,3.758,8.393,8.393,8.393h25.18
				c4.636,0,8.393-3.758,8.393-8.393C265.712,112.87,261.954,109.112,257.318,109.112z"/>
			<path d="M257.318,142.686h-25.18c-4.636,0-8.393,3.758-8.393,8.393s3.758,8.393,8.393,8.393h25.18
				c4.636,0,8.393-3.758,8.393-8.393S261.954,142.686,257.318,142.686z"/>
			<path d="M450.368,76.209V17.22c0.026-6.215-3.284-11.966-8.67-15.066c-5.215-2.977-11.641-2.861-16.745,0.302L322.049,67.145
				H215.351c-18.542,0-33.574,15.031-33.574,33.574v67.148c0,18.542,15.031,33.574,33.574,33.574h75.541v92.328h-27.379
				l-18.835-61.222c-0.826-2.933-3.176-5.188-6.14-5.892c-2.965-0.704-6.078,0.254-8.134,2.503
				c-2.056,2.249-2.732,5.435-1.766,8.325l18.835,61.23c2.147,7.059,8.67,11.873,16.048,11.843h27.371
				c9.271,0,16.787-7.516,16.787-16.787V201.44h14.37l103.055,64.781c5.08,3.089,11.438,3.17,16.594,0.21
				c5.387-3.1,8.697-8.851,8.67-15.066v-58.989c28.888-4.149,50.337-28.898,50.337-58.083
				C500.705,105.107,479.256,80.358,450.368,76.209z M332.859,188.405v-79.293c0-4.636-3.758-8.393-8.393-8.393
				c-4.636,0-8.393,3.758-8.393,8.393v75.541H215.351c-9.271,0-16.787-7.516-16.787-16.787v-67.148
				c0-9.271,7.516-16.787,16.787-16.787h109.115c0.218-0.033,0.434-0.077,0.646-0.134c0.57-0.048,1.133-0.157,1.679-0.327
				c0.543-0.141,1.07-0.34,1.57-0.596c0.201-0.101,0.42-0.109,0.613-0.227L433.581,17.22l0.084,66.308
				c0,0.151-0.084,0.277-0.084,0.428c0,0.151,0.076,0.277,0.084,0.428l0.134,99.227c-0.096,0.342-0.169,0.689-0.218,1.041
				c0.047,0.363,0.12,0.722,0.218,1.074l0.084,66.191L332.859,188.405z M450.368,175.42V93.164
				c19.559,3.972,33.616,21.169,33.616,41.128S469.927,171.448,450.368,175.42z"/>
		</g>
	</g>
</g>
<g>
</g>
<g>
</g>
<g>
</g>
<g>
</g>
<g>
</g>
<g>
</g>
<g>
</g>
<g>
</g>
<g>
</g>
<g>
</g>
<g>
</g>
<g>
</g>
<g>
</g>
<g>
</g>
<g>
</g>
</svg>
