<svg id="Capa_1" enable-background="new 0 0 512 512" height="512" viewBox="0 0 512 512" width="512" xmlns="http://www.w3.org/2000/svg"><g><path d="m126.66 80.495h85.567v-61.071c-.001-10.728-8.574-19.424-19.149-19.424h-48.345c-10.575 0-19.148 8.696-19.148 19.424v61.127c.358-.019.712-.056 1.075-.056z" fill="#477b9e"/><path d="m385.34 80.495c.304 0 .601.034.902.047v-61.118c0-10.728-8.572-19.424-19.148-19.424h-48.345c-10.575 0-19.148 8.696-19.148 19.424v61.071z" fill="#477b9e"/><path d="m328.949 0h27.946v80.551h-27.946z" fill="#365e7d"/><path d="m154.933 0h27.946v80.551h-27.946z" fill="#365e7d"/><path d="m120.399 375.996h-49.993v95.339c0 13.312 10.792 24.104 24.104 24.104h27.404c-.98-2.69-1.516-5.594-1.516-8.624v-110.819z" fill="#ec625e"/><path d="m120.399 434.172h-25.889c-13.312 0-24.104-10.792-24.104-24.104v61.267c0 13.312 10.792 24.104 24.104 24.104h27.405c-.981-2.69-1.516-5.594-1.516-8.624z" fill="#df4854"/><path d="m391.601 375.996v110.82c0 3.029-.536 5.934-1.516 8.624h27.404c13.312 0 24.104-10.792 24.104-24.104v-95.339h-49.992z" fill="#ec625e"/><path d="m417.49 434.172h-25.888v52.644c0 3.029-.536 5.933-1.516 8.624h27.404c13.312 0 24.105-10.792 24.105-24.104v-61.267c-.001 13.311-10.793 24.103-24.105 24.103z" fill="#df4854"/><path d="m70.406 326.429v51.627h49.993v-75.731h-25.889c-13.312 0-24.104 10.792-24.104 24.104z" fill="#f87c68"/><path d="m417.49 302.325h-25.888v75.731h49.992v-51.627c0-13.312-10.792-24.104-24.104-24.104z" fill="#f87c68"/><path d="m117.308 236.901v249.915c0 13.909 11.275 25.184 25.184 25.184h227.015c13.909 0 25.185-11.275 25.185-25.184v-249.915z" fill="#f4dd45"/><path d="m170.589 486.816v-249.915h-53.281v249.915c0 13.909 11.275 25.184 25.184 25.184h53.281c-13.909 0-25.184-11.275-25.184-25.184z" fill="#fcc101"/><g><g><path d="m299.592 89.651c-3.982 0-7.363-3.058-7.692-7.098-1.625-19.904-17.432-35.495-35.987-35.495s-34.362 15.592-35.987 35.495c-.347 4.253-4.073 7.415-8.33 7.072-4.253-.348-7.419-4.076-7.072-8.33 1.097-13.441 6.874-25.918 16.265-35.132 9.568-9.388 22.042-14.558 35.123-14.558 13.082 0 25.555 5.17 35.123 14.558 9.391 9.214 15.168 21.691 16.265 35.132.347 4.254-2.819 7.982-7.072 8.33-.212.018-.425.026-.636.026z" fill="#f4dd45"/></g></g><path d="m342.081 404.296h-172.334c-6.831 0-12.42-5.589-12.42-12.42v75.617c0 6.831 5.589 12.42 12.42 12.42h172.334c6.831 0 12.42-5.589 12.42-12.42v-75.617c0 6.831-5.589 12.42-12.42 12.42z" fill="#ec625e"/><g><path d="m210.607 467.493v-63.197h-40.86c-6.831 0-12.421-5.589-12.421-12.42v75.617c0 6.831 5.589 12.421 12.421 12.421h53.281c-6.832 0-12.421-5.59-12.421-12.421z" fill="#df4854"/></g><path d="m385.34 79.353h-258.68c-11.691 0-21.256 9.565-21.256 21.257v120.334c0 11.691 9.565 21.256 21.256 21.256h258.68c11.691 0 21.256-9.565 21.256-21.256v-120.334c.001-11.692-9.565-21.257-21.256-21.257z" fill="#f87c68"/><g fill="#ec625e"><path d="m158.684 220.943v-120.333c0-11.691 9.565-21.257 21.256-21.257h-53.28c-11.691 0-21.256 9.565-21.256 21.257v120.334c0 11.691 9.565 21.256 21.256 21.256h53.281c-11.692-.001-21.257-9.566-21.257-21.257z"/><path d="m349.671 144.216h-26.911c-2.657 0-4.83 2.173-4.83 4.83v152.841c0 10.057 8.229 18.286 18.286 18.286 10.057 0 18.286-8.229 18.286-18.286v-152.841c-.001-2.657-2.174-4.83-4.831-4.83z"/><path d="m189.067 144.216h-26.911c-2.657 0-4.83 2.173-4.83 4.83v152.841c0 10.057 8.229 18.286 18.286 18.286 10.057 0 18.286-8.229 18.286-18.286v-152.841c-.001-2.657-2.174-4.83-4.831-4.83z"/></g><path d="m336.216 301.887v-152.841c0-2.657 2.174-4.83 4.83-4.83h-18.286c-2.656 0-4.83 2.173-4.83 4.83v152.841c0 10.057 8.229 18.286 18.286 18.286 3.328 0 6.447-.916 9.143-2.487-5.45-3.175-9.143-9.071-9.143-15.799z" fill="#df4854"/><path d="m175.612 301.887v-152.841c0-2.657 2.174-4.83 4.83-4.83h-18.286c-2.656 0-4.83 2.173-4.83 4.83v152.841c0 10.057 8.229 18.286 18.286 18.286 3.328 0 6.447-.916 9.143-2.487-5.45-3.175-9.143-9.071-9.143-15.799z" fill="#df4854"/><g><path d="m197.175 275.457h-43.127c-4.267 0-7.726-3.459-7.726-7.726 0-4.268 3.459-7.726 7.726-7.726h43.127c4.267 0 7.726 3.459 7.726 7.726.001 4.267-3.459 7.726-7.726 7.726z" fill="#fcc101"/></g><g><path d="m357.779 275.457h-43.127c-4.267 0-7.726-3.459-7.726-7.726 0-4.268 3.459-7.726 7.726-7.726h43.127c4.267 0 7.726 3.459 7.726 7.726s-3.459 7.726-7.726 7.726z" fill="#fcc101"/></g><path d="m342.081 345.634h-172.334c-6.831 0-12.42 5.589-12.42 12.42v35.881c0 6.831 5.589 12.421 12.42 12.421h172.334c6.831 0 12.42-5.589 12.42-12.421v-35.881c0-6.83-5.589-12.42-12.42-12.42z" fill="#f87c68"/><path d="m210.607 393.936v-35.881c0-6.832 5.589-12.421 12.421-12.421h-53.281c-6.831 0-12.421 5.589-12.421 12.421v35.881c0 6.831 5.589 12.42 12.421 12.42h53.281c-6.832.001-12.421-5.589-12.421-12.42z" fill="#ec625e"/><g><path d="m365.478 218.615h-58.525c-10.692 0-19.39-8.698-19.39-19.39v-16.78c0-10.692 8.699-19.39 19.39-19.39h58.525c10.692 0 19.39 8.698 19.39 19.39v16.78c0 10.692-8.698 19.39-19.39 19.39zm-58.525-40.107c-2.171 0-3.938 1.767-3.938 3.938v16.78c0 2.171 1.767 3.938 3.938 3.938h58.525c2.171 0 3.937-1.767 3.937-3.938v-16.78c0-2.171-1.766-3.938-3.937-3.938z" fill="#dbedff"/></g><g><path d="m204.874 218.615h-58.524c-10.692 0-19.39-8.698-19.39-19.39v-16.78c0-10.692 8.699-19.39 19.39-19.39h58.524c10.692 0 19.39 8.698 19.39 19.39v16.78c.001 10.692-8.698 19.39-19.39 19.39zm-58.524-40.107c-2.171 0-3.938 1.767-3.938 3.938v16.78c0 2.171 1.767 3.938 3.938 3.938h58.524c2.171 0 3.938-1.767 3.938-3.938v-16.78c0-2.171-1.767-3.938-3.938-3.938z" fill="#dbedff"/></g></g></svg>