<?xml version="1.0" encoding="iso-8859-1"?>
<!-- Generator: Adobe Illustrator 19.0.0, SVG Export Plug-In . SVG Version: 6.00 Build 0)  -->
<svg version="1.1" id="Capa_1" xmlns="http://www.w3.org/2000/svg" xmlns:xlink="http://www.w3.org/1999/xlink" x="0px" y="0px"
	 viewBox="0 0 512 512" style="enable-background:new 0 0 512 512;" xml:space="preserve">
<g>
	<g>
		<g>
			<path d="M477.867,0H34.133C15.282,0,0,15.282,0,34.133V76.8c0,4.713,3.82,8.533,8.533,8.533h384c4.713,0,8.533-3.82,8.533-8.533
				s-3.821-8.533-8.533-8.533H17.067V34.133c0-9.426,7.641-17.067,17.067-17.067h443.733c9.426,0,17.067,7.641,17.067,17.067v34.133
				h-51.2c-4.713,0-8.533,3.82-8.533,8.533s3.82,8.533,8.533,8.533h59.733c4.713,0,8.533-3.82,8.533-8.533V34.133
				C512,15.282,496.718,0,477.867,0z"/>
			<path d="M503.467,102.4c-4.713,0-8.533,3.82-8.533,8.533v366.933c0,9.426-7.641,17.067-17.067,17.067H34.133
				c-9.426,0-17.067-7.641-17.067-17.067V110.933c0-4.713-3.82-8.533-8.533-8.533S0,106.221,0,110.933v366.933
				C0,496.718,15.282,512,34.133,512h443.733C496.718,512,512,496.718,512,477.867V110.933C512,106.221,508.18,102.4,503.467,102.4z
				"/>
			<path d="M42.667,34.133c-4.713,0-8.533,3.82-8.533,8.533s3.82,8.533,8.533,8.533H51.2c4.713,0,8.533-3.82,8.533-8.533
				s-3.82-8.533-8.533-8.533H42.667z"/>
			<path d="M85.333,34.133c-4.713,0-8.533,3.82-8.533,8.533s3.82,8.533,8.533,8.533h8.533c4.713,0,8.533-3.82,8.533-8.533
				s-3.821-8.533-8.533-8.533H85.333z"/>
			<path d="M128,34.133c-4.713,0-8.533,3.82-8.533,8.533S123.287,51.2,128,51.2h8.533c4.713,0,8.533-3.82,8.533-8.533
				s-3.82-8.533-8.533-8.533H128z"/>
			<path d="M153.6,401.067c0,4.713,3.82,8.533,8.533,8.533H384c18.851,0,34.133-15.282,34.133-34.133v-204.8
				c0-18.851-15.282-34.133-34.133-34.133H128c-18.851,0-34.133,15.282-34.133,34.133v230.4c0,4.713,3.82,8.533,8.533,8.533
				s8.533-3.82,8.533-8.533v-230.4c0-9.426,7.641-17.067,17.067-17.067h256c9.426,0,17.067,7.641,17.067,17.067v204.8
				c0,9.426-7.641,17.067-17.067,17.067H162.133C157.421,392.533,153.6,396.354,153.6,401.067z"/>
			<path d="M221.867,349.867c0,9.426,7.641,17.067,17.067,17.067h34.133c9.426,0,17.067-7.641,17.067-17.067v-85.333
				c0-9.426-7.641-17.067-17.067-17.067h-34.133c-9.426,0-17.067,7.641-17.067,17.067V349.867z M238.933,264.533h34.133v85.333
				h-34.133V264.533z"/>
			<path d="M238.933,230.4h34.133c9.426,0,17.067-7.641,17.067-17.067v-17.067c0-9.426-7.641-17.067-17.067-17.067h-34.133
				c-9.426,0-17.067,7.641-17.067,17.067v17.067C221.867,222.759,229.508,230.4,238.933,230.4z M238.933,196.267h34.133v17.067
				h-34.133V196.267z"/>
		</g>
	</g>
</g>
<g>
</g>
<g>
</g>
<g>
</g>
<g>
</g>
<g>
</g>
<g>
</g>
<g>
</g>
<g>
</g>
<g>
</g>
<g>
</g>
<g>
</g>
<g>
</g>
<g>
</g>
<g>
</g>
<g>
</g>
</svg>
