<svg id="Capa_1" enable-background="new 0 0 512 512" height="512" viewBox="0 0 512 512" width="512" xmlns="http://www.w3.org/2000/svg"><g><path d="m187.552 49.654-3.626-11.487c-.124.004-.245.019-.369.019h-69.993c-.124 0-.246-.015-.369-.019l-3.626 11.487c-3.765 9.79-5.719 20.178-5.79 30.664l6.48 6.908h76.406l6.678-6.908c-.072-10.486-2.025-20.875-5.791-30.664z" fill="#fcc101"/><g fill="#f2ab08"><path d="m154.351 49.654 3.62-11.468h-44.406c-.124 0-.246-.015-.369-.019l-3.626 11.487c-3.765 9.79-5.719 20.178-5.79 30.664l6.48 6.908h44.782l-6.48-6.908c.07-10.486 2.024-20.875 5.789-30.664z"/><path d="m183.927 38.167c-.124.004-.245.019-.369.019h.376z"/></g><path d="m198.217 269.831v-4.207-31.886c0-7.151 5.797-12.949 12.949-12.949h5.189c-.011-.007-.021-.012-.032-.018-2.299-4.081-5.677-10.848-5.677-15.866 0-2.605.355-5.125 1.015-7.517-10.505-14.702-18.305-32.375-18.305-50.608v-65.869c0-.198-.012-.396-.014-.594h-89.564c-.002.198-.014.396-.014.594v65.869c0 21.534-7.98 42.305-22.398 58.3-14.418 15.995-22.398 36.766-22.398 58.3v6.451z" fill="#f4dd45"/><path d="m198.312 479.803c-.057-.81-.096-1.625-.096-2.45v-36.054h-139.247v36.754c0 18.748 15.199 33.947 33.947 33.947h55.645 57.705c4.694 0 9.165-.953 13.231-2.676-11.714-4.902-20.248-16.124-21.185-29.521z" fill="#f4dd45"/><path d="m128.218 205.08c13.108-15.995 20.363-36.766 20.363-58.3v-65.869c0-.198.011-.396.013-.594h-44.815c-.002.198-.014.396-.014.594v65.869c0 21.534-7.98 42.305-22.398 58.3-14.418 15.995-22.398 36.766-22.398 58.3v6.451h48.886v-6.451c0-21.534 7.255-42.305 20.363-58.3z" fill="#fcc101"/><path d="m107.855 478.053v-36.754h-48.886v36.754c0 18.748 15.199 33.947 33.947 33.947h45.802c-17.045 0-30.863-15.198-30.863-33.947z" fill="#fcc101"/><path d="m183.557 0h-69.993c-6.929 0-12.599 5.669-12.599 12.599v15.049c0 6.929 5.669 12.599 12.599 12.599h69.993c6.929 0 12.599-5.669 12.599-12.599v-15.049c0-6.929-5.669-12.599-12.599-12.599z" fill="#f87c68"/><path d="m145.747 28.04v-15.834c0-5.465 3.352-10.185 8.102-12.206h-40.285c-6.929 0-12.599 5.669-12.599 12.599v15.048c0 6.929 5.67 12.599 12.599 12.599h40.285c-4.749-2.021-8.102-6.741-8.102-12.206z" fill="#ec625e"/><path d="m58.969 265.624h139.028v179.882h-139.028z" fill="#f87c68"/><path d="m58.969 265.624h48.885v179.882h-48.885z" fill="#ec625e"/><path d="m58.969 305.065h139.028v101.001h-139.028z" fill="#ec625e"/><path d="m58.969 305.065h48.885v101.001h-48.885z" fill="#df4854"/><path d="m408.585 244.004h-36.707v31.497h36.707c7.14 0 12.948 5.808 12.948 12.948v146.831c0 7.14-5.808 12.949-12.948 12.949h-36.707v29.124c0 .798-.037 1.588-.09 2.373h36.797c24.508 0 44.445-19.939 44.445-44.446v-146.831c.001-24.507-19.937-44.445-44.445-44.445z" fill="#dbedff"/><g fill="#b5dcff"><path d="m404.948 244.004h-33.069v31.497h33.069c0-14.085 0-17.367 0-31.497z"/><path d="m404.948 448.229h-33.069v29.124c0 .798-.037 1.588-.09 2.373h33.069c.053-.785.09-1.574.09-2.373z"/></g><path d="m373.939 267.684v-36.007c0-7.151-5.797-12.949-12.949-12.949h-151.885c-7.152 0-12.949 5.797-12.949 12.949v36.007z" fill="#dbedff"/><path d="m247.576 218.729h-38.471c-7.152 0-12.949 5.797-12.949 12.949v36.007h38.471v-36.007c0-7.152 5.797-12.949 12.949-12.949z" fill="#b5dcff"/><path d="m373.492 482.894c.29-1.805.446-3.654.446-5.54v-211.73h-177.782v211.729c0 1.886.156 3.736.446 5.54h176.89z" fill="#fcc101"/><path d="m234.627 265.624h-38.471v211.729c0 1.886.156 3.736.446 5.54h38.471c-.29-1.805-.446-3.654-.446-5.54z" fill="#f2ab08"/><path d="m196.252 479.803c1.258 17.991 16.24 32.197 34.551 32.197h108.489c18.31 0 33.293-14.206 34.551-32.197z" fill="#f2ab08"/><path d="m234.722 479.803h-38.471c1.259 17.99 16.242 32.197 34.552 32.197h38.471c-18.311 0-33.293-14.207-34.552-32.197z" fill="#e1960f"/><circle cx="290.887" cy="329.165" fill="#ffe97b" r="13.671"/><circle cx="267.898" cy="388.812" fill="#ffe97b" r="26.247"/><path d="m290.082 329.165c0-5.224 2.932-9.76 7.238-12.061-1.918-1.025-4.106-1.61-6.432-1.61-7.55 0-13.671 6.121-13.671 13.671s6.121 13.67 13.671 13.67c2.326 0 4.515-.585 6.432-1.61-4.307-2.301-7.238-6.836-7.238-12.06z" fill="#f4dd45"/><path d="m263.834 388.812c0-10.531 6.205-19.609 15.156-23.789-3.37-1.574-7.127-2.458-11.092-2.458-14.496 0-26.247 11.751-26.247 26.247s11.751 26.247 26.247 26.247c3.965 0 7.722-.884 11.092-2.458-8.951-4.18-15.156-13.258-15.156-23.789z" fill="#f4dd45"/><path d="m340.349 177.205c-3.662-.679-6.568-3.526-7.42-7.152-4.317-18.366-26.013-27.293-42.021-17.436-3.046 1.876-6.833 1.875-9.88.001-15.992-9.838-37.703-.945-42.02 17.436-.851 3.626-3.759 6.472-7.421 7.152-13.064 2.423-23.002 13.883-23.002 27.7 0 4.126.052 8.738 1.348 12.516.482 1.404 1.838 2.319 3.321 2.32l78.879.018c2.851 0 5.162 2.311 5.162 5.162v46.246c0 6.479 5.284 12.294 11.762 12.457 4.428.111 7.387-2.146 9.461-5.589.823-1.367 2.925-.778 2.925.818v17.114c0 6.667 5.215 12.402 11.881 12.506 6.756.105 12.267-5.34 12.267-12.072v-71.48c0-2.851 2.311-5.162 5.162-5.162l7.736-.014c1.492-.003 2.83-.938 3.329-2.344 1.341-3.774 1.535-8.378 1.535-12.496 0-13.815-9.936-25.278-23.004-27.701z" fill="#ffe5a0"/><g><g fill="#f2ce7e"><path d="m315.885 271.167v-46.246c0-2.851-2.311-5.162-5.162-5.162l-18.589-.004v.004c2.851 0 5.162 2.311 5.162 5.162v46.246c0 6.479 5.284 12.294 11.762 12.457 4.254.107 7.142-1.984 9.202-5.2-1.483-2.085-2.375-4.612-2.375-7.257z"/><path d="m231.844 219.741c-1.484 0-2.84-.916-3.321-2.32-1.297-3.778-1.348-8.39-1.348-12.516 0-13.817 9.937-25.277 23.002-27.7 3.662-.679 6.57-3.526 7.421-7.152 2.302-9.803 9.553-16.905 18.245-19.908-15.163-5.388-32.969 3.452-36.834 19.908-.851 3.626-3.759 6.472-7.421 7.152-13.064 2.423-23.002 13.883-23.002 27.7 0 4.126.052 8.738 1.348 12.516.482 1.404 1.838 2.319 3.321 2.32l18.589.004z"/></g></g></g></svg>