<?xml version="1.0" encoding="iso-8859-1"?>
<!-- Generator: Adobe Illustrator 19.0.0, SVG Export Plug-In . SVG Version: 6.00 Build 0)  -->
<svg version="1.1" id="Capa_1" xmlns="http://www.w3.org/2000/svg" xmlns:xlink="http://www.w3.org/1999/xlink" x="0px" y="0px"
	 viewBox="0 0 512.008 512.008" style="enable-background:new 0 0 512.008 512.008;" xml:space="preserve">
<g transform="translate(-1)">
	<g>
		<g>
			<path d="M487.408,0.004h-256c-14.138,0-25.6,11.461-25.6,25.6v162.133h-76.8v-34.133c0.003-3.392-2.004-6.464-5.111-7.825
				c-3.108-1.36-6.726-0.751-9.216,1.552L3.747,249.732C1.996,251.347,1,253.621,1,256.004c0,2.383,0.996,4.656,2.747,6.272
				l110.933,102.4c1.578,1.456,3.647,2.263,5.794,2.261c1.175,0.002,2.338-0.243,3.413-0.717c3.108-1.357,5.118-4.425,5.12-7.817
				v-34.133h76.8v162.133c0,14.138,11.462,25.6,25.6,25.6h256c14.138,0,25.6-11.461,25.6-25.6v-460.8
				C513.008,11.465,501.546,0.004,487.408,0.004z M495.941,68.271H299.675c-4.713,0-8.533,3.82-8.533,8.533s3.82,8.533,8.533,8.533
				h196.267v332.8h-25.6c-4.713,0-8.533,3.82-8.533,8.533s3.82,8.533,8.533,8.533h25.6v51.2c0,4.713-3.82,8.533-8.533,8.533h-256
				c-4.713,0-8.533-3.82-8.533-8.533v-51.2h196.267c4.713,0,8.533-3.82,8.533-8.533s-3.82-8.533-8.533-8.533H222.875v-93.867h42.667
				c4.713,0,8.533-3.82,8.533-8.533s-3.821-8.533-8.533-8.533H120.475c-4.713,0-8.533,3.82-8.533,8.533v23.177l-89.813-82.91
				l89.813-82.91v23.177c0,4.713,3.82,8.533,8.533,8.533h145.067c4.713,0,8.533-3.82,8.533-8.533s-3.821-8.533-8.533-8.533h-42.667
				v-102.4h25.6c4.713,0,8.533-3.82,8.533-8.533s-3.82-8.533-8.533-8.533h-25.6V25.604c0-4.713,3.82-8.533,8.533-8.533h256
				c4.713,0,8.533,3.82,8.533,8.533V68.271z"/>
			<path d="M367.941,460.804h-17.067c-4.713,0-8.533,3.82-8.533,8.533s3.82,8.533,8.533,8.533h17.067
				c4.713,0,8.533-3.82,8.533-8.533S372.654,460.804,367.941,460.804z"/>
			<path d="M367.412,292.621c-0.923,0.411-1.94,0.568-2.944,0.452l-23.518-2.014c-8.728-1.349-17.221,3.552-20.42,11.784
				l-5.376,18.364l-6.409,21.922c-1.092,3.755-0.51,7.798,1.596,11.093c2.958,4.366,7.628,7.275,12.851,8.004l23.637,4.045
				c2.611,0.441,5.254,0.664,7.902,0.666c5.273,0.033,10.507-0.91,15.437-2.782c26.231-10.214,57.506-37.274,57.506-108.151
				S396.4,158.067,370.16,147.853c-7.453-2.767-15.509-3.498-23.339-2.116l-23.629,4.045c-5.223,0.729-9.893,3.638-12.851,8.004
				c-2.101,3.297-2.683,7.338-1.596,11.093l11.785,40.26c3.217,8.218,11.695,13.114,20.42,11.793l23.518-2.014
				c1.004-0.116,2.021,0.04,2.944,0.452l0.657,1.553c4.823,11.033,6.913,23.067,6.093,35.08c0.818,12.008-1.272,24.036-6.093,35.063
				L367.412,292.621z M382.917,299.814l0.853-1.963c5.734-13.159,8.295-27.482,7.475-41.813c0.82-14.331-1.741-28.654-7.475-41.813
				l-0.853-1.971c-3.762-7.322-11.75-11.457-19.9-10.3l-23.518,2.005c-0.963,0.108-1.938-0.03-2.833-0.401l-10.795-36.915h0.205
				l23.62-4.036c4.777-0.87,9.7-0.46,14.268,1.186c21.282,8.243,46.643,30.976,46.643,92.211c0,61.235-25.361,83.968-46.635,92.254
				c-4.57,1.64-9.49,2.049-14.268,1.186l-23.629-4.036h-0.205l10.795-36.89c0.895-0.371,1.87-0.509,2.833-0.401l23.518,2.005
				C371.169,311.275,379.156,307.138,382.917,299.814z"/>
		</g>
	</g>
</g>
<g>
</g>
<g>
</g>
<g>
</g>
<g>
</g>
<g>
</g>
<g>
</g>
<g>
</g>
<g>
</g>
<g>
</g>
<g>
</g>
<g>
</g>
<g>
</g>
<g>
</g>
<g>
</g>
<g>
</g>
</svg>
