<svg id="Capa_1" enable-background="new 0 0 512 512" height="512" viewBox="0 0 512 512" width="512" xmlns="http://www.w3.org/2000/svg"><g><path d="m450.474 0c-10.641 0-218.715 0-229.357 0-10.534 0-19.074 8.624-19.074 19.262 0 5.437 2.275 10.621 6.265 14.273l36.811 33.693h181.354l36.811-33.693c3.989-3.651 6.265-8.835 6.265-14.273-.001-10.638-8.541-19.262-19.075-19.262z" fill="#ce775f"/><path d="m257.673 19.262c0-10.638 8.54-19.262 19.074-19.262-29.768 0-52.31 0-55.631 0-10.534 0-19.074 8.624-19.074 19.262 0 5.437 2.275 10.621 6.265 14.273l36.811 33.693h55.631l-36.811-33.693c-3.99-3.652-6.265-8.835-6.265-14.273z" fill="#c0694e"/><path d="m450.474 512c-10.641 0-218.715 0-229.357 0-10.534 0-19.074-8.582-19.074-19.17 0-5.411 2.275-10.57 6.265-14.204l36.811-33.531h181.354l36.811 33.531c3.989 3.634 6.265 8.793 6.265 14.204-.001 10.588-8.541 19.17-19.075 19.17z" fill="#ce775f"/><path d="m257.673 492.831c0-5.411 2.275-10.57 6.265-14.204l36.811-33.531c-28.737 0-51.996 0-55.631 0l-36.811 33.531c-3.989 3.634-6.265 8.793-6.265 14.204 0 10.587 8.54 19.169 19.074 19.169h55.631c-10.534 0-19.074-8.582-19.074-19.169z" fill="#c0694e"/><g><path d="m142.685 406.874c-1.617-3.949.273-8.461 4.221-10.079 44.732-18.323 66.774-47.996 66.992-48.294 2.514-3.44 7.343-4.203 10.788-1.696 3.446 2.507 4.217 7.323 1.717 10.774-.982 1.356-24.613 33.434-73.64 53.517-3.949 1.616-8.46-.274-10.078-4.222z" fill="#ff4fb9"/></g><path d="m105.687 375.721h28.016c3.615 0 6.996 1.026 9.903 2.775l-16.851-302.883c-.499-8.961-13.621-8.961-14.119 0l-16.852 302.883c2.907-1.749 6.288-2.775 9.903-2.775z" fill="#dbedff"/><path d="m128.094 99.666-1.338-24.053c-.499-8.961-13.621-8.961-14.119 0l-16.853 302.883c2.907-1.749 6.288-2.775 9.903-2.775h11.225z" fill="#b5dcff"/><path d="m428.465 66.571h-185.341c-14.664 0-26.551 11.888-26.551 26.552v325.755c0 14.664 11.888 26.552 26.551 26.552h185.341c14.664 0 26.552-11.888 26.552-26.552v-325.756c0-14.663-11.888-26.551-26.552-26.551z" fill="#ff94d5"/><path d="m272.204 418.877v-325.755c0-14.664 11.888-26.552 26.552-26.552h-55.631c-14.664 0-26.551 11.888-26.551 26.552v325.755c0 14.664 11.888 26.552 26.551 26.552h55.631c-14.665 0-26.552-11.888-26.552-26.552z" fill="#ff72c7"/><path d="m133.704 373.637h-16.707l-9.452 6.709s-10.266-4.856-11.641-4.049c-5.763 3.382-9.653 9.647-9.653 16.777v32.919c0 10.69 8.746 19.436 19.436 19.436h28.016c10.69 0 19.436-8.746 19.436-19.436v-32.919c.001-10.691-8.745-19.437-19.435-19.437z" fill="#dbedff"/><path d="m113.551 425.993v-32.919c0-10.69 8.746-19.436 19.436-19.436h-27.3c-10.69 0-19.436 8.746-19.436 19.436v32.919c0 10.69 8.746 19.436 19.436 19.436h27.3c-10.69 0-19.436-8.746-19.436-19.436z" fill="#b5dcff"/><g><path d="m119.695 427.24c-4.267 0-7.726-3.459-7.726-7.727v-19.962c0-4.267 3.459-7.726 7.726-7.726s7.726 3.459 7.726 7.726v19.962c.001 4.268-3.458 7.727-7.726 7.727z" fill="#8bcaff"/></g><g fill="#ff4fb9"><path d="m309.153 445.429 37.194-40.212h108.67v-15.453h-94.377l23.099-24.972h71.278v-15.453h-56.985l23.099-24.974h33.886v-15.453h-19.593l19.593-21.183v-22.757l-166.914 180.457z"/><path d="m243.124 445.429h10.962l200.931-217.234v-22.758l-220.617 238.518c2.733.951 5.667 1.474 8.724 1.474z"/><path d="m454.325 87.113-18.194 19.67h-219.558v15.453h205.266l-23.098 24.973h-182.168v15.453h167.874l-23.099 24.973h-144.775v15.453h130.482l-23.098 24.973h-107.384v15.453h93.09l-23.099 24.973h-69.991v15.453h55.698l-23.099 24.973h-32.599v15.453h18.306l-18.306 19.791v22.758l238.444-257.792v-16c0-2.069-.244-4.078-.692-6.01z"/><path d="m216.573 418.877c0 2.3.293 4.532.843 6.661l237.601-256.88v-22.758l-238.444 257.792z"/></g><g><path d="m49.116 420.497c-4.226-.588-7.177-4.49-6.59-8.716s4.485-7.174 8.716-6.59c23.406 3.252 45.936 2.807 66.964-1.323 4.183-.823 8.248 1.905 9.071 6.093.822 4.187-1.905 8.248-6.093 9.071-23.821 4.678-48.213 4.778-72.068 1.465z" fill="#ff4fb9"/></g></g></svg>