<?xml version="1.0" encoding="iso-8859-1"?>
<!-- Generator: Adobe Illustrator 19.0.0, SVG Export Plug-In . SVG Version: 6.00 Build 0)  -->
<svg version="1.1" id="Capa_1" xmlns="http://www.w3.org/2000/svg" xmlns:xlink="http://www.w3.org/1999/xlink" x="0px" y="0px"
	 viewBox="0 0 512 512" style="enable-background:new 0 0 512 512;" xml:space="preserve">
<g>
	<g>
		<g>
			<path d="M378.385,241.041L237.312,364.297c-3.943,3.492-9.872,3.492-13.815,0L82.415,241.041
				c-2.293-2.025-5.495-2.667-8.392-1.684c-2.897,0.983-5.046,3.442-5.632,6.445c-0.586,3.003,0.48,6.089,2.794,8.09l141.09,123.281
				c10.342,9.182,25.916,9.182,36.258,0l141.082-123.281c3.52-3.108,3.867-8.476,0.777-12.011
				C387.303,238.345,381.937,237.97,378.385,241.041z"/>
			<path d="M164.634,369.434L70.767,463.3c-2.218,2.143-3.108,5.315-2.327,8.299c0.781,2.984,3.111,5.314,6.094,6.094
				c2.983,0.781,6.156-0.109,8.299-2.327L176.7,381.5c3.234-3.348,3.188-8.671-0.104-11.962
				C173.304,366.246,167.982,366.2,164.634,369.434z"/>
			<path d="M296.107,369.408c-3.352-3.285-8.727-3.247-12.032,0.085c-3.285,3.352-3.247,8.727,0.085,12.032l93.867,93.15
				c2.097,2.436,5.386,3.487,8.507,2.719c3.121-0.769,5.546-3.226,6.273-6.358c0.726-3.132-0.369-6.406-2.833-8.47L296.107,369.408z
				"/>
			<path d="M469.333,221.867c-4.713,0-8.533,3.82-8.533,8.533v55.04c0.067,2.52-1.918,4.619-4.437,4.693h-29.696V226.56
				c0.057-11.941-9.563-21.675-21.504-21.76H199.799l28.1-28.1c3.234-3.348,3.188-8.671-0.104-11.962
				c-3.292-3.292-8.614-3.338-11.962-0.104L175.667,204.8H102.4V21.76c-0.067-2.52,1.918-4.619,4.437-4.693h349.525
				c2.52,0.074,4.504,2.173,4.437,4.693V76.8c0,4.713,3.82,8.533,8.533,8.533s8.533-3.82,8.533-8.533V21.76
				C477.923,9.819,468.304,0.085,456.363,0H106.837C94.896,0.085,85.277,9.819,85.333,21.76V204.8H55.637
				c-11.941,0.085-21.561,9.819-21.504,21.76v63.573c0,4.713,3.82,8.533,8.533,8.533s8.533-3.82,8.533-8.533V226.56
				c-0.067-2.52,1.918-4.619,4.437-4.693h349.525c2.52,0.074,4.504,2.173,4.437,4.693v263.68c0.067,2.52-1.918,4.619-4.437,4.693
				H55.637c-2.52-0.074-4.504-2.173-4.437-4.693v-46.507c0-4.713-3.82-8.533-8.533-8.533s-8.533,3.82-8.533,8.533v46.507
				c-0.057,11.941,9.563,21.675,21.504,21.76h349.525c11.941-0.085,21.561-9.819,21.504-21.76V307.2h29.696
				c11.941-0.085,21.561-9.819,21.504-21.76V230.4C477.867,225.687,474.046,221.867,469.333,221.867z"/>
			<path d="M429.585,36.241L288.512,159.497c-3.943,3.492-9.872,3.492-13.815,0L133.615,36.241
				c-2.293-2.025-5.495-2.667-8.392-1.684c-2.897,0.984-5.046,3.442-5.632,6.445c-0.586,3.003,0.479,6.089,2.794,8.09
				l141.09,123.281c10.342,9.182,25.916,9.182,36.258,0L440.815,49.092c3.549-3.101,3.912-8.492,0.811-12.041
				C438.525,33.503,433.134,33.14,429.585,36.241z"/>
			<path d="M76.8,418.133c4.713,0,8.533-3.82,8.533-8.533s-3.82-8.533-8.533-8.533H34.133c-4.713,0-8.533,3.82-8.533,8.533
				s3.821,8.533,8.533,8.533H76.8z"/>
			<path d="M51.2,332.8c4.713,0,8.533-3.82,8.533-8.533s-3.82-8.533-8.533-8.533H8.533c-4.713,0-8.533,3.82-8.533,8.533
				s3.82,8.533,8.533,8.533H51.2z"/>
			<path d="M68.267,366.933c0-4.713-3.82-8.533-8.533-8.533H17.067c-4.713,0-8.533,3.82-8.533,8.533s3.82,8.533,8.533,8.533h42.667
				C64.446,375.467,68.267,371.646,68.267,366.933z"/>
			<path d="M477.867,187.733H435.2c-4.713,0-8.533,3.82-8.533,8.533s3.82,8.533,8.533,8.533h42.667c4.713,0,8.533-3.82,8.533-8.533
				S482.58,187.733,477.867,187.733z"/>
			<path d="M503.467,102.4H460.8c-4.713,0-8.533,3.82-8.533,8.533s3.821,8.533,8.533,8.533h42.667c4.713,0,8.533-3.82,8.533-8.533
				S508.18,102.4,503.467,102.4z"/>
			<path d="M494.933,145.067h-42.667c-4.713,0-8.533,3.821-8.533,8.533c0,4.713,3.821,8.533,8.533,8.533h42.667
				c4.713,0,8.533-3.821,8.533-8.533C503.467,148.887,499.646,145.067,494.933,145.067z"/>
		</g>
	</g>
</g>
<g>
</g>
<g>
</g>
<g>
</g>
<g>
</g>
<g>
</g>
<g>
</g>
<g>
</g>
<g>
</g>
<g>
</g>
<g>
</g>
<g>
</g>
<g>
</g>
<g>
</g>
<g>
</g>
<g>
</g>
</svg>
