<svg id="Capa_1" enable-background="new 0 0 512 512" height="512" viewBox="0 0 512 512" width="512" xmlns="http://www.w3.org/2000/svg"><g><path d="m391.076 255.864-17.059-36.631c-11.407-18.993-25.993-35.855-43.007-49.877l-55.159-31.874c-21.075-7.882-43.886-12.205-67.711-12.205-106.791 0-193.362 86.571-193.362 193.362s86.571 193.361 193.362 193.361 193.362-86.571 193.362-193.362c0-21.975-3.673-43.09-10.426-62.774zm-182.936 133.465c-38.979 0-70.691-31.712-70.691-70.691s31.712-70.691 70.691-70.691 70.691 31.712 70.691 70.691-31.712 70.691-70.691 70.691z" fill="#dbedff"/><g><path d="m65.826 318.638c0-90.49 59.214-167.139 141.003-193.346-106.186.707-192.051 86.993-192.051 193.346s85.865 192.639 192.051 193.346c-81.789-26.207-141.003-102.856-141.003-193.346z" fill="#b5dcff"/></g><path d="m487.477 123.601-76.864 13.912c-2.419.428-.905 2.708-.905 5.165v24.013l79.789-14.13v-22.219c0-3.151 1.083-7.29-2.02-6.741z" fill="#f4dd45"/><path d="m436.455 161.954v-28.113c0-.335-.023-.666-.055-.995l-25.786 4.667c-2.419.428-.905 2.708-.905 5.165v24.013z" fill="#fcc101"/><path d="m402.8 24.408-16.813-11.223c-11.203-7.477-24.097-11.951-37.449-13.047-3.491-.287-6.471 2.512-6.471 6.015v37.837h54.798c10.573 0 14.729-13.711 5.935-19.582z" fill="#f4dd45"/><path d="m348.538.139c-3.491-.287-6.471 2.512-6.471 6.015v37.836h30.984v-37.791c-7.778-3.312-16.053-5.366-24.513-6.06z" fill="#fcc101"/><path d="m258.103 368.6c-12.8 12.8-30.473 20.728-49.963 20.728v122.672c53.396 0 101.736-21.643 136.728-56.634z" fill="#b5dcff"/><path d="m158.177 268.675c12.8-12.8 30.473-20.728 49.963-20.728v-122.671c-53.395 0-101.736 21.643-136.728 56.634z" fill="#b5dcff"/><path d="m206.829 125.292c-52.874.352-100.713 21.913-135.417 56.618l26.759 26.759c25.226-39.066 63.5-68.908 108.658-83.377z" fill="#8bcaff"/><g><g><path d="m409.708 240.511c-4.266 0-7.725-3.458-7.725-7.725v-87.602c0-4.266 3.458-7.725 7.725-7.725s7.725 3.459 7.725 7.725v87.602c0 4.266-3.458 7.725-7.725 7.725z" fill="#fcc101"/></g></g><g><g><path d="m347.989 152.569c-4.266 0-7.725-3.459-7.725-7.725v-137.119c0-4.266 3.459-7.725 7.725-7.725s7.725 3.459 7.725 7.725v137.12c0 4.266-3.459 7.724-7.725 7.724z" fill="#fcc101"/></g></g><g><g><path d="m489.497 226.381c-4.266 0-7.725-3.458-7.725-7.725v-87.602c0-4.266 3.458-7.725 7.725-7.725s7.725 3.459 7.725 7.725v87.602c0 4.266-3.458 7.725-7.725 7.725z" fill="#f4dd45"/></g></g><ellipse cx="313.033" cy="150.224" fill="#f4dd45" rx="43.007" ry="29.868" transform="matrix(.985 -.174 .174 .985 -21.337 56.663)"/><path d="m306.801 156.693c-5.25-13.21 3.758-28.048 20.624-36.099-7.934-1.298-16.787-.885-25.543 1.575-22.747 6.391-36.195 24.133-30.037 39.627s29.591 22.873 52.338 16.482c3.353-.942 6.497-2.136 9.413-3.528-12.679-2.073-23.007-8.526-26.795-18.057z" fill="#fcc101"/><ellipse cx="388.97" cy="236.477" fill="#f4dd45" rx="28.708" ry="20.472" transform="matrix(.982 -.188 .188 .982 -37.593 77.535)"/><ellipse cx="468.74" cy="222.347" fill="#f4dd45" rx="28.726" ry="20.473" transform="matrix(.982 -.188 .188 .982 -33.452 92.123)"/><path d="m389.966 244.416c-3.762-9.736 3.45-20.761 16.345-25.917-6.799-3.158-15.865-3.846-24.777-1.27-15.17 4.385-24.138 16.557-20.031 27.187s19.734 15.693 34.903 11.308c1.276-.369 2.503-.797 3.687-1.27-4.775-2.218-8.433-5.653-10.127-10.038z" fill="#fcc101"/><path d="m469.718 230.287c-3.765-9.739 3.456-20.767 16.365-25.921-6.802-3.155-15.871-3.841-24.784-1.266-15.18 4.385-24.154 16.557-20.044 27.187 4.109 10.63 19.746 15.693 34.926 11.308 1.273-.368 2.498-.795 3.679-1.266-4.782-2.219-8.446-5.654-10.142-10.042z" fill="#fcc101"/><path d="m208.14 247.432c-39.263 0-71.206 31.943-71.206 71.206s31.943 71.206 71.206 71.206 71.206-31.943 71.206-71.206-31.943-71.206-71.206-71.206zm29.037 71.206c0 16.011-13.026 29.037-29.037 29.037s-29.037-13.026-29.037-29.037 13.026-29.037 29.037-29.037 29.037 13.025 29.037 29.037z" fill="#477b9e"/><g><g><g><path d="m180.923 328.751c-1.175-3.151-1.82-6.558-1.82-10.113s.645-6.962 1.82-10.113c3.89-27.232 23.236-49.539 48.846-57.724-6.825-2.181-14.09-3.369-21.629-3.369-39.263 0-71.206 31.943-71.206 71.206s31.943 71.206 71.206 71.206c7.539 0 14.804-1.188 21.629-3.369-25.61-8.185-44.956-30.493-48.846-57.724z" fill="#3f6d8e"/></g></g></g></g></svg>