<svg id="Capa_1" enable-background="new 0 0 512 512" height="512" viewBox="0 0 512 512" width="512" xmlns="http://www.w3.org/2000/svg"><g><g><path d="m256 70.533c-4.204 0-7.611-3.408-7.611-7.611v-55.311c-.001-4.203 3.407-7.611 7.611-7.611s7.611 3.408 7.611 7.611v55.31c0 4.204-3.407 7.612-7.611 7.612z" fill="#fcc101"/></g><g><path d="m270.039 30.975h-28.079c-4.204 0-7.611-3.408-7.611-7.611s3.408-7.611 7.611-7.611h28.079c4.204 0 7.611 3.408 7.611 7.611s-3.407 7.611-7.611 7.611z" fill="#fcc101"/></g><path d="m292.864 142.844c8.331-8.975 13.432-23.02 13.432-36.232 0-27.778-22.518-50.296-50.296-50.296s-50.296 22.518-50.296 50.296c0 13.212 5.101 27.256 13.432 36.232z" fill="#f4dd45"/><path d="m272.1 58.964c-5.056-1.708-10.467-2.648-16.1-2.648-27.778 0-50.296 22.518-50.296 50.296 0 13.212 5.101 27.256 13.432 36.232h33.68c-7.737-8.975-12.474-23.02-12.474-36.232 0-22.144 13.297-40.933 31.758-47.648z" fill="#fcc101"/><path d="m324.96 371.197c-16.638-9.203-41.351-27.939-41.351-58.042v-60.749c0-18.087 2-36.116 5.964-53.746-7.117 0-60.027 0-67.144 0 3.963 17.63 5.964 35.659 5.964 53.746v60.749c0 30.104-24.713 48.84-41.351 58.042-9.098 5.032-14.806 14.688-14.806 25.24v13.061h167.531v-13.061c-.001-10.552-5.709-20.207-14.807-25.24z" fill="#fcc101"/><path d="m223.009 371.197c15.452-9.203 38.403-27.939 38.403-58.042v-60.749c0-18.087-1.858-36.116-5.539-53.746-14.964 0-29.897 0-33.445 0 3.963 17.63 5.964 35.659 5.964 53.746v60.749c0 30.104-24.713 48.839-41.351 58.042-9.098 5.032-14.806 14.688-14.806 25.24v13.061h37.024v-13.061c-.001-10.551 5.3-20.207 13.75-25.24z" fill="#f2ab08"/><g><g><path d="m295.24 335.16h-78.479c-4.204 0-7.611-3.408-7.611-7.612s3.408-7.611 7.611-7.611h78.479c4.204 0 7.611 3.408 7.611 7.611s-3.408 7.612-7.611 7.612z" fill="#f4dd45"/></g></g><path d="m341.006 407.903h-170.012c-5.484 0-9.93 4.446-9.93 9.93v22.917h189.873v-22.917c0-5.484-4.446-9.93-9.931-9.93z" fill="#f4dd45"/><path d="m208.106 407.903h-37.112c-5.484 0-9.93 4.446-9.93 9.93v22.918h37.82v-22.918c0-5.484 4.129-9.93 9.222-9.93z" fill="#fcc101"/><path d="m352.105 438.721h-192.21c-6.2 0-11.227 5.026-11.227 11.227v33.263h214.663v-33.263c0-6.2-5.026-11.227-11.226-11.227z" fill="#ffe97b"/><path d="m197.799 438.721h-37.904c-6.2 0-11.227 5.026-11.227 11.227v33.263h38.704v-33.263c.001-6.2 4.669-11.227 10.427-11.227z" fill="#f4dd45"/><path d="m364.89 481.182h-217.78c-5.484 0-9.93 4.446-9.93 9.93v10.958c0 5.484 4.446 9.93 9.93 9.93h217.78c5.484 0 9.93-4.446 9.93-9.93v-10.958c.001-5.484-4.445-9.93-9.93-9.93z" fill="#f4dd45"/><path d="m176.703 502.07v-10.958c0-5.484 4.129-9.93 9.222-9.93h-38.815c-5.484 0-9.93 4.446-9.93 9.93v10.958c0 5.484 4.446 9.93 9.93 9.93h38.815c-5.094 0-9.222-4.446-9.222-9.93z" fill="#fcc101"/><g><g><path d="m208.502 169.602v17.552c0 7.659 6.267 13.926 13.926 13.926h67.144c7.66 0 13.926-6.267 13.926-13.926v-17.552z" fill="#f4dd45"/></g></g><path d="m242.94 187.154v-17.552h-34.438v17.552c0 7.659 6.267 13.926 13.926 13.926h33.445c-7.113 0-12.933-6.267-12.933-13.926z" fill="#fcc101"/><path d="m308.22 140.814h-104.439c-5.484 0-9.93 4.446-9.93 9.93v10.958c0 5.484 4.446 9.93 9.93 9.93h104.439c5.484 0 9.93-4.446 9.93-9.93v-10.958c0-5.484-4.446-9.93-9.93-9.93z" fill="#ffe97b"/><path d="m229.333 161.702v-10.957c0-5.485 4.129-9.93 9.222-9.93h-34.775c-5.484 0-9.93 4.446-9.93 9.93v10.957c0 5.484 4.446 9.93 9.93 9.93h34.775c-5.093 0-9.222-4.446-9.222-9.93z" fill="#f4dd45"/></g></svg>