<svg id="Capa_1" enable-background="new 0 0 512 512" height="512" viewBox="0 0 512 512" width="512" xmlns="http://www.w3.org/2000/svg"><g><g><g><path d="m256 189.479c-4.267 0-7.726-3.459-7.726-7.726v-124.135c0-4.267 3.459-7.726 7.726-7.726s7.726 3.459 7.726 7.726v124.134c0 4.267-3.459 7.727-7.726 7.727z" fill="#477b9e"/></g></g><path d="m275.277 207.86v-19.008c0-5.845-4.738-10.583-10.583-10.583h-17.391c-5.845 0-10.583 4.738-10.583 10.583v19.008z" fill="#3f6d8e"/><path d="m265.638 178.316c-.312-.028-.625-.048-.944-.048h-17.391c-5.845 0-10.583 4.738-10.583 10.583v19.008h19.279v-19.008c-.001-5.526 4.236-10.057 9.639-10.535z" fill="#365e7d"/><path d="m301.918 375.98c-6.231-6.434-10.072-15.196-10.072-24.86 0-1.538.108-3.05.297-4.536h-72.284c.188 1.487.297 2.999.297 4.536 0 9.664-3.841 18.426-10.072 24.86z" fill="#3f6d8e"/><path d="m505.168 365.045-50.092-102.31c-9.553 26.806-35.146 45.999-65.232 45.999-38.242 0-69.243-31.001-69.243-69.244 0-17.476 6.488-33.428 17.169-45.612-16.318 7.027-33.827 10.89-51.641 10.89h-60.256c-17.816 0-35.328-3.864-51.647-10.893 10.682 12.185 17.172 28.137 17.172 45.615 0 38.243-31.001 69.244-69.243 69.244-30.084 0-55.677-19.191-65.231-45.995l-50.092 102.306c-16.312 33.316-2.399 73.919 30.916 90.231 33.315 16.312 73.919 2.4 90.231-30.916l28.186-57.569c-2.113-4.456-3.3-9.438-3.3-14.697 0-18.969 15.378-34.347 34.347-34.347 17.492 0 31.919 13.078 34.062 29.988h69.451c2.143-16.91 16.57-29.988 34.062-29.988 18.969 0 34.347 15.378 34.347 34.347 0 5.26-1.186 10.241-3.299 14.697l28.187 57.569c16.312 33.315 56.915 47.228 90.231 30.916 33.314-16.311 47.226-56.915 30.915-90.231z" fill="#477b9e"/><g><g><g><path d="m76.381 455.276c-33.316-16.312-47.228-56.915-30.916-90.231l34.569-70.604c-10.477-8.047-18.591-19.02-23.111-31.701l-50.091 102.305c-16.312 33.316-2.399 73.919 30.916 90.231 15.764 7.719 33.158 8.661 48.84 3.991-3.453-1.039-6.868-2.356-10.207-3.991z" fill="#3f6d8e"/></g></g></g><path d="m187.213 317.232c-19.223 0-34.862 15.639-34.862 34.862s15.639 34.862 34.862 34.862 34.862-15.639 34.862-34.862-15.639-34.862-34.862-34.862z" fill="#3f6d8e"/><path d="m324.787 317.232c-19.223 0-34.862 15.639-34.862 34.862s15.639 34.862 34.862 34.862 34.862-15.639 34.862-34.862-15.639-34.862-34.862-34.862z" fill="#3f6d8e"/><path d="m186.276 352.094c0-13.068 7.231-24.473 17.899-30.441-5.024-2.811-10.808-4.421-16.963-4.421-19.223 0-34.862 15.639-34.862 34.862s15.639 34.862 34.862 34.862c6.155 0 11.939-1.61 16.963-4.421-10.667-5.968-17.899-17.373-17.899-30.441z" fill="#365e7d"/><path d="m323.851 352.094c0-13.068 7.231-24.473 17.899-30.441-5.024-2.811-10.808-4.421-16.963-4.421-19.223 0-34.862 15.639-34.862 34.862s15.639 34.862 34.862 34.862c6.155 0 11.939-1.61 16.963-4.421-10.667-5.968-17.899-17.373-17.899-30.441z" fill="#365e7d"/><circle cx="389.843" cy="239.491" fill="#3f6d8e" r="69.758"/><path d="m348.243 239.491c0-33.643 23.94-61.799 55.679-68.33-4.549-.936-9.258-1.429-14.079-1.429-38.465 0-69.758 31.294-69.758 69.758s31.294 69.758 69.758 69.758c4.822 0 9.531-.493 14.079-1.429-31.739-6.529-55.679-34.685-55.679-68.328z" fill="#365e7d"/><circle cx="122.153" cy="239.491" fill="#3f6d8e" r="69.758"/><path d="m80.553 239.491c0-33.643 23.94-61.799 55.679-68.33-4.549-.936-9.258-1.429-14.079-1.429-38.465 0-69.758 31.294-69.758 69.758s31.294 69.758 69.758 69.758c4.822 0 9.531-.493 14.079-1.429-31.739-6.529-55.679-34.685-55.679-68.328z" fill="#365e7d"/><path d="m389.297 223.733c9.144 0 16.583-7.439 16.583-16.583s-7.439-16.583-16.583-16.583c-9.143 0-16.582 7.439-16.582 16.583-.001 9.144 7.438 16.583 16.582 16.583z" fill="#f4dd45"/><path d="m389.297 255.25c-9.143 0-16.582 7.439-16.582 16.583s7.439 16.583 16.582 16.583c9.144 0 16.583-7.439 16.583-16.583s-7.439-16.583-16.583-16.583z" fill="#64d465"/><path d="m356.955 222.908c-9.143 0-16.582 7.439-16.582 16.583s7.439 16.583 16.582 16.583c9.144 0 16.583-7.439 16.583-16.583.001-9.144-7.438-16.583-16.583-16.583z" fill="#7fb3fa"/><path d="m421.638 222.908c-9.143 0-16.582 7.439-16.582 16.583s7.439 16.583 16.582 16.583c9.144 0 16.583-7.439 16.583-16.583s-7.439-16.583-16.583-16.583z" fill="#f87c68"/><path d="m387.34 207.15c0-6.517 3.789-12.152 9.27-14.861-2.21-1.092-4.686-1.722-7.313-1.722-9.143 0-16.582 7.439-16.582 16.583s7.439 16.583 16.582 16.583c2.627 0 5.104-.63 7.313-1.722-5.482-2.709-9.27-8.344-9.27-14.861z" fill="#fcc101"/><path d="m387.34 271.832c0-6.517 3.789-12.152 9.27-14.861-2.21-1.092-4.686-1.722-7.313-1.722-9.143 0-16.582 7.439-16.582 16.583s7.439 16.583 16.582 16.583c2.627 0 5.104-.63 7.313-1.722-5.482-2.709-9.27-8.344-9.27-14.861z" fill="#40c140"/><path d="m354.998 239.491c0-6.517 3.789-12.152 9.27-14.861-2.21-1.092-4.686-1.722-7.313-1.722-9.143 0-16.582 7.439-16.582 16.583s7.439 16.583 16.582 16.583c2.627 0 5.103-.63 7.313-1.722-5.481-2.709-9.27-8.344-9.27-14.861z" fill="#64a6f4"/><path d="m419.681 239.491c0-6.517 3.788-12.152 9.27-14.861-2.21-1.092-4.686-1.722-7.313-1.722-9.143 0-16.582 7.439-16.582 16.583s7.439 16.583 16.582 16.583c2.627 0 5.103-.63 7.313-1.722-5.482-2.709-9.27-8.344-9.27-14.861z" fill="#ec625e"/><path d="m153.703 224.828h-9.607c-4.02 0-7.28-3.259-7.28-7.28v-9.607c0-8.098-6.565-14.663-14.663-14.663-8.098 0-14.663 6.565-14.663 14.663v9.607c0 4.021-3.259 7.28-7.28 7.28h-9.607c-8.098 0-14.663 6.565-14.663 14.663 0 8.098 6.565 14.663 14.663 14.663h9.607c4.02 0 7.28 3.259 7.28 7.28v9.607c0 8.098 6.565 14.663 14.663 14.663 8.098 0 14.663-6.565 14.663-14.663v-9.607c0-4.021 3.259-7.28 7.28-7.28h9.607c8.098 0 14.663-6.565 14.663-14.663 0-8.098-6.565-14.663-14.663-14.663z" fill="#365e7d"/><path d="m125.863 271.041v-9.607c0-4.021-3.259-7.28-7.28-7.28h-9.608c-8.098 0-14.663-6.565-14.663-14.663 0-8.098 6.565-14.663 14.663-14.663h9.608c4.02 0 7.28-3.259 7.28-7.28v-9.607c0-4.618 2.14-8.732 5.476-11.42-2.514-2.025-5.707-3.243-9.186-3.243-8.098 0-14.663 6.565-14.663 14.663v9.607c0 4.021-3.259 7.28-7.28 7.28h-9.608c-8.098 0-14.663 6.565-14.663 14.663 0 8.098 6.565 14.663 14.663 14.663h9.608c4.02 0 7.28 3.259 7.28 7.28v9.607c0 8.098 6.565 14.663 14.663 14.663 3.48 0 6.672-1.218 9.186-3.243-3.336-2.688-5.476-6.802-5.476-11.42z" fill="#294b64"/><path d="m263.539 316.984h-15.081c-4.267 0-7.726-3.459-7.726-7.726s3.459-7.726 7.726-7.726h15.081c4.267 0 7.726 3.459 7.726 7.726s-3.459 7.726-7.726 7.726z" fill="#294b64"/><g fill="#3f6d8e"><path d="m228.459 263.754h-6.902c-4.267 0-7.726-3.459-7.726-7.726s3.459-7.726 7.726-7.726h6.902c4.267 0 7.726 3.459 7.726 7.726.001 4.267-3.459 7.726-7.726 7.726z"/><path d="m290.439 263.754h-6.901c-4.267 0-7.726-3.459-7.726-7.726s3.459-7.726 7.726-7.726h6.901c4.267 0 7.726 3.459 7.726 7.726s-3.459 7.726-7.726 7.726z"/></g></g></svg>