<?xml version="1.0" encoding="iso-8859-1"?>
<!-- Generator: Adobe Illustrator 19.0.0, SVG Export Plug-In . SVG Version: 6.00 Build 0)  -->
<svg version="1.1" id="Capa_1" xmlns="http://www.w3.org/2000/svg" xmlns:xlink="http://www.w3.org/1999/xlink" x="0px" y="0px"
	 viewBox="0 0 512 512" style="enable-background:new 0 0 512 512;" xml:space="preserve">
<g>
	<g>
		<g>
			<path d="M477.867,0H34.133C15.282,0,0,15.282,0,34.133V76.8c0,4.713,3.82,8.533,8.533,8.533h384c4.713,0,8.533-3.82,8.533-8.533
				s-3.821-8.533-8.533-8.533H17.067V34.133c0-9.426,7.641-17.067,17.067-17.067h443.733c9.426,0,17.067,7.641,17.067,17.067v34.133
				h-51.2c-4.713,0-8.533,3.82-8.533,8.533s3.82,8.533,8.533,8.533h59.733c4.713,0,8.533-3.82,8.533-8.533V34.133
				C512,15.282,496.718,0,477.867,0z"/>
			<path d="M503.467,102.4c-4.713,0-8.533,3.82-8.533,8.533v366.933c0,9.426-7.641,17.067-17.067,17.067H34.133
				c-9.426,0-17.067-7.641-17.067-17.067V110.933c0-4.713-3.82-8.533-8.533-8.533S0,106.221,0,110.933v366.933
				C0,496.718,15.282,512,34.133,512h443.733C496.718,512,512,496.718,512,477.867V110.933C512,106.221,508.18,102.4,503.467,102.4z
				"/>
			<path d="M42.667,34.133c-4.713,0-8.533,3.82-8.533,8.533s3.82,8.533,8.533,8.533H51.2c4.713,0,8.533-3.82,8.533-8.533
				s-3.82-8.533-8.533-8.533H42.667z"/>
			<path d="M85.333,34.133c-4.713,0-8.533,3.82-8.533,8.533s3.82,8.533,8.533,8.533h8.533c4.713,0,8.533-3.82,8.533-8.533
				s-3.821-8.533-8.533-8.533H85.333z"/>
			<path d="M128,34.133c-4.713,0-8.533,3.82-8.533,8.533S123.287,51.2,128,51.2h8.533c4.713,0,8.533-3.82,8.533-8.533
				s-3.82-8.533-8.533-8.533H128z"/>
			<path d="M256,119.467c-70.659,0.08-127.92,57.341-128,128v17.246c-19.175,1.014-34.187,16.885-34.133,36.087v55.467
				c-0.095,19.902,15.938,36.126,35.84,36.267h32.427c9.426,0,17.067-7.641,17.067-17.067V307.2c0-4.713-3.82-8.533-8.533-8.533
				s-8.533,3.82-8.533,8.533v68.267h-32.427c-10.48-0.131-18.878-8.719-18.773-19.2V300.8c-0.104-10.481,8.293-19.069,18.773-19.2
				h40.96c4.713,0,8.533-3.821,8.533-8.533c0-4.713-3.82-8.533-8.533-8.533h-25.6v-17.067c0-61.267,49.667-110.933,110.933-110.933
				S366.933,186.2,366.933,247.467v17.067h-25.6c-4.713,0-8.533,3.821-8.533,8.533c0,4.713,3.821,8.533,8.533,8.533h40.96
				c10.48,0.131,18.878,8.719,18.773,19.2v55.467c0.104,10.481-8.293,19.069-18.773,19.2h-32.427V307.2
				c0-4.713-3.82-8.533-8.533-8.533s-8.533,3.82-8.533,8.533v68.267c0,9.426,7.641,17.067,17.067,17.067h17.067v8.533
				c0,14.138-11.462,25.6-25.6,25.6h-27.17c-3.603-10.192-13.22-17.022-24.03-17.067H256c-14.138,0-25.6,11.461-25.6,25.6
				s11.461,25.6,25.6,25.6h34.133c10.81-0.045,20.427-6.875,24.03-17.067h27.17c23.552-0.028,42.638-19.114,42.667-42.667v-8.713
				c19.175-1.014,34.187-16.885,34.133-36.087V300.8c0.054-19.202-14.958-35.074-34.133-36.087v-17.246
				C383.92,176.807,326.659,119.547,256,119.467z M290.133,443.733H256c-4.713,0-8.533-3.82-8.533-8.533s3.82-8.533,8.533-8.533
				h34.133c4.713,0,8.533,3.82,8.533,8.533S294.846,443.733,290.133,443.733z"/>
		</g>
	</g>
</g>
<g>
</g>
<g>
</g>
<g>
</g>
<g>
</g>
<g>
</g>
<g>
</g>
<g>
</g>
<g>
</g>
<g>
</g>
<g>
</g>
<g>
</g>
<g>
</g>
<g>
</g>
<g>
</g>
<g>
</g>
</svg>
