<?xml version="1.0" encoding="iso-8859-1"?>
<!-- Generator: Adobe Illustrator 19.0.0, SVG Export Plug-In . SVG Version: 6.00 Build 0)  -->
<svg version="1.1" id="Capa_1" xmlns="http://www.w3.org/2000/svg" xmlns:xlink="http://www.w3.org/1999/xlink" x="0px" y="0px"
	 viewBox="0 0 512 512" style="enable-background:new 0 0 512 512;" xml:space="preserve">
<g>
	<g>
		<g>
			<path d="M384,0H128c-14.138,0-25.6,11.461-25.6,25.6v460.8c0,14.138,11.461,25.6,25.6,25.6h256c14.138,0,25.6-11.461,25.6-25.6
				V25.6C409.6,11.461,398.138,0,384,0z M392.533,68.267h-76.8c-4.713,0-8.533,3.82-8.533,8.533s3.82,8.533,8.533,8.533h76.8v332.8
				h-25.6c-4.713,0-8.533,3.82-8.533,8.533s3.82,8.533,8.533,8.533h25.6v51.2c0,4.713-3.82,8.533-8.533,8.533H128
				c-4.713,0-8.533-3.82-8.533-8.533v-51.2h196.267c4.713,0,8.533-3.82,8.533-8.533s-3.82-8.533-8.533-8.533H119.467v-332.8h76.8
				c4.713,0,8.533-3.82,8.533-8.533s-3.82-8.533-8.533-8.533h-76.8V25.6c0-4.713,3.82-8.533,8.533-8.533h256
				c4.713,0,8.533,3.82,8.533,8.533V68.267z"/>
			<path d="M264.533,460.8h-17.067c-4.713,0-8.533,3.82-8.533,8.533s3.82,8.533,8.533,8.533h17.067c4.713,0,8.533-3.82,8.533-8.533
				S269.246,460.8,264.533,460.8z"/>
			<path d="M230.4,153.6c1.683-0.001,3.327-0.5,4.727-1.434L256,138.24l20.864,13.909c2.536,1.692,5.783,1.902,8.517,0.552
				s4.539-4.057,4.736-7.1c0.197-3.043-1.244-5.959-3.781-7.651l-25.6-17.067c-0.938-0.625-1.991-1.058-3.098-1.271
				c-1.086-0.011-2.173-0.011-3.26,0c-1.107,0.212-2.161,0.645-3.098,1.271l-25.6,17.067c-3.142,2.079-4.549,5.973-3.462,9.58
				C223.307,151.138,226.632,153.605,230.4,153.6z"/>
			<path d="M230.4,110.933c1.683-0.001,3.327-0.5,4.727-1.434L256,95.573l20.864,13.909c2.536,1.692,5.783,1.902,8.517,0.552
				s4.539-4.057,4.736-7.1c0.197-3.043-1.244-5.959-3.781-7.651l-25.6-17.067c-0.938-0.625-1.991-1.058-3.098-1.271
				c-0.542-0.051-1.088-0.051-1.63,0c-0.545-0.051-1.093-0.051-1.638,0c-1.103,0.216-2.153,0.648-3.089,1.271l-25.6,17.067
				c-3.142,2.079-4.549,5.973-3.462,9.58C223.307,108.471,226.632,110.938,230.4,110.933z"/>
			<path d="M230.4,68.267c1.683-0.001,3.327-0.5,4.727-1.434L256,52.907l20.864,13.909c2.536,1.692,5.783,1.902,8.517,0.552
				s4.539-4.057,4.736-7.1c0.197-3.043-1.244-5.959-3.781-7.651l-25.6-17.067c-0.938-0.625-1.991-1.058-3.098-1.271
				c-0.542-0.055-1.088-0.055-1.63,0c-0.545-0.055-1.094-0.055-1.638,0c-1.104,0.214-2.154,0.646-3.089,1.271l-25.6,17.067
				c-3.142,2.079-4.549,5.973-3.462,9.58C223.307,65.804,226.632,68.271,230.4,68.267z"/>
			<path d="M290.133,179.2H179.2c-14.138,0-25.6,11.461-25.6,25.6v136.533h-8.533c-4.713,0-8.533,3.82-8.533,8.533
				s3.82,8.533,8.533,8.533H179.2c4.713,0,8.533-3.82,8.533-8.533s-3.82-8.533-8.533-8.533h-8.533V204.8
				c0-4.713,3.82-8.533,8.533-8.533h107.4l54.733,54.733v90.334H221.867c-4.713,0-8.533,3.82-8.533,8.533s3.821,8.533,8.533,8.533
				h153.6c4.713,0,8.533-3.82,8.533-8.533s-3.82-8.533-8.533-8.533H358.4v-93.867c-0.012-2.265-0.913-4.435-2.509-6.042
				l-59.733-59.733C294.552,180.106,292.39,179.212,290.133,179.2z"/>
		</g>
	</g>
</g>
<g>
</g>
<g>
</g>
<g>
</g>
<g>
</g>
<g>
</g>
<g>
</g>
<g>
</g>
<g>
</g>
<g>
</g>
<g>
</g>
<g>
</g>
<g>
</g>
<g>
</g>
<g>
</g>
<g>
</g>
</svg>
