<svg id="Capa_1" enable-background="new 0 0 512 512" height="512" viewBox="0 0 512 512" width="512" xmlns="http://www.w3.org/2000/svg"><g><path d="m388.506 475.342c-10.92 0-252.261 0-265.014 0-1.372 0-2.721-.094-4.05-.26v1.24c0 18.583 15.065 35.678 33.648 35.678h205.817c18.583 0 33.648-17.095 33.648-35.678v-1.24c-1.328.165-2.678.26-4.049.26z" fill="#b5dcff"/><g><path d="m163.158 476.322v-.98c-21.623 0-36.725 0-39.666 0-1.371 0-2.721-.094-4.05-.26v1.24c0 18.583 15.065 35.678 33.648 35.678h43.716c-18.583 0-33.648-17.095-33.648-35.678z" fill="#8bcaff"/></g><path d="m340.499 151.24c-7.816-.271-15.239-3.819-20.902-9.991-8.122-8.853-17.051-15.128-27.39-20.037-17.602 26.826-54.876 26.737-72.419.001-10.309 4.896-19.246 11.16-27.389 20.037-5.662 6.172-13.087 9.72-20.91 9.991-42.261 1.461-81.045 34.426-83.194 85.305l1.875-2.026c6.452-6.973 15.594-10.971 25.08-10.971 18.842 0 34.172 15.33 34.172 34.172h2.03c0-18.842 15.33-34.172 34.172-34.172s34.172 15.33 34.172 34.172h2.03c0-18.842 15.33-34.172 34.172-34.172s34.172 15.33 34.172 34.172h2.03c0-18.842 15.33-34.172 34.172-34.172s34.172 15.33 34.172 34.172h2.03c0-31.071 38.266-45.872 59.25-23.204l1.875 2.026c-2.155-51.052-41.118-83.857-83.2-85.303z" fill="#ff94d5"/><g><path d="m215.207 156.315c7.822-.272 15.248-3.82 20.91-9.991 2.326-2.535 4.719-4.851 7.187-6.989-9.104-2.878-17.478-8.922-23.515-18.123-10.309 4.896-19.246 11.16-27.389 20.037-5.662 6.172-13.087 9.72-20.91 9.991-42.261 1.461-81.045 34.426-83.194 85.305l1.875-2.026c6.452-6.973 15.594-10.971 25.08-10.971 6.664 0 12.884 1.925 18.146 5.237 7.546-43.523 43.22-71.136 81.81-72.47z" fill="#ff72c7"/></g><path d="m326.373 221.518c-19.962 0-36.202 16.24-36.202 36.193l-.394 40.584.863.138c23.73 3.803 43.676 11.396 56.164 21.38 3.245 2.595 7.275 4.024 11.346 4.024h2.499l1.925-66.117c.001-19.962-16.239-36.202-36.201-36.202z" fill="#dbedff"/><path d="m346.804 380.091c-12.679 10.137-32.986 17.786-57.18 21.535l-.851.132-.744 76.628h68.119l2.981-102.319-1.049.004c-4.049.017-8.054 1.444-11.276 4.02z" fill="#dbedff"/><path d="m327.444 257.711c0-13.143 7.049-24.674 17.565-31.014-5.448-3.285-11.824-5.179-18.636-5.179-19.962 0-36.202 16.24-36.202 36.193l-.394 40.584.863.138c13.036 2.089 24.918 5.328 35.062 9.473z" fill="#b5dcff"/><path d="m324.411 392.513c-10.12 4-21.893 7.115-34.787 9.113l-.851.132-.744 76.628h33.819z" fill="#b5dcff"/><path d="m222.375 401.626c-24.195-3.749-44.502-11.398-57.181-21.535-3.223-2.576-7.227-4.003-11.275-4.02l-1.049-.004 2.98 102.319h68.119l-.744-76.628z" fill="#dbedff"/><path d="m165.195 319.813c12.488-9.985 32.433-17.577 56.164-21.38l.863-.138-.394-40.574c0-19.962-16.24-36.203-36.202-36.203s-36.202 16.24-36.202 36.232l1.925 66.087h2.499c4.071 0 8.101-1.429 11.347-4.024z" fill="#dbedff"/><path d="m165.194 380.091c-3.223-2.576-7.227-4.003-11.275-4.02l-1.049-.004 2.98 102.319h34.496l-2.498-85.77c-8.981-3.526-16.674-7.744-22.654-12.525z" fill="#b5dcff"/><path d="m183.92 257.75c0-13.742 7.673-25.712 18.954-31.852-5.131-2.792-11.008-4.38-17.249-4.38-19.962 0-36.202 16.24-36.202 36.232l1.925 66.087h2.499c4.071 0 8.101-1.429 11.346-4.024 5.424-4.337 12.259-8.221 20.197-11.541z" fill="#b5dcff"/><g><g><path d="m255.998 63.466c-4.204 0-7.612-3.407-7.612-7.612 0-39.122 28.396-54.362 29.605-54.992 3.728-1.942 8.325-.493 10.267 3.235 1.935 3.716.504 8.293-3.195 10.246-.954.515-21.454 11.953-21.454 41.511.001 4.205-3.407 7.612-7.611 7.612z" fill="#ce775f"/></g></g><path d="m255.999 221.518c-19.962 0-36.202 16.24-36.202 36.213l.397 40.889 1.164-.186c11.106-1.78 22.761-2.683 34.641-2.683 11.881 0 23.535.903 34.641 2.683l1.164.186.397-40.899c0-19.963-16.24-36.203-36.202-36.203z" fill="#7fb3fa"/><path d="m255.999 404.154c-11.492 0-22.805-.85-33.624-2.528l-1.182-.183.747 76.944h68.119l.747-76.944-1.182.183c-10.82 1.678-22.133 2.528-33.625 2.528z" fill="#7fb3fa"/><g><g><path d="m254.604 257.73c0-13.664 7.604-25.579 18.799-31.743-5.168-2.846-11.099-4.469-17.404-4.469-19.962 0-36.202 16.24-36.202 36.213l.397 40.889 1.164-.186c10.786-1.729 22.091-2.623 33.615-2.673z" fill="#64a6f4"/></g></g><g><g><path d="m255.999 404.154c-11.492 0-22.805-.85-33.624-2.528l-1.182-.183.747 76.944h34.807l-.721-74.232c-.009-.001-.018-.001-.027-.001z" fill="#64a6f4"/></g></g><path d="m396.746 221.518c-19.962 0-36.202 16.24-36.201 36.173l-1.926 66.146h25.411c3.821 0 6.929 3.108 6.929 6.929v38.373c0 3.821-3.109 6.929-6.929 6.929l-26.932.003-2.981 102.315h34.389c17.714 0 32.397-13.852 33.427-31.535l11.015-189.13c0-19.963-16.239-36.203-36.202-36.203z" fill="#7fb3fa"/><g><g><g><path d="m390.607 371.307c-.913 2.761-3.514 4.761-6.577 4.761l-26.932.003-2.981 102.315h33.371z" fill="#64a6f4"/></g><g><path d="m390.959 330.766v28.443l2.95-101.261c-.001-14.009 7.97-26.2 19.616-32.292-5.02-2.637-10.726-4.138-16.779-4.138-19.962 0-36.202 16.24-36.201 36.173l-1.926 66.146h25.411c3.821 0 6.929 3.108 6.929 6.929z" fill="#64a6f4"/></g></g></g><path d="m154.93 377.056-.06-.923-.92-.061-25.981-.004c-3.821 0-6.929-3.108-6.929-6.929v-38.373c0-3.821 3.108-6.929 6.929-6.929h25.412l-1.927-66.117c0-19.962-16.24-36.203-36.202-36.203s-36.202 16.24-36.2 36.262l11.014 189.071c1.03 17.684 15.713 31.535 33.427 31.535h34.389z" fill="#7fb3fa"/><path d="m123.673 446.851-11.013-189.071c-.001-13.941 7.877-26.041 19.398-32.11-5.026-2.646-10.742-4.152-16.806-4.152-19.962 0-36.202 16.24-36.2 36.262l11.014 189.071c1.03 17.684 15.713 31.535 33.427 31.535h33.607c-17.713 0-32.396-13.852-33.427-31.535z" fill="#64a6f4"/><circle cx="255.998" cy="98.567" fill="#f87c68" r="43.717"/><path d="m245.404 98.567c0-18.281 11.225-33.933 27.156-40.461-5.109-2.094-10.699-3.256-16.562-3.256-24.144 0-43.717 19.573-43.717 43.717s19.573 43.717 43.717 43.717c5.863 0 11.452-1.162 16.562-3.256-15.931-6.528-27.156-22.18-27.156-40.461z" fill="#ec625e"/><g><g><path d="m266.463 93.094c-2.05-3.905-6.06-6.331-10.464-6.331-4.204 0-7.612-3.407-7.612-7.612 0-4.204 3.408-7.612 7.612-7.612 10.081 0 19.255 5.548 23.943 14.48 1.954 3.722.52 8.323-3.202 10.277-3.723 1.955-8.323.52-10.277-3.202z" fill="#ec625e"/></g></g><path d="m384.03 321.806h-25.88c-3.614 0-7.193-1.271-10.079-3.579-18.909-15.117-54.188-24.507-92.072-24.507s-73.163 9.391-92.072 24.507c-2.886 2.308-6.466 3.579-10.079 3.579h-25.88c-4.94 0-8.959 4.019-8.959 8.96v38.373c0 4.94 4.019 8.959 8.959 8.959h25.88c3.614 0 7.193 1.271 10.079 3.579 18.907 15.117 54.187 24.507 92.073 24.507s73.166-9.391 92.072-24.507c2.886-2.308 6.466-3.579 10.079-3.579h25.88c4.94 0 8.959-4.019 8.959-8.959v-38.373c-.001-4.941-4.02-8.96-8.96-8.96z" fill="#f4dd45"/><path d="m384.03 351.129h-25.88c-3.613 0-7.193 1.271-10.079 3.579-18.907 15.117-54.187 24.507-92.072 24.507s-73.165-9.391-92.073-24.507c-2.886-2.308-6.465-3.579-10.079-3.579h-25.88c-4.94 0-8.959-4.019-8.959-8.959v26.969c0 4.94 4.019 8.959 8.959 8.959h25.88c3.614 0 7.193 1.271 10.079 3.579 18.907 15.117 54.187 24.507 92.073 24.507s73.166-9.391 92.072-24.507c2.886-2.308 6.466-3.579 10.079-3.579h25.88c4.94 0 8.959-4.019 8.959-8.959v-26.969c0 4.94-4.019 8.959-8.959 8.959z" fill="#fcc101"/><g><path d="m314.797 357.564h-115.777c-4.204 0-7.612-3.407-7.612-7.612 0-4.204 3.408-7.612 7.612-7.612h115.777c4.204 0 7.612 3.407 7.612 7.612-.001 4.204-3.409 7.612-7.612 7.612z" fill="#fcc101"/></g></g></svg>