<svg id="Capa_1" enable-background="new 0 0 511.999 511.999" height="512" viewBox="0 0 511.999 511.999" width="512" xmlns="http://www.w3.org/2000/svg"><g><g fill="#b5dcff"><g><path d="m270.719 123.157-8.8 13.769c2.825.934 5.368 2.756 7.165 5.366l14.196 20.626c1.071 1.556 2.318 2.933 3.693 4.133l14.657-22.62c17.42-25.312 15.469-56.399 2.328-79.586h-33.595c-5.624 0-10.802 1.207-15.391 3.32 19.471 8.96 29.269 35.345 15.747 54.992z"/><path d="m257.028 29.911c-4.915-1.014-10.054-1.56-15.392-1.56h-81.688-80.658c-59.614 0-94.804 66.998-61.024 116.08l9.222 13.963c10.011-7.453 20.739-14.106 31.918-19.811l-10.229-15.426c-16.727-24.303.639-57.281 30.113-57.281h80.658 48.093c10.066-17.767 27.313-31.493 48.987-35.965z"/></g><path d="m270.719 123.157-8.8 13.769c2.825.934 5.368 2.756 7.165 5.366l14.196 20.626c1.071 1.556 2.318 2.933 3.693 4.133l14.657-22.62c17.42-25.312 15.469-56.399 2.328-79.586h-33.595c-5.624 0-10.802 1.207-15.391 3.32 19.471 8.96 29.269 35.345 15.747 54.992z"/><path d="m257.028 29.911c-4.915-1.014-10.054-1.56-15.392-1.56h-81.688-80.658c-59.614 0-94.804 66.998-61.024 116.08l9.222 13.963c10.011-7.453 20.739-14.106 31.918-19.811l-10.229-15.426c-16.727-24.303.639-57.281 30.113-57.281h80.658 48.093c10.066-17.767 27.313-31.493 48.987-35.965z"/></g><path d="m292.002 138.87c-2.74-2.775-3.073-7.136-1.042-10.466l4.483-7.351c12.901-19.643 4.567-45.7-13.134-56.208h-11.946c-5.624 0-10.802 1.207-15.391 3.32 19.471 8.96 29.269 35.345 15.747 54.992l-8.8 13.769c2.825.934 5.368 2.756 7.165 5.366l14.196 20.626c1.071 1.556 2.318 2.933 3.693 4.133l11.857-18.299-5.022-7.646c-.539-.821-1.145-1.567-1.806-2.236z" fill="#8bcaff"/><path d="m42.99 144.432c-33.78-49.083 1.41-116.08 61.024-116.08h-24.724c-59.614 0-94.804 66.998-61.024 116.08l9.222 13.963c5.501-4.095 11.223-7.938 17.112-11.526z" fill="#8bcaff"/><path d="m219.974 158.416c10.011-7.453 20.739-14.106 31.918-19.811l-10.612-15.447c-16.727-24.303.64-57.282 30.113-57.282h80.658 80.658c29.503 0 46.822 33.004 30.113 57.282l-10.803 15.448c11.179 5.705 21.907 12.357 31.918 19.811l9.795-13.984c33.798-49.107-1.44-116.08-61.024-116.08h-80.658-80.658c-59.614 0-94.804 66.998-61.024 116.08z" fill="#dbedff"/><path d="m233.033 144.431c-33.781-49.082 1.41-116.08 61.024-116.08h-22.664c-59.614 0-94.804 66.998-61.024 116.08l9.605 13.984c4.981-3.709 10.14-7.218 15.443-10.512z" fill="#b5dcff"/><path d="m482.69 127.157 2.797-3.999c16.709-24.278-.611-57.281-30.114-57.281h-22.664c29.503 0 46.823 33.004 30.114 57.281l-10.803 15.448c11.179 5.705 21.907 12.357 31.918 19.811l7.319-10.449c-1.533-.953-3.079-1.889-4.635-2.806-6.308-3.717-8.128-12.006-3.932-18.005z" fill="#b5dcff"/><g><path d="m194.165 322.999c.163-37.971 13.558-72.819 35.811-100.171 6.224-7.65 6.584-18.514.993-26.638l-13.96-20.283c-1.21-1.758-1.953-3.702-2.281-5.686-3.123.476-8.435.317-11.616-.573-13.731-3.841-28.208-5.896-43.165-5.896s-29.434 2.055-43.165 5.896c-9.252 2.588-19.129-.875-24.576-8.79l-14.196-20.626c-3.982-5.786-11.618-7.738-17.902-4.6-11.991 5.988-23.481 13.076-34.15 21.066-6.028 4.514-7.382 13.004-3.113 19.208l13.96 20.283c5.591 8.124 5.231 18.988-.993 26.638-22.253 27.353-35.648 62.201-35.81 100.172-.373 87.034 69.666 158.883 156.684 160.616 37.352.744 73.913-11.328 101.484-32.104-39.026-29.415-64.229-76.218-64.005-128.512z" fill="#ff94d5"/></g><g><path d="m31.594 322.999c.163-37.971 13.558-72.819 35.811-100.171 6.224-7.65 6.584-18.514.993-26.638l-13.96-20.283c-4.27-6.204-2.915-14.694 3.113-19.208 6.965-5.216 14.285-10.039 21.86-14.431l-1.401-2.035c-3.982-5.786-11.618-7.738-17.902-4.6-11.991 5.988-23.481 13.076-34.15 21.066-6.028 4.514-7.382 13.004-3.113 19.208l13.96 20.283c5.592 8.124 5.231 18.989-.993 26.638-22.253 27.352-35.648 62.2-35.811 100.171-.373 87.034 69.666 158.883 156.684 160.616 6.412.128 12.8-.131 19.125-.738-81.142-7.966-144.571-77.043-144.216-159.878z" fill="#ff72c7"/></g><path d="m194.165 322.999c.11-25.644 6.262-49.859 17.095-71.306-14.018-9.607-33.036-15.237-51.313-15.237-48.184 0-87.244 39.061-87.244 87.244 0 48.184 39.061 87.244 87.244 87.244 18.318 0 37.369-5.656 51.405-15.302-11.087-21.869-17.298-46.573-17.187-72.643z" fill="#ff72c7"/><path d="m194.165 322.999c.11-25.644 6.262-49.859 17.095-71.306-14.018-9.607-33.036-15.237-51.313-15.237-48.184 0-87.244 39.061-87.244 87.244 0 48.184 39.061 87.244 87.244 87.244 18.318 0 37.369-5.656 51.405-15.302-11.087-21.869-17.298-46.573-17.187-72.643z" fill="#ff72c7"/><path d="m123.869 323.7c0-39.454 26.196-72.775 62.138-83.56-8.44-2.388-17.332-3.685-26.059-3.685-48.184 0-87.244 39.061-87.244 87.244 0 48.184 39.061 87.244 87.244 87.244 8.728 0 17.617-1.298 26.056-3.685-35.941-10.785-62.135-44.106-62.135-83.558z" fill="#ff4fb9"/><path d="m476.227 222.878c-6.236-7.671-6.639-18.543-1.034-26.686l13.961-20.285c4.283-6.222 2.888-14.717-3.16-19.243-10.663-7.981-22.145-15.061-34.128-21.043-6.275-3.133-13.9-1.166-17.877 4.612l-14.196 20.627c-5.447 7.914-15.324 11.378-24.576 8.79-13.731-3.841-28.208-5.896-43.165-5.896s-29.434 2.055-43.165 5.896c-9.252 2.588-19.129-.876-24.576-8.79l-14.196-20.626c-3.982-5.786-11.618-7.738-17.902-4.6-11.991 5.988-23.481 13.076-34.15 21.066-6.028 4.514-7.382 13.005-3.113 19.208l13.96 20.283c5.591 8.124 5.231 18.988-.993 26.639-22.253 27.352-35.648 62.199-35.811 100.17-.373 87.034 69.666 158.883 156.684 160.616 89.829 1.789 163.21-70.494 163.21-159.915-.001-38.222-13.407-73.31-35.773-100.823z" fill="#7fb3fa"/><g><g><g><path d="m223.698 322.999c.163-37.971 13.558-72.818 35.811-100.171 6.224-7.65 6.584-18.514.993-26.639l-13.96-20.283c-4.269-6.204-2.915-14.694 3.113-19.208 6.965-5.216 14.285-10.039 21.86-14.431l-1.4-2.035c-3.982-5.786-11.618-7.738-17.902-4.6-11.991 5.988-23.481 13.076-34.15 21.066-6.028 4.514-7.382 13.005-3.113 19.208l13.96 20.283c5.591 8.124 5.231 18.988-.993 26.639-22.254 27.352-35.649 62.199-35.811 100.171-.373 87.034 69.666 158.883 156.684 160.616 6.437.128 12.786-.136 19.034-.748-81.1-8.009-144.482-77.064-144.126-159.868z" fill="#64a6f4"/></g></g></g><circle cx="352.051" cy="323.7" fill="#64a6f4" r="87.244"/><path d="m315.973 323.7c0-39.28 25.962-72.49 61.661-83.424-8.091-2.478-16.68-3.82-25.583-3.82-48.184 0-87.244 39.061-87.244 87.244 0 48.184 39.061 87.244 87.244 87.244 8.903 0 17.492-1.341 25.583-3.82-35.699-10.934-61.661-44.144-61.661-83.424z" fill="#3d8bd8"/></g></svg>