<svg id="Capa_1" enable-background="new 0 0 511.999 511.999" height="512" viewBox="0 0 511.999 511.999" width="512" xmlns="http://www.w3.org/2000/svg"><g><g><path d="m305.265 246.453-39.718-39.718c-37.591-23.293-83.049-22.448-110.527 5.03-7.869 7.869-13.555 17.213-17.116 27.426-5.61 16.09-20.55 27.133-37.59 27.058-27.293-.12-53.027 9.116-72.108 28.197-43.26 43.26-35.942 120.716 16.346 173.003 52.287 52.287 129.743 59.605 173.003 16.346 19.081-19.081 28.318-44.816 28.198-72.109-.075-17.04 10.968-31.979 27.058-37.59 10.212-3.561 19.557-9.247 27.425-17.116 27.477-27.478 28.322-72.936 5.029-110.527z" fill="#f87c68"/></g><path d="m55.935 317.926c20.282-20.283 47.637-30.101 76.648-29.973 18.112.08 33.993-11.659 39.956-28.761 3.785-10.855 9.829-20.788 18.194-29.152 19.73-19.73 48.181-26.523 76.884-21.235l-2.07-2.07c-37.591-23.293-83.049-22.448-110.527 5.03-7.869 7.869-13.555 17.213-17.116 27.426-5.61 16.09-20.55 27.133-37.59 27.058-27.293-.12-53.027 9.116-72.108 28.197-43.26 43.26-35.942 120.716 16.346 173.003 1.705 1.705 3.438 3.359 5.194 4.968-33.11-52.349-32.21-116.092 6.189-154.491z" fill="#ec625e"/><g><path d="m222.17 289.829c7.335 7.335 11.957 16.353 13.894 25.824l186.223-186.223c-2.918-.693-5.686-2.156-7.959-4.428l-27.331-27.331c-2.272-2.272-3.736-5.041-4.428-7.959l-186.223 186.223c9.471 1.937 18.489 6.559 25.824 13.894z" fill="#f4dd45"/></g><g><path d="m497.623 117.793-26.162-26.162c-2.973-2.972-2.973-7.792 0-10.764 2.972-2.972 7.792-2.972 10.764 0l26.162 26.162c2.973 2.972 2.973 7.792 0 10.764-2.973 2.973-7.792 2.972-10.764 0z" fill="#b5dcff"/></g><g><path d="m464.969 150.447-26.162-26.162c-2.973-2.972-2.973-7.792 0-10.764 2.972-2.972 7.792-2.972 10.764 0l26.162 26.162c2.973 2.972 2.973 7.792 0 10.764-2.972 2.972-7.792 2.972-10.764 0z" fill="#b5dcff"/></g><g><path d="m420.368 40.538-26.162-26.162c-2.973-2.972-2.973-7.792 0-10.764 2.972-2.972 7.792-2.972 10.764 0l26.162 26.162c2.973 2.972 2.973 7.792 0 10.764-2.972 2.973-7.791 2.972-10.764 0z" fill="#b5dcff"/></g><g><path d="m387.714 73.192-26.161-26.162c-2.973-2.972-2.973-7.792 0-10.764 2.972-2.972 7.792-2.972 10.764 0l26.162 26.162c2.973 2.972 2.973 7.792 0 10.764-2.973 2.973-7.792 2.972-10.765 0z" fill="#b5dcff"/></g><circle cx="186.88" cy="325.119" fill="#3f6d8e" r="51.226"/><path d="m189.731 361.341c-20.005-20.005-20.005-52.44 0-72.445 4.93-4.93 10.618-8.64 16.686-11.14-18.554-7.644-40.684-3.935-55.759 11.14-20.005 20.005-20.005 52.44 0 72.445 15.075 15.075 37.205 18.784 55.759 11.14-6.068-2.5-11.756-6.209-16.686-11.14z" fill="#365e7d"/><g><path d="m394.431 165.523-47.955-47.955c-2.973-2.972-2.973-7.792 0-10.764 2.972-2.972 7.792-2.972 10.764 0l47.955 47.955c2.973 2.972 2.973 7.792 0 10.764-2.972 2.973-7.792 2.972-10.764 0z" fill="#fcc101"/></g><g><path d="m367.257 192.697-47.955-47.955c-2.973-2.972-2.973-7.792 0-10.764 2.972-2.972 7.792-2.972 10.764 0l47.955 47.955c2.973 2.972 2.973 7.792 0 10.764-2.97 2.971-7.792 2.973-10.764 0z" fill="#fcc101"/></g><g><path d="m340.083 219.872-47.955-47.956c-2.973-2.972-2.973-7.792 0-10.764 2.973-2.973 7.793-2.973 10.764 0l47.955 47.955c2.973 2.973 2.973 7.792 0 10.765-2.972 2.971-7.791 2.972-10.764 0z" fill="#fcc101"/></g><g><path d="m312.909 247.046-47.955-47.955c-2.973-2.973-2.973-7.793 0-10.765 2.973-2.973 7.793-2.973 10.764 0l47.955 47.955c2.973 2.973 2.973 7.792 0 10.765-2.972 2.971-7.791 2.972-10.764 0z" fill="#fcc101"/></g><g><path d="m285.735 274.22-47.955-47.955c-2.973-2.973-2.973-7.792 0-10.765 2.973-2.972 7.793-2.97 10.764 0l47.955 47.955c2.973 2.973 2.973 7.792 0 10.765-2.972 2.971-7.791 2.972-10.764 0z" fill="#fcc101"/></g><path d="m159.187 424.867-72.054-72.054c-2.573-2.573-6.746-2.574-9.319 0l-16.717 16.717c-2.574 2.574-2.574 6.746 0 9.319l72.054 72.054c2.573 2.573 6.746 2.574 9.319 0l16.717-16.717c2.573-2.574 2.573-6.746 0-9.319z" fill="#f4dd45"/><path d="m86.609 378.849c-2.574-2.573-2.574-6.746 0-9.319l8.62-8.62-8.097-8.096c-2.573-2.573-6.746-2.574-9.319 0l-16.717 16.717c-2.574 2.574-2.574 6.746 0 9.319l72.054 72.054c2.573 2.573 6.746 2.574 9.319 0l8.096-8.096z" fill="#fcc101"/><g><path d="m491.049 121.218c-1.948 0-3.896-.743-5.382-2.229-2.973-2.973-2.973-7.792 0-10.764l13.338-13.338c2.973-2.973 7.793-2.973 10.764 0 2.973 2.973 2.973 7.792 0 10.764l-13.338 13.338c-1.486 1.485-3.434 2.229-5.382 2.229z" fill="#dbedff"/></g><g><path d="m458.302 153.965c-1.948 0-3.896-.743-5.382-2.229-2.973-2.973-2.973-7.792 0-10.764l13.338-13.338c2.973-2.973 7.793-2.973 10.764 0 2.973 2.973 2.973 7.792 0 10.764l-13.338 13.338c-1.486 1.486-3.435 2.229-5.382 2.229z" fill="#dbedff"/></g><g><path d="m398.393 28.561c-1.948 0-3.896-.743-5.382-2.229-2.973-2.973-2.973-7.792 0-10.764l13.338-13.338c2.972-2.973 7.792-2.973 10.764 0 2.973 2.973 2.973 7.792 0 10.764l-13.338 13.338c-1.486 1.486-3.435 2.229-5.382 2.229z" fill="#dbedff"/></g><g><path d="m365.646 61.309c-1.948 0-3.896-.743-5.382-2.229-2.973-2.973-2.973-7.792 0-10.764l13.338-13.338c2.973-2.972 7.793-2.973 10.764 0 2.973 2.973 2.973 7.792 0 10.764l-13.338 13.338c-1.486 1.485-3.435 2.229-5.382 2.229z" fill="#dbedff"/></g><g><path d="m117.032 402.579c-1.948 0-3.896-.743-5.382-2.229-2.973-2.973-2.973-7.792 0-10.765l288.827-288.827c2.972-2.972 7.792-2.972 10.764 0 2.973 2.972 2.973 7.792 0 10.764l-288.827 288.828c-1.486 1.485-3.434 2.229-5.382 2.229z" fill="#dbedff"/></g><g><path d="m97.173 382.719c-1.948 0-3.896-.743-5.382-2.229-2.973-2.973-2.973-7.792 0-10.765l288.827-288.826c2.972-2.972 7.792-2.973 10.764 0 2.973 2.972 2.973 7.792 0 10.764l-288.827 288.827c-1.486 1.486-3.434 2.229-5.382 2.229z" fill="#dbedff"/></g><g><path d="m136.891 422.437c-1.948 0-3.896-.743-5.382-2.229-2.973-2.973-2.973-7.792 0-10.765l288.827-288.827c2.972-2.972 7.792-2.972 10.764 0 2.973 2.972 2.973 7.792 0 10.764l-288.826 288.828c-1.487 1.486-3.435 2.229-5.383 2.229z" fill="#dbedff"/></g><path d="m482.934 56.397-27.331-27.331c-6.562-6.562-17.234-6.528-23.836.074l-45.114 45.114c-6.603 6.603-6.636 17.275-.074 23.836l27.331 27.331c6.562 6.562 17.234 6.528 23.836-.074l45.114-45.114c6.602-6.602 6.635-17.274.074-23.836z" fill="#f87c68"/><path d="m424.243 98.091c-6.562-6.562-6.528-17.234.074-23.836l38.237-38.237-6.952-6.952c-6.562-6.562-17.234-6.528-23.836.074l-45.114 45.114c-6.603 6.603-6.636 17.275-.074 23.836l27.331 27.331c6.562 6.562 17.234 6.528 23.836-.074l6.877-6.877z" fill="#ec625e"/></g></svg>