<?xml version="1.0" encoding="iso-8859-1"?>
<!-- Generator: Adobe Illustrator 19.0.0, SVG Export Plug-In . SVG Version: 6.00 Build 0)  -->
<svg version="1.1" id="Capa_1" xmlns="http://www.w3.org/2000/svg" xmlns:xlink="http://www.w3.org/1999/xlink" x="0px" y="0px"
	 viewBox="0 0 512 512" style="enable-background:new 0 0 512 512;" xml:space="preserve">
<g>
	<g>
		<g>
			<path d="M486.4,119.467H290.133c-4.713,0-8.533,3.82-8.533,8.533s3.82,8.533,8.533,8.533H486.4c4.713,0,8.533,3.82,8.533,8.533
				V486.4c0,4.713-3.82,8.533-8.533,8.533H25.6c-4.713,0-8.533-3.82-8.533-8.533V145.067c0-4.713,3.82-8.533,8.533-8.533h196.267
				c4.713,0,8.533-3.82,8.533-8.533s-3.82-8.533-8.533-8.533H25.6c-14.138,0-25.6,11.461-25.6,25.6V486.4
				C0,500.539,11.461,512,25.6,512h460.8c14.138,0,25.6-11.461,25.6-25.6V145.067C512,130.928,500.539,119.467,486.4,119.467z"/>
			<path d="M463.838,155.597L266.982,320.973c-6.349,5.337-15.616,5.337-21.965,0L48.154,155.597
				c-2.335-1.96-5.539-2.526-8.404-1.484c-2.865,1.042-4.957,3.534-5.487,6.536s0.582,6.06,2.917,8.02l196.864,165.367
				c12.688,10.683,31.224,10.683,43.913,0L474.829,168.67c3.61-3.035,4.076-8.422,1.041-12.032
				C472.835,153.028,467.448,152.562,463.838,155.597z"/>
			<path d="M164.124,332.863c-3.021-0.674-6.169,0.34-8.229,2.65l-119.467,128c-2.162,2.214-2.956,5.426-2.074,8.392
				c0.882,2.967,3.301,5.223,6.321,5.897c3.021,0.674,6.169-0.34,8.229-2.65l119.467-128c2.162-2.214,2.956-5.426,2.074-8.392
				C169.563,335.794,167.145,333.537,164.124,332.863z"/>
			<path d="M344.047,335.096c-3.444,3.215-3.631,8.612-0.418,12.058l119.467,128c2.059,2.31,5.208,3.324,8.229,2.65
				c3.021-0.674,5.439-2.931,6.321-5.897c0.882-2.967,0.088-6.178-2.074-8.392l-119.467-128
				C352.89,332.07,347.492,331.883,344.047,335.096z"/>
			<path d="M238.933,230.4h34.133c4.713,0,8.533-3.82,8.533-8.533s-3.821-8.533-8.533-8.533h-8.533V102.4h128
				c3.451-0.001,6.562-2.08,7.882-5.268c1.32-3.188,0.591-6.858-1.849-9.298L361.933,51.2l36.634-36.634
				c2.442-2.44,3.173-6.112,1.852-9.301c-1.322-3.188-4.434-5.266-7.885-5.265H256c-4.713,0-8.533,3.82-8.533,8.533v204.8h-8.533
				c-4.713,0-8.533,3.82-8.533,8.533S234.221,230.4,238.933,230.4z M264.533,17.067h107.401l-28.1,28.1
				c-3.331,3.332-3.331,8.734,0,12.066l28.1,28.1H264.533V17.067z"/>
		</g>
	</g>
</g>
<g>
</g>
<g>
</g>
<g>
</g>
<g>
</g>
<g>
</g>
<g>
</g>
<g>
</g>
<g>
</g>
<g>
</g>
<g>
</g>
<g>
</g>
<g>
</g>
<g>
</g>
<g>
</g>
<g>
</g>
</svg>
