<?xml version="1.0" encoding="iso-8859-1"?>
<!-- Generator: Adobe Illustrator 19.0.0, SVG Export Plug-In . SVG Version: 6.00 Build 0)  -->
<svg version="1.1" id="Capa_1" xmlns="http://www.w3.org/2000/svg" xmlns:xlink="http://www.w3.org/1999/xlink" x="0px" y="0px"
	 viewBox="0 0 512 512" style="enable-background:new 0 0 512 512;" xml:space="preserve">
<g>
	<g>
		<g>
			<path d="M486.4,119.279H384c-4.713,0-8.533,3.82-8.533,8.533s3.82,8.533,8.533,8.533h102.4c4.713,0,8.533,3.82,8.533,8.533
				v341.333c0,4.713-3.82,8.533-8.533,8.533H25.6c-4.713,0-8.533-3.82-8.533-8.533V144.879c0-4.713,3.82-8.533,8.533-8.533H128
				c4.713,0,8.533-3.82,8.533-8.533s-3.82-8.533-8.533-8.533H25.6c-14.138,0-25.6,11.461-25.6,25.6v341.333
				c0,14.138,11.461,25.6,25.6,25.6h460.8c14.138,0,25.6-11.461,25.6-25.6V144.879C512,130.741,500.539,119.279,486.4,119.279z"/>
			<path d="M475.87,156.459c-3.03-3.61-8.413-4.08-12.023-1.05L266.982,320.785c-6.349,5.337-15.616,5.337-21.965,0L48.154,155.409
				c-2.335-1.96-5.539-2.526-8.404-1.484c-2.865,1.042-4.957,3.534-5.487,6.536s0.582,6.06,2.917,8.02L234.044,333.85
				c12.688,10.683,31.224,10.683,43.913,0L474.82,168.482C478.43,165.452,478.9,160.069,475.87,156.459z"/>
			<path d="M164.124,332.676c-3.021-0.674-6.169,0.34-8.229,2.65l-119.467,128c-2.162,2.214-2.956,5.426-2.074,8.392
				c0.882,2.967,3.301,5.223,6.321,5.897c3.021,0.674,6.169-0.34,8.229-2.65l119.467-128c2.162-2.214,2.956-5.426,2.074-8.392
				C169.563,335.607,167.145,333.35,164.124,332.676z"/>
			<path d="M344.047,334.908c-3.444,3.215-3.631,8.612-0.418,12.058l119.467,128c3.24,3.318,8.536,3.442,11.927,0.278
				c3.391-3.163,3.635-8.456,0.549-11.918l-119.467-128C352.89,331.882,347.492,331.695,344.047,334.908z"/>
			<path d="M187.068,152.977l-13.303,75.767c-0.547,3.179,0.744,6.394,3.338,8.311s6.047,2.208,8.925,0.751l69.973-35.9l69.973,35.9
				c2.882,1.477,6.352,1.195,8.958-0.727s3.899-5.154,3.339-8.344l-13.303-75.768l56.414-53.692c2.36-2.264,3.219-5.678,2.21-8.789
				c-0.997-3.113-3.685-5.383-6.921-5.845l-78.148-11.093L263.62,4.497c-1.608-2.674-4.5-4.31-7.62-4.31s-6.012,1.636-7.62,4.31
				l-34.901,69.06L135.33,84.651c-3.24,0.461-5.931,2.734-6.927,5.851c-0.996,3.117-0.122,6.53,2.251,8.784L187.068,152.977z
				 M220.169,89.831c2.762-0.392,5.159-2.109,6.417-4.599L256,27.264l29.303,57.967c1.259,2.49,3.655,4.208,6.417,4.599
				l65.092,9.233l-46.959,44.698c-2.091,1.967-3.053,4.852-2.56,7.68l11.093,63.369l-58.556-30.063
				c-2.448-1.258-5.352-1.258-7.799,0l-58.556,30.063l11.093-63.369c0.493-2.828-0.469-5.713-2.56-7.68l-46.933-44.698
				L220.169,89.831z"/>
		</g>
	</g>
</g>
<g>
</g>
<g>
</g>
<g>
</g>
<g>
</g>
<g>
</g>
<g>
</g>
<g>
</g>
<g>
</g>
<g>
</g>
<g>
</g>
<g>
</g>
<g>
</g>
<g>
</g>
<g>
</g>
<g>
</g>
</svg>
