<svg id="Capa_1" enable-background="new 0 0 512 512" height="512" viewBox="0 0 512 512" width="512" xmlns="http://www.w3.org/2000/svg"><g><path d="m92.75 310.508v92.953h326.501v-92.874c0-9.867 5.451-18.952 14.203-23.509 36.599-19.055 61.873-56.916 63.137-100.384 2.037-70.081-57.031-125.265-125.46-120.233-5.456.401-10.647-2.449-13.352-7.205-20.123-35.387-58.161-59.256-101.779-59.256s-81.655 23.869-101.778 59.254c-2.705 4.757-7.897 7.607-13.355 7.206-68.386-5.025-127.422 50.099-125.461 120.105 1.221 43.602 26.624 81.386 63.155 100.443 8.743 4.56 14.189 13.64 14.189 23.5z" fill="#dbedff"/><g><path d="m136.651 279.485c-34.366-17.927-58.263-39.049-59.412-80.067-1.845-65.857 53.692-117.715 118.026-112.987 5.134.377 10.019-2.304 12.563-6.779 18.931-33.288 54.714-55.743 95.747-55.743 9.575 0 18.858 1.237 27.713 3.534-20.348-17.124-46.611-27.443-75.288-27.443-43.618 0-81.655 23.869-101.778 59.254-2.705 4.757-7.897 7.608-13.355 7.206-68.386-5.025-127.421 50.099-125.461 120.105 1.221 43.602 26.624 81.386 63.155 100.443 8.743 4.561 14.188 13.64 14.188 23.501v92.953h57.249v-101.868c.001-9.277-5.122-17.818-13.347-22.109z" fill="#b5dcff"/></g><g><path d="m147.782 415.34c-4.267 0-7.727-3.459-7.727-7.727v-118.927c0-4.268 3.459-7.727 7.727-7.727 4.267 0 7.727 3.459 7.727 7.727v118.927c0 4.268-3.459 7.727-7.727 7.727z" fill="#b5dcff"/></g><g><path d="m201.891 415.34c-4.267 0-7.727-3.459-7.727-7.727v-118.927c0-4.268 3.459-7.727 7.727-7.727 4.267 0 7.727 3.459 7.727 7.727v118.927c0 4.268-3.459 7.727-7.727 7.727z" fill="#b5dcff"/></g><g><path d="m256 415.34c-4.267 0-7.727-3.459-7.727-7.727v-118.927c0-4.268 3.459-7.727 7.727-7.727 4.267 0 7.727 3.459 7.727 7.727v118.927c0 4.268-3.46 7.727-7.727 7.727z" fill="#b5dcff"/></g><g><path d="m310.109 415.34c-4.267 0-7.727-3.459-7.727-7.727v-118.927c0-4.268 3.459-7.727 7.727-7.727s7.727 3.459 7.727 7.727v118.927c-.001 4.268-3.46 7.727-7.727 7.727z" fill="#b5dcff"/></g><g><path d="m364.218 415.34c-4.267 0-7.727-3.459-7.727-7.727v-118.927c0-4.268 3.459-7.727 7.727-7.727s7.727 3.459 7.727 7.727v118.927c-.001 4.268-3.46 7.727-7.727 7.727z" fill="#b5dcff"/></g><path d="m92.75 401.401v39.865h326.501v-39.865z" fill="#b5dcff"/><path d="m92.75 401.401v39.865h62.759v-39.865z" fill="#8bcaff"/><path d="m428.028 436.599h-344.056c-5.976 0-10.821 4.844-10.821 10.821v53.759c0 5.976 4.845 10.821 10.821 10.821h344.057c5.976 0 10.821-4.845 10.821-10.821v-53.759c-.001-5.976-4.845-10.821-10.822-10.821z" fill="#f87c68"/><path d="m428.028 436.599h-344.056c-5.976 0-10.821 4.844-10.821 10.821v53.759c0 5.976 4.845 10.821 10.821 10.821h344.057c5.976 0 10.821-4.845 10.821-10.821v-53.759c-.001-5.976-4.845-10.821-10.822-10.821z" fill="#f87c68"/><path d="m140.056 501.179v-53.759c0-5.976 4.845-10.821 10.821-10.821h-66.905c-5.976 0-10.821 4.844-10.821 10.821v53.759c0 5.976 4.845 10.821 10.821 10.821h66.905c-5.976 0-10.821-4.845-10.821-10.821z" fill="#ec625e"/></g></svg>