<svg id="Capa_1" enable-background="new 0 0 512 512" height="512" viewBox="0 0 512 512" width="512" xmlns="http://www.w3.org/2000/svg"><g><g><g><path d="m78.332 168.072h39.283v33.157h-39.283z" fill="#3f6d8e" transform="matrix(.933 -.36 .36 .933 -59.952 47.705)"/></g></g><path d="m75.494 168.601h39.283v17.4h-39.283z" fill="#365e7d" transform="matrix(.933 -.36 .36 .933 -57.496 46.19)"/><path d="m227.145 164.457-19.966-51.69c-.181-.468-.331-.94-.465-1.413l-90.113 34.807c-6.382 2.465-9.58 9.578-7.143 15.886l12.212 31.616c2.437 6.309 9.586 9.425 15.967 6.96l90.113-34.807c-.218-.44-.424-.891-.605-1.359z" fill="#477b9e"/><path d="m125.436 170.735 90.614-35.001-8.871-22.967c-.181-.468-.331-.94-.465-1.413l-90.112 34.807c-6.382 2.465-9.58 9.578-7.143 15.886l7.489 19.389c.631-4.665 3.746-8.87 8.488-10.701z" fill="#3f6d8e"/><path d="m272.701 184.826c-5.443 0-10.506-1.801-14.752-4.889v47.132c.399-.021.8-.034 1.203-.034h27.097c.404 0 .804.013 1.203.034v-47.132c-4.245 3.089-9.309 4.889-14.751 4.889z" fill="#3f6d8e"/><path d="m272.701 184.826c-5.443 0-10.506-1.801-14.752-4.889v47.132c.399-.021.8-.034 1.203-.034h13.549z" fill="#365e7d"/><path d="m60.726 159.747-17.079 6.597c-3.825 1.477-5.728 5.776-4.25 9.6l21.063 54.529c1.477 3.825 5.776 5.728 9.6 4.25l17.079-6.597c3.825-1.477 5.728-5.776 4.25-9.6l-21.063-54.529c-1.477-3.825-5.775-5.728-9.6-4.25z" fill="#dbedff"/><path d="m54.248 197.626 19.622-7.579c2.222-.858 4.582-.721 6.593.191l-10.136-26.241c-1.477-3.825-5.775-5.728-9.6-4.25l-17.079 6.597c-3.825 1.477-5.728 5.776-4.25 9.6l10.12 26.2c.881-2.002 2.528-3.667 4.73-4.518z" fill="#b5dcff"/><g><path d="m311.444 258.059v-7.826c0-13.915-11.28-25.195-25.195-25.195h-27.097c-13.915 0-25.195 11.28-25.195 25.195v7.826z" fill="#b5dcff"/></g><path d="m292.483 225.817c-1.994-.508-4.082-.779-6.234-.779h-27.097c-13.915 0-25.195 11.28-25.195 25.195v7.826h39.566v-7.826c-.001-11.762 8.061-21.641 18.96-24.416z" fill="#8bcaff"/><g><g><path d="m420.98 6.924 35.601 92.168c15.08-14.988 20.901-37.495 12.989-57.977s-27.35-33.231-48.59-34.191z" fill="#7fb3fa"/></g></g><path d="m473.057 62.109c.276-6.985-.824-14.104-3.486-20.994-7.912-20.481-27.351-33.231-48.591-34.19l14.602 37.802c14.101 1.773 27.267 7.845 37.475 17.382z" fill="#64a6f4"/><path d="m395.35 22.877-180.269 69.866c-8.156 3.151-12.215 12.317-9.064 20.473l19.966 51.69c3.15 8.156 12.317 12.214 20.473 9.064l180.269-69.866z" fill="#dbedff"/><path d="m224.542 124.315 182.647-70.787-11.839-30.65-180.269 69.865c-8.156 3.151-12.215 12.317-9.064 20.473l8.602 22.27c1.274-4.929 4.812-9.197 9.923-11.171z" fill="#b5dcff"/><g fill="#477b9e"><path d="m257.949 497.248c0 8.147 6.605 14.752 14.752 14.752s14.752-6.605 14.752-14.752v-201.787h-29.503v201.787z"/><path d="m153.398 492.144c-3.552 9.631 3.575 19.856 13.84 19.856 6.179 0 11.703-3.85 13.84-9.647l75.54-206.891h-31.446z"/><path d="m392.002 492.144-71.776-196.683h-31.446l75.54 206.891c2.138 5.797 7.662 9.647 13.84 9.647 10.268.001 17.394-10.223 13.842-19.855z"/></g><path d="m274.03 497.248v-201.787h-16.081v201.787c0 8.147 6.605 14.752 14.752 14.752 2.968 0 5.726-.885 8.04-2.393-4.037-2.632-6.711-7.18-6.711-12.359z" fill="#3f6d8e"/><path d="m169.479 492.144 71.775-196.683h-16.081l-71.775 196.683c-3.552 9.631 3.575 19.856 13.84 19.856 2.92 0 5.688-.868 8.027-2.387-5.478-3.586-8.292-10.673-5.786-17.469z" fill="#3f6d8e"/><path d="m380.402 502.353-75.54-206.891h-16.081l75.54 206.891c2.138 5.797 7.662 9.647 13.84 9.647 3.022 0 5.768-.891 8.054-2.387-2.61-1.695-4.685-4.203-5.813-7.26z" fill="#3f6d8e"/><path d="m325.855 255.999h-106.309c-7.457 0-13.501 6.045-13.501 13.501v14.52c0 7.457 6.045 13.501 13.501 13.501h106.309c7.457 0 13.501-6.045 13.501-13.501v-14.52c0-7.456-6.045-13.501-13.501-13.501z" fill="#dbedff"/><path d="m245.61 284.021v-14.521c0-7.457 6.045-13.501 13.501-13.501h-39.566c-7.456 0-13.501 6.045-13.501 13.501v14.52c0 7.457 6.045 13.501 13.501 13.501h39.566c-7.456.001-13.501-6.044-13.501-13.5z" fill="#b5dcff"/><circle cx="272.701" cy="160.191" fill="#477b9e" r="27.09"/><path d="m272.701 160.191c0-10.025 5.45-18.772 13.545-23.457-3.986-2.306-8.609-3.633-13.545-3.633-14.961 0-27.09 12.129-27.09 27.09s12.129 27.09 27.09 27.09c4.936 0 9.56-1.327 13.545-3.633-8.095-4.684-13.545-13.431-13.545-23.457z" fill="#3f6d8e"/><path d="m411.834.501-17.079 6.597c-3.825 1.477-5.728 5.776-4.25 9.6l36.944 95.645c1.477 3.825 5.776 5.728 9.6 4.25l17.079-6.597c3.825-1.477 5.728-5.776 4.25-9.6l-36.943-95.645c-1.478-3.825-5.776-5.728-9.601-4.25z" fill="#b5dcff"/><path d="m409.099 44.982 17.583-6.792c3.06-1.182 6.409-.256 8.466 2.062l-13.713-35.501c-1.477-3.825-5.776-5.728-9.6-4.25l-17.079 6.597c-3.825 1.477-5.728 5.776-4.25 9.6l13.713 35.501c-.036-3.098 1.82-6.035 4.88-7.217z" fill="#8bcaff"/></g></svg>