<svg id="Capa_1" enable-background="new 0 0 512 512" height="512" viewBox="0 0 512 512" width="512" xmlns="http://www.w3.org/2000/svg"><g><path d="m270.996 344.339v-174.835c-1.905 1.859-3.71 3.827-5.377 5.924-5.083 6.395-14.441 6.395-19.524 0-1.667-2.097-3.472-4.065-5.377-5.924v174.835z" fill="#dbedff"/><path d="m255.857 180.225c-3.61 0-7.221-1.599-9.762-4.796-1.667-2.097-3.472-4.065-5.377-5.924v174.835h15.139z" fill="#b5dcff"/><path d="m240.718 344.339h30.278v55.886h-30.278z" fill="#ce775f"/><path d="m240.718 344.339h15.139v55.886h-15.139z" fill="#c0694e"/><path d="m255.857 34.442c5.087 0 10.133.172 15.139.492v-19.795c0-8.361-6.778-15.139-15.139-15.139s-15.139 6.778-15.139 15.139v19.795c5.006-.32 10.052-.492 15.139-.492z" fill="#dbedff"/><g><path d="m255.857 15.139c0-5.6 3.049-10.478 7.569-13.097-2.228-1.291-4.808-2.042-7.569-2.042-8.361 0-15.139 6.778-15.139 15.139v19.795c5.006-.32 10.052-.492 15.139-.492z" fill="#b5dcff"/></g><path d="m464.814 161.353c-38.402-76.48-117.544-128.972-208.957-128.972v3.091c5.091 0 10.141.172 15.15.493 51.035 10.317 91.65 72.039 99.584 150.588 3.316-.224 6.561-1.725 8.9-4.535 11.253-13.523 28.205-22.133 47.174-22.133 11.24 0 21.774 3.022 30.834 8.297 4.478 2.606 9.64-2.198 7.315-6.829z" fill="#f4dd45"/><path d="m46.9 161.354c-2.325 4.63 2.837 9.434 7.314 6.828 9.06-5.275 19.594-8.297 30.834-8.297 18.969 0 35.92 8.61 47.174 22.133 2.339 2.81 5.584 4.311 8.9 4.535 7.934-78.549 48.549-140.271 99.584-150.588 5.01-.321 10.06-.493 15.15-.493v-3.091c-91.411 0-170.553 52.492-208.956 128.973z" fill="#f87c68"/><g><path d="m243.128 32.723c-85.99 4.616-159.62 55.723-196.228 128.631-2.325 4.63 2.837 9.434 7.314 6.828 9.06-5.275 19.594-8.297 30.834-8.297 2.983 0 5.909.236 8.778.648 29.688-62.492 83.483-110.036 149.302-127.81z" fill="#ec625e"/></g><g fill="#ce775f"><path d="m331.42 424.933v81.327c0 3.17 2.57 5.74 5.74 5.74h18.799c3.17 0 5.74-2.57 5.74-5.74v-81.327z"/><path d="m240.718 424.933v81.327c0 3.17 2.57 5.74 5.74 5.74h18.799c3.17 0 5.74-2.57 5.74-5.74v-81.327z"/><path d="m150.016 506.26c0 3.17 2.57 5.74 5.74 5.74h18.799c3.17 0 5.74-2.57 5.74-5.74v-81.396c-10.799-.395-21.217-3.601-30.278-9.125v90.521z"/></g><path d="m346.559 506.26v-81.327h-15.139v81.327c0 3.17 2.569 5.74 5.74 5.74h15.139c-3.17 0-5.74-2.57-5.74-5.74z" fill="#c0694e"/><path d="m255.857 506.26v-81.327h-15.139v81.327c0 3.17 2.57 5.74 5.74 5.74h15.139c-3.17 0-5.74-2.57-5.74-5.74z" fill="#c0694e"/><path d="m165.155 506.26v-83.849c-5.322-1.55-10.416-3.793-15.139-6.672v90.521c0 3.17 2.57 5.74 5.74 5.74h15.139c-3.17 0-5.74-2.57-5.74-5.74z" fill="#c0694e"/><g><g><path d="m320.191 352.066h-128.668c-4.267 0-7.727-3.459-7.727-7.727s3.46-7.727 7.727-7.727h128.669c4.267 0 7.727 3.459 7.727 7.727s-3.46 7.727-7.728 7.727z" fill="#e58e7a"/></g></g><path d="m271.008 32.874c-5.01-.321-10.06-.493-15.15-.493-.688 0-1.374.011-2.06.017v154.015c4.254.695 8.795-.758 11.822-4.396 11.254-13.523 28.205-22.133 47.174-22.133s35.921 8.61 47.174 22.133c2.814 3.381 6.937 4.882 10.921 4.52-7.172-80.01-48.182-143.212-99.881-153.663z" fill="#f87c68"/><path d="m255.857 32.381c-5.091 0-10.141.172-15.15.493-51.699 10.451-92.709 73.654-99.881 153.663 3.984.362 8.107-1.138 10.921-4.52 11.254-13.523 28.205-22.133 47.174-22.133s35.92 8.61 47.174 22.133c2.541 3.054 6.152 4.581 9.762 4.581z" fill="#f4dd45"/><g><path d="m438.988 495.565-48.462-57.185c-6.133-7.237-15.091-11.387-24.577-11.387h-183.395c-19.887 0-38.759-9.591-50.481-25.655l-59.664-81.762c-4.928-6.754-3.449-16.224 3.305-21.153s16.224-3.449 21.153 3.305l59.664 81.762c6.043 8.281 15.771 13.226 26.023 13.226h183.396c18.402 0 35.779 8.051 47.675 22.091l48.462 57.185c5.406 6.378 4.617 15.931-1.762 21.336-6.375 5.402-15.929 4.619-21.337-1.763z" fill="#dbedff"/></g><path d="m445.942 481.142-48.461-57.185c-6.133-7.236-15.091-11.387-24.577-11.387h-183.396c-19.887 0-38.759-9.591-50.481-25.655l-59.664-81.762c-1.619-2.219-2.533-4.732-2.809-7.28-.282.179-.566.351-.84.55-6.754 4.929-8.234 14.4-3.305 21.153l59.664 81.762c11.722 16.064 30.594 25.655 50.481 25.655h183.396c9.486 0 18.444 4.15 24.577 11.387l48.461 57.185c5.408 6.382 14.963 7.165 21.337 1.762 3.984-3.376 5.787-8.371 5.262-13.199-6.279 3.989-14.696 2.854-19.645-2.986z" fill="#b5dcff"/></g></svg>