<svg id="Capa_1" enable-background="new 0 0 512 512" height="512" viewBox="0 0 512 512" width="512" xmlns="http://www.w3.org/2000/svg"><g><path d="m512 372.899v-21.856c0-4.354-3.554-7.884-7.937-7.884h-137.878c-5.3 10.494-11.533 20.442-18.587 29.74z" fill="#477b9e"/><path d="m316.589 405.25c-15.175 12.575-32.294 22.913-50.857 30.483h238.33c4.384 0 7.937-3.53 7.937-7.884v-22.599z" fill="#477b9e"/><path d="m394.344 343.159h-28.159c-21.048 41.676-56.777 74.762-100.453 92.574h63.044c8.387-6.325 16.397-13.267 23.956-20.825 17.041-17.041 31-36.341 41.612-57.22z" fill="#3f6d8e"/><path d="m512 408.413v-38.677h-162.331c-10.635 14.551-23.257 27.573-37.471 38.677z" fill="#3f6d8e"/><path d="m387.739 369.736h-38.071c-10.635 14.551-23.257 27.573-37.471 38.678h46.758c11.061-11.961 20.685-24.923 28.784-38.678z" fill="#365e7d"/><path d="m193.824 62.176c-107.046 0-193.824 86.778-193.824 193.824s86.778 193.824 193.824 193.824 193.824-86.778 193.824-193.824-86.778-193.824-193.824-193.824z" fill="#dbedff"/><path d="m33.914 256c0-101.331 77.764-184.486 176.867-193.077-5.589-.485-11.242-.747-16.957-.747-107.046 0-193.824 86.778-193.824 193.824s86.778 193.824 193.824 193.824c5.715 0 11.368-.262 16.957-.747-99.104-8.591-176.867-91.746-176.867-193.077z" fill="#b5dcff"/><path d="m444.188 343.159h15.453v92.574h-15.453z" fill="#365e7d"/><path d="m379.922 343.159h15.453v92.574h-15.453z" fill="#365e7d"/><path d="m193.824 89.153c-92.147 0-166.847 74.7-166.847 166.847s74.7 166.847 166.847 166.847 166.847-74.7 166.847-166.847-74.7-166.847-166.847-166.847z" fill="#b5dcff"/><path d="m60.89 256c0-86.423 65.708-157.498 149.89-165.995-5.576-.563-11.233-.852-16.957-.852-92.147 0-166.847 74.7-166.847 166.847s74.7 166.847 166.847 166.847c5.724 0 11.381-.289 16.957-.852-84.182-8.497-149.89-79.572-149.89-165.995z" fill="#8bcaff"/><ellipse cx="193.824" cy="256" fill="#477b9e" rx="42.552" ry="42.552" transform="matrix(.987 -.16 .16 .987 -38.504 34.353)"/><path d="m180.461 256c0-18.373 11.645-34.026 27.957-39.982-4.552-1.662-9.467-2.57-14.594-2.57-23.501 0-42.552 19.051-42.552 42.552s19.051 42.552 42.552 42.552c5.127 0 10.042-.908 14.594-2.57-16.311-5.956-27.957-21.609-27.957-39.982z" fill="#3f6d8e"/><g fill="#477b9e"><ellipse cx="285.733" cy="202.937" rx="31.853" ry="31.853" transform="matrix(1 -.012 .012 1 -2.397 3.419)"/><ellipse cx="101.916" cy="309.063" rx="31.853" ry="31.853" transform="matrix(1 -.012 .012 1 -3.675 1.236)"/><ellipse cx="101.916" cy="202.937" rx="31.853" ry="31.853" transform="matrix(.865 -.501 .501 .865 -88.017 78.455)"/><ellipse cx="193.824" cy="362.127" rx="31.853" ry="31.853" transform="matrix(.23 -.973 .973 .23 -203.147 467.566)"/><ellipse cx="193.824" cy="149.873" rx="31.853" ry="31.853" transform="matrix(.707 -.707 .707 .707 -49.207 180.951)"/><ellipse cx="285.733" cy="309.063" rx="31.853" ry="31.853" transform="matrix(.899 -.437 .437 .899 -106.348 155.974)"/></g><path d="m287.036 218.863c-8.796-15.235-3.576-34.716 11.659-43.512.488-.282.981-.548 1.477-.801-9.282-4.71-20.68-4.791-30.366.801-15.235 8.796-20.455 28.277-11.659 43.512 8.514 14.747 27.04 20.109 42.035 12.46-5.317-2.698-9.942-6.911-13.146-12.46z" fill="#3f6d8e"/><path d="m103.219 324.99c-8.796-15.235-3.576-34.716 11.659-43.512.488-.282.981-.548 1.477-.801-9.282-4.71-20.68-4.791-30.366.801-15.235 8.796-20.455 28.277-11.659 43.512 8.514 14.747 27.04 20.109 42.035 12.46-5.317-2.698-9.942-6.911-13.146-12.46z" fill="#3f6d8e"/><path d="m114.878 230.522c-15.235-8.796-20.455-28.277-11.659-43.512 3.204-5.549 7.829-9.762 13.146-12.46-14.996-7.649-33.521-2.286-42.035 12.46-8.796 15.235-3.576 34.716 11.659 43.512 9.686 5.592 21.085 5.512 30.366.801-.496-.252-.989-.519-1.477-.801z" fill="#3f6d8e"/><path d="m190.86 362.127c0-12.39 7.079-23.12 17.408-28.387-4.337-2.211-9.243-3.466-14.445-3.466-17.592 0-31.853 14.261-31.853 31.853s14.261 31.853 31.853 31.853c5.202 0 10.108-1.255 14.445-3.466-10.329-5.267-17.408-15.997-17.408-28.387z" fill="#3f6d8e"/><path d="m190.86 149.873c0-12.39 7.079-23.12 17.408-28.387-4.337-2.211-9.243-3.466-14.445-3.466-17.592 0-31.853 14.261-31.853 31.853s14.261 31.853 31.853 31.853c5.202 0 10.108-1.255 14.445-3.466-10.329-5.267-17.408-15.997-17.408-28.387z" fill="#3f6d8e"/><path d="m298.695 336.649c-15.235-8.796-20.455-28.277-11.659-43.512 3.204-5.549 7.829-9.762 13.146-12.46-14.996-7.649-33.521-2.286-42.035 12.46-8.796 15.235-3.576 34.716 11.659 43.512 9.686 5.592 21.085 5.512 30.366.801-.496-.253-.989-.519-1.477-.801z" fill="#3f6d8e"/></g></svg>