<svg id="Capa_1" enable-background="new 0 0 512 512" height="512" viewBox="0 0 512 512" width="512" xmlns="http://www.w3.org/2000/svg"><g><g><g><path d="m473.216 41.137h-46.64v143.984c2.98 5.606 5.454 11.461 7.401 17.51h39.239z" fill="#fcc101"/></g></g><path d="m451.301 202.631v-161.494h-24.724v143.984c2.98 5.606 5.454 11.461 7.401 17.51z" fill="#f2ab08"/><path d="m432.441 264.841c-1.661 4.382-3.623 8.648-5.864 12.778v145.598c0 23.238-18.906 42.144-42.145 42.144h-89.134c-23.238 0-42.144-18.906-42.144-42.144v-19.332h-46.64v19.332c0 48.955 39.828 88.784 88.783 88.784h89.134c48.955 0 88.784-39.828 88.784-88.784v-158.376z" fill="#fcc101"/><path d="m449.896 423.216v-158.375h-17.456v-.001c-1.661 4.383-3.623 8.649-5.864 12.778v145.598c0 23.238-18.906 42.144-42.145 42.144h23.32c23.24 0 42.145-18.906 42.145-42.144z" fill="#f2ab08"/><path d="m229.835 423.216v-19.332h-23.32v19.332c0 48.955 39.828 88.784 88.783 88.784h23.32c-48.955 0-88.783-39.828-88.783-88.784z" fill="#f2ab08"/><path d="m482.24 199.597h-51.353c3.611 11.002 5.413 22.65 5.247 34.588-.173 12.423-2.496 24.497-6.784 35.808h52.89c3.889 0 7.041-3.152 7.041-7.041v-56.313c0-3.89-3.152-7.042-7.041-7.042z" fill="#7fb3fa"/><path d="m460.852 199.597h-29.965c3.61 11.001 5.413 22.65 5.247 34.588-.173 12.423-2.496 24.497-6.783 35.808h29.965c4.288-11.311 6.61-23.385 6.784-35.808.165-11.939-1.637-23.587-5.248-34.588z" fill="#64a6f4"/><g><g><path d="m483.84 86.668h-67.887c-4.267 0-7.726-3.459-7.726-7.726s3.459-7.726 7.726-7.726h67.887c4.267 0 7.726 3.459 7.726 7.726s-3.459 7.726-7.726 7.726z" fill="#f4dd45"/></g></g><g><g><path d="m333.519 338.397c-.725 0-1.444-.007-2.171-.022-36.869-.744-71.192-21.11-89.574-53.15-3.602-6.279-9.601-6.96-12.024-6.96-.003 0-.006 0-.009 0-2.365.002-8.249.671-11.771 6.831-18.802 32.877-53.984 53.301-91.818 53.301-28.387 0-55.033-11.096-75.031-31.243-19.997-20.145-30.894-46.878-30.683-75.273.429-57.852 48.36-104.917 106.846-104.917h206.235c28.516 0 55.25 11.183 75.274 31.489 20.022 20.303 30.829 47.198 30.432 75.731-.394 28.223-11.869 54.647-32.314 74.405-19.94 19.27-45.931 29.808-73.392 29.808z" fill="#477b9e"/></g></g><g><g><path d="m95.725 307.154c-19.997-20.145-30.894-46.878-30.683-75.273.429-57.852 48.36-104.917 106.846-104.917h-44.605c-58.486 0-106.417 47.066-106.846 104.917-.211 28.395 10.686 55.128 30.683 75.273 19.998 20.147 46.645 31.243 75.031 31.243 7.531 0 14.953-.822 22.166-2.378-19.804-4.256-37.975-14.139-52.592-28.865z" fill="#3f6d8e"/></g></g><path d="m127.283 158.057c-41.468 0-75.45 33.221-75.753 74.055-.149 20.046 7.543 38.917 21.658 53.138 14.116 14.222 32.926 22.054 52.964 22.054 26.709 0 51.548-14.424 64.826-37.644 8.047-14.07 22.529-22.477 38.742-22.488h.032c16.306 0 30.879 8.438 38.992 22.58 23.867 41.602 80.992 50.854 116.56 16.479 14.445-13.961 22.553-32.598 22.83-52.48.281-20.147-7.347-39.135-21.48-53.466-14.136-14.334-33.006-22.228-53.136-22.228z" fill="#7fb3fa"/><g><g><g><path d="m117.821 285.249c-14.116-14.22-21.807-33.091-21.658-53.138.303-40.834 34.285-74.055 75.753-74.055h-44.633c-41.468 0-75.45 33.221-75.753 74.055-.149 20.046 7.542 38.917 21.658 53.138 14.117 14.222 32.926 22.054 52.964 22.054 7.64 0 15.125-1.185 22.232-3.414-11.424-3.577-21.883-9.895-30.563-18.64z" fill="#64a6f4"/></g></g></g><g><path d="m344.334 250.498-45.438-45.438c-3.018-3.017-3.018-7.91 0-10.927 3.017-3.017 7.909-3.017 10.927 0l45.438 45.438c3.018 3.017 3.018 7.91 0 10.927-3.018 3.018-7.909 3.017-10.927 0z" fill="#9cc5fa"/></g><g><path d="m351.321 218.65-21.112-21.111c-3.018-3.017-3.018-7.909 0-10.927 3.017-3.017 7.909-3.017 10.927 0l21.112 21.111c3.018 3.017 3.018 7.91 0 10.927s-7.909 3.017-10.927 0z" fill="#9cc5fa"/></g><path d="m474.279 0h-48.766c-5.258 0-9.561 4.302-9.561 9.561v26.137c0 5.258 4.302 9.561 9.561 9.561h48.766c5.258 0 9.561-4.302 9.561-9.561v-26.137c0-5.259-4.303-9.561-9.561-9.561z" fill="#f4dd45"/><path d="m254.217 361.717h-48.766c-5.258 0-9.561 4.302-9.561 9.561v26.137c0 5.258 4.302 9.561 9.561 9.561h48.766c5.258 0 9.561-4.302 9.561-9.561v-26.137c0-5.259-4.302-9.561-9.561-9.561z" fill="#f4dd45"/><g fill="#fcc101"><path d="m447.631 35.697v-26.136c0-5.258 4.302-9.561 9.561-9.561h-31.678c-5.258 0-9.561 4.302-9.561 9.561v26.137c0 5.258 4.302 9.561 9.561 9.561h31.678c-5.258-.001-9.561-4.303-9.561-9.562z"/><path d="m227.57 397.414v-26.137c0-5.258 4.302-9.561 9.561-9.561h-31.678c-5.258 0-9.561 4.302-9.561 9.561v26.137c0 5.258 4.302 9.561 9.561 9.561h31.678c-5.259-.001-9.561-4.303-9.561-9.561z"/></g></g></svg>