<?xml version="1.0" encoding="iso-8859-1"?>
<!-- Generator: Adobe Illustrator 19.0.0, SVG Export Plug-In . SVG Version: 6.00 Build 0)  -->
<svg version="1.1" id="Capa_1" xmlns="http://www.w3.org/2000/svg" xmlns:xlink="http://www.w3.org/1999/xlink" x="0px" y="0px"
	 viewBox="0 0 512.031 512.031" style="enable-background:new 0 0 512.031 512.031;" xml:space="preserve">
<g>
	<g>
		<g>
			<path d="M511.02,208.88C499.954,90.455,400.524-0.059,281.583,0.016C170.636-0.528,75.287,78.603,55.373,187.75
				c-2.209,0.49-4.328,1.322-6.281,2.466L22.17,206.395c-9.176,5.408-15.904,14.157-18.773,24.414
				c-9.993,36.207-2.722,98.466,88.303,189.491c72.243,72.243,126.37,91.716,163.729,91.716c8.7,0.04,17.365-1.094,25.762-3.371
				c10.26-2.865,19.01-9.594,24.414-18.773l16.213-26.957c1.132-1.955,1.952-4.073,2.432-6.281
				C441.146,434.674,522.086,327.305,511.02,208.88z M307.141,454.126l-16.171,26.957c-3.159,5.403-8.283,9.377-14.302,11.093
				c-45.013,12.331-106.411-17.468-172.911-83.968S7.45,280.336,19.798,235.331c1.714-6.02,5.688-11.145,11.093-14.302
				l26.982-16.213c2.249-1.35,5.163-0.692,6.613,1.493l43.017,64.503c1.418,2.138,0.954,5.007-1.067,6.588l-24.141,18.773
				c-8.597,6.595-11.047,18.502-5.751,27.955l1.903,3.49c12.122,22.245,27.855,42.321,46.558,59.409
				c17.09,18.713,37.176,34.45,59.435,46.566l3.465,1.894c9.45,5.315,21.371,2.862,27.955-5.751l18.773-24.132
				c1.587-2.022,4.459-2.489,6.605-1.075l64.461,42.982C307.87,448.977,308.505,451.891,307.141,454.126z M321.425,439.799
				c-1.628-2.572-3.772-4.778-6.298-6.477l-64.478-42.991c-9.592-6.327-22.434-4.237-29.525,4.804l-18.773,24.132
				c-1.446,1.918-4.083,2.482-6.187,1.323l-3.593-1.971c-20.811-11.362-39.583-26.113-55.543-43.648
				c-17.53-15.953-32.278-34.716-43.639-55.518l-1.98-3.618c-1.158-2.102-0.594-4.735,1.323-6.178l24.132-18.773
				c9.058-7.083,11.146-19.94,4.796-29.525l-42.974-64.486c-1.702-2.526-3.911-4.67-6.485-6.298
				C92.695,82.437,192.126,7.668,301.702,17.995c109.576,10.328,193.286,102.359,193.214,212.421
				C495.425,333.016,422.332,421.23,321.425,439.799z"/>
			<path d="M290.117,51.216c0-4.713-3.82-8.533-8.533-8.533c-75.429,0.128-143.496,45.274-172.954,114.714
				c-0.883,2.085-0.9,4.436-0.049,6.534s2.502,3.772,4.588,4.653c1.049,0.45,2.178,0.682,3.319,0.683
				c3.427,0.001,6.523-2.049,7.859-5.205c26.678-63.217,88.62-104.31,157.235-104.311C286.296,59.75,290.117,55.929,290.117,51.216z
				"/>
			<path d="M347.938,387.651c-2.808,1.189-4.768,3.786-5.142,6.812s0.894,6.022,3.328,7.859c2.434,1.837,5.662,2.236,8.47,1.047
				c69.529-29.351,114.722-97.484,114.722-172.954c0-4.713-3.82-8.533-8.533-8.533s-8.533,3.82-8.533,8.533
				C452.13,298.996,411.076,360.879,347.938,387.651z"/>
			<path d="M354.117,311.483c3.451-0.001,6.562-2.08,7.882-5.268c1.32-3.188,0.591-6.858-1.849-9.298l-36.881-36.881
				c6.187-8.637,9.514-18.995,9.515-29.619c0-4.713-3.82-8.533-8.533-8.533s-8.533,3.82-8.533,8.533
				c0,18.851-15.282,34.133-34.133,34.133s-34.133-15.282-34.133-34.133s15.282-34.133,34.133-34.133
				c4.713,0,8.533-3.82,8.533-8.533V93.883c0-4.713-3.82-8.533-8.533-8.533s-8.533,3.821-8.533,8.533v86.042
				c-20.821,3.452-37.39,19.326-41.731,39.979s4.436,41.855,22.105,53.397c17.669,11.542,40.61,11.059,57.779-1.216l36.881,36.881
				C349.681,310.572,351.851,311.478,354.117,311.483z"/>
			<path d="M284.826,222.566c-3.178-1.336-6.848-0.629-9.301,1.792c-0.753,0.83-1.359,1.782-1.792,2.816
				c-0.437,1.026-0.669,2.128-0.683,3.243c0.015,0.544,0.072,1.086,0.171,1.621c0.079,0.565,0.252,1.113,0.512,1.621
				c0.17,0.524,0.43,1.015,0.768,1.451c0.341,0.512,0.683,0.939,1.024,1.365c1.635,1.559,3.799,2.443,6.059,2.475
				c1.115-0.013,2.217-0.245,3.243-0.683c1.033-0.435,1.985-1.041,2.816-1.792c0.341-0.427,0.683-0.853,1.024-1.365
				c0.611-0.936,1.042-1.978,1.271-3.072c0.106-0.534,0.166-1.077,0.179-1.621c-0.013-1.115-0.245-2.217-0.683-3.243
				c-0.433-1.034-1.039-1.986-1.792-2.816C286.81,223.606,285.859,223.001,284.826,222.566z"/>
		</g>
	</g>
</g>
<g>
</g>
<g>
</g>
<g>
</g>
<g>
</g>
<g>
</g>
<g>
</g>
<g>
</g>
<g>
</g>
<g>
</g>
<g>
</g>
<g>
</g>
<g>
</g>
<g>
</g>
<g>
</g>
<g>
</g>
</svg>
