<svg id="Capa_1" enable-background="new 0 0 512 512" height="512" viewBox="0 0 512 512" width="512" xmlns="http://www.w3.org/2000/svg"><g><path d="m96.619 268.883h67.397v193.706h-67.397z" fill="#dbedff"/><path d="m96.619 268.883h33.699v193.706h-33.699z" fill="#b5dcff"/><path d="m222.301 268.883h67.397v193.706h-67.397z" fill="#dbedff"/><path d="m222.301 268.883h33.699v193.706h-33.699z" fill="#b5dcff"/><path d="m347.984 268.883h67.397v193.706h-67.397z" fill="#dbedff"/><path d="m347.984 268.883h33.699v193.706h-33.699z" fill="#b5dcff"/><path d="m38.161 268.882h-26.776c-1.867 0-3.624-.458-5.179-1.254v176.627c0 10.126 8.208 18.334 18.334 18.334h13.622v-193.707z" fill="#3f6d8e"/><path d="m500.615 268.882h-26.777v193.706h13.622c10.125 0 18.333-8.208 18.333-18.334v-176.626c-1.554.796-3.311 1.254-5.178 1.254z" fill="#477b9e"/><path d="m36.056 268.883h62.841v193.706h-62.841z" fill="#dbedff"/><path d="m36.056 268.883h31.421v193.706h-31.421z" fill="#b5dcff"/><path d="m161.738 268.883h62.841v193.706h-62.841z" fill="#dbedff"/><path d="m161.738 268.883h31.421v193.706h-31.421z" fill="#b5dcff"/><path d="m287.421 268.883h62.841v193.706h-62.841z" fill="#dbedff"/><path d="m287.421 268.883h31.421v193.706h-31.421z" fill="#b5dcff"/><path d="m413.103 268.883h62.841v193.706h-62.841z" fill="#dbedff"/><path d="m413.103 268.883h31.421v193.706h-31.421z" fill="#b5dcff"/><path d="m141.497 268.882v94.168c0 5.588 4.53 10.118 10.118 10.118h20.246c5.588 0 10.118-4.53 10.118-10.118v-94.168z" fill="#477b9e"/><path d="m161.738 363.051v-94.168h-20.242v94.168c0 5.588 4.53 10.118 10.119 10.118h20.242c-5.589 0-10.119-4.53-10.119-10.118z" fill="#365e7d"/><path d="m204.338 268.882v94.168c0 5.588 4.53 10.118 10.118 10.118h20.246c5.588 0 10.118-4.53 10.118-10.118v-94.168z" fill="#477b9e"/><path d="m224.579 363.051v-94.168h-20.242v94.168c0 5.588 4.53 10.118 10.118 10.118h20.242c-5.587 0-10.118-4.53-10.118-10.118z" fill="#365e7d"/><path d="m78.655 268.882v94.168c0 5.588 4.53 10.118 10.118 10.118h20.246c5.588 0 10.118-4.53 10.118-10.118v-94.168z" fill="#477b9e"/><path d="m98.897 363.051v-94.168h-20.242v94.168c0 5.588 4.53 10.118 10.118 10.118h20.242c-5.588 0-10.118-4.53-10.118-10.118z" fill="#365e7d"/><path d="m267.179 268.882v94.168c0 5.588 4.53 10.118 10.118 10.118h20.246c5.588 0 10.118-4.53 10.118-10.118v-94.168z" fill="#477b9e"/><path d="m287.421 363.051v-94.168h-20.242v94.168c0 5.588 4.53 10.118 10.119 10.118h20.242c-5.589 0-10.119-4.53-10.119-10.118z" fill="#365e7d"/><path d="m392.862 268.882v94.168c0 5.588 4.53 10.118 10.118 10.118h20.246c5.588 0 10.118-4.53 10.118-10.118v-94.168z" fill="#477b9e"/><path d="m413.103 363.051v-94.168h-20.242v94.168c0 5.588 4.53 10.118 10.118 10.118h20.242c-5.588 0-10.118-4.53-10.118-10.118z" fill="#365e7d"/><path d="m330.02 268.882v94.168c0 5.588 4.53 10.118 10.118 10.118h20.246c5.588 0 10.118-4.53 10.118-10.118v-94.168z" fill="#477b9e"/><path d="m350.262 363.051v-94.168h-20.242v94.168c0 5.588 4.53 10.118 10.118 10.118h20.242c-5.588 0-10.118-4.53-10.118-10.118z" fill="#365e7d"/><path d="m0 239.744v20.845c0 6.288 5.097 11.385 11.385 11.385h489.231c6.288 0 11.385-5.097 11.385-11.385v-20.845z" fill="#f4dd45"/><path d="m458.902 49.411h-98.142c-29.325 0-53.098 23.773-53.098 53.098s-23.773 53.098-53.098 53.098h-198.947c-30.716-.001-55.617 24.9-55.617 55.617v30.58h512v-139.295c0-29.325-23.773-53.098-53.098-53.098z" fill="#477b9e"/><g fill="#3f6d8e"><path d="m123.094 155.606h-67.477c-30.716 0-55.617 24.901-55.617 55.618v30.58h67.476v-30.58c0-30.717 24.901-55.618 55.618-55.618z"/><path d="m375.138 102.509c0-29.325 23.773-53.098 53.098-53.098h-67.476c-29.325 0-53.098 23.773-53.098 53.098s-23.773 53.097-53.098 53.097h67.476c29.326 0 53.098-23.772 53.098-53.097z"/></g></g></svg>