<?xml version="1.0" encoding="iso-8859-1"?>
<!-- Generator: Adobe Illustrator 19.0.0, SVG Export Plug-In . SVG Version: 6.00 Build 0)  -->
<svg version="1.1" id="Capa_1" xmlns="http://www.w3.org/2000/svg" xmlns:xlink="http://www.w3.org/1999/xlink" x="0px" y="0px"
	 viewBox="0 0 512 512" style="enable-background:new 0 0 512 512;" xml:space="preserve">
<g>
	<g>
		<g>
			<path d="M486.4,0H25.6C11.461,0,0,11.461,0,25.6v384c0,14.138,11.461,25.6,25.6,25.6h179.2v59.733H128
				c-4.713,0-8.533,3.82-8.533,8.533S123.287,512,128,512h256c4.713,0,8.533-3.82,8.533-8.533s-3.82-8.533-8.533-8.533H221.867
				V435.2h68.267v25.6c0,4.713,3.82,8.533,8.533,8.533s8.533-3.82,8.533-8.533v-25.6h179.2c14.138,0,25.6-11.461,25.6-25.6v-384
				C512,11.461,500.539,0,486.4,0z M494.933,409.6c0,4.713-3.82,8.533-8.533,8.533H25.6c-4.713,0-8.533-3.82-8.533-8.533v-42.667
				h477.867V409.6z M494.933,349.867H17.067V25.6c0-4.713,3.82-8.533,8.533-8.533h460.8c4.713,0,8.533,3.82,8.533,8.533V349.867z"/>
			<path d="M248.297,51.517c-73.779,4.145-130.858,66.255-128.772,140.12c2.086,73.866,62.581,132.655,136.476,132.629
				c4.713,0,8.533-3.82,8.533-8.533s-3.82-8.533-8.533-8.533c-65.98,0-119.467-53.487-119.467-119.467S190.02,68.267,256,68.267
				s119.467,53.487,119.467,119.467v34.671c0,14.138-11.461,25.6-25.6,25.6s-25.6-11.461-25.6-25.6v-51.738
				c0-4.713-3.82-8.533-8.533-8.533s-8.533,3.82-8.533,8.533V204.8c-0.028,23.552-19.114,42.638-42.667,42.667h-17.067
				c-23.552-0.028-42.638-19.114-42.667-42.667v-34.133c0.028-23.552,19.114-42.638,42.667-42.667h17.067
				c4.713,0,8.533-3.82,8.533-8.533s-3.821-8.533-8.533-8.533h-17.067c-32.974,0.038-59.696,26.759-59.733,59.733V204.8
				c0.038,32.974,26.759,59.696,59.733,59.733h17.067c18.553-0.014,36.042-8.667,47.309-23.407
				c8.894,17.484,28.564,26.651,47.672,22.217s32.732-21.325,33.019-40.94V179.2c-0.025-0.982-0.222-1.952-0.58-2.867
				C385.753,102.698,322.076,47.372,248.297,51.517z"/>
		</g>
	</g>
</g>
<g>
</g>
<g>
</g>
<g>
</g>
<g>
</g>
<g>
</g>
<g>
</g>
<g>
</g>
<g>
</g>
<g>
</g>
<g>
</g>
<g>
</g>
<g>
</g>
<g>
</g>
<g>
</g>
<g>
</g>
</svg>
