<svg id="Capa_1" enable-background="new 0 0 511.999 511.999" height="512" viewBox="0 0 511.999 511.999" width="512" xmlns="http://www.w3.org/2000/svg"><g><path d="m78.972 475.037v-438.075c0-20.329 16.633-36.962 36.962-36.962h-70.311c-20.33 0-36.963 16.633-36.963 36.962v438.075c0 20.329 16.633 36.962 36.962 36.962h70.311c-20.328 0-36.961-16.633-36.961-36.962z" fill="#477b9e"/><path d="m78.972 475.037v-438.075c0-1.717.128-3.404.358-5.06h-31.793c-3.852 0-6.975 3.123-6.975 6.975v434.244c0 3.852 3.123 6.975 6.975 6.975h31.792c-.229-1.655-.357-3.342-.357-5.059z" fill="#3f6d8e"/><path d="m376.497 0h-262.623c-20.329 0-36.963 16.633-36.963 36.962v438.075c0 20.329 16.633 36.962 36.962 36.962h262.624c20.329 0 36.962-16.633 36.962-36.962v-438.075c0-20.329-16.633-36.962-36.962-36.962z" fill="#dbedff"/><path d="m115.934 475.037v-438.075c0-20.329 16.633-36.962 36.962-36.962h-39.023c-20.328 0-36.962 16.633-36.962 36.962v438.075c0 20.329 16.633 36.962 36.962 36.962h39.023c-20.329 0-36.962-16.633-36.962-36.962z" fill="#b5dcff"/><path d="m374.582 31.902h-258.793c-3.852 0-6.975 3.123-6.975 6.975v434.244c0 3.852 3.123 6.975 6.975 6.975h258.793c3.852 0 6.975-3.123 6.975-6.975v-434.244c0-3.852-3.123-6.975-6.975-6.975z" fill="#b5dcff"/><path d="m147.836 473.122v-434.245c0-3.852 3.123-6.975 6.975-6.975h-39.023c-3.852 0-6.975 3.123-6.975 6.975v434.244c0 3.852 3.123 6.975 6.975 6.975h39.023c-3.852.001-6.975-3.122-6.975-6.974z" fill="#8bcaff"/><g fill="#f87c68"><path d="m250.573 331.965c-2.929 3.202-7.846 3.202-10.775 0l-65.444-71.546c-14.177-17.932-12.014-44.323 4.876-59.512 14.766-13.279 36.481-13.98 52.014-1.68l9.436 7.472c2.661 2.107 6.35 2.107 9.011 0l9.435-7.472c15.533-12.3 37.248-11.598 52.014 1.68 16.89 15.189 19.053 41.58 4.876 59.512z"/><path d="m315.009 446.768c-1.293 1.414-3.464 1.414-4.757 0l-28.891-31.585c-6.258-7.916-5.304-19.567 2.153-26.272 6.519-5.862 16.105-6.172 22.962-.742l4.166 3.298c1.175.93 2.803.93 3.978 0l4.165-3.298c6.857-5.43 16.444-5.12 22.962.742 7.456 6.705 8.411 18.356 2.153 26.272z"/><path d="m180.118 127.706c-1.293 1.414-3.464 1.414-4.757 0l-28.891-31.585c-6.258-7.916-5.304-19.567 2.153-26.272 6.519-5.862 16.105-6.172 22.962-.742l4.166 3.298c1.175.93 2.803.93 3.978 0l4.165-3.298c6.857-5.43 16.444-5.12 22.962.742 7.456 6.705 8.411 18.356 2.153 26.272z"/></g><path d="m355.804 103.482-5.899-1.289c-16.265 16.265-26.325 38.735-26.325 63.554l3.706 2.722 23.308 54.085-.689 6.747c16.265 16.265 38.735 26.325 63.554 26.325l55.349-24.81 8.206-1.515c16.265-16.265 26.325-38.735 26.325-63.554l-5.213-3.545-22.836-52.882 1.724-7.127c-16.265-16.265-38.735-26.325-63.555-26.325l-2.385 2.718z" fill="#3f6d8e"/><path d="m355.804 103.482-5.899-1.289c-16.265 16.265-26.325 38.735-26.325 63.554l3.706 2.722 23.308 54.085-.689 6.747c16.265 16.265 38.735 26.325 63.554 26.325l10.953-4.91c-35.245-12.155-60.573-45.596-60.573-84.97 0-42.718 29.803-78.474 69.75-87.615-6.472-1.481-13.209-2.265-20.13-2.265l-2.385 2.718z" fill="#365e7d"/><path d="m453.719 206.007c-10.303 10.303-24.537 16.676-40.26 16.676v32.943c24.82 0 47.289-10.06 63.554-26.325z" fill="#f87c68"/><path d="m373.199 125.488c10.303-10.303 24.537-16.676 40.26-16.676v-32.944c-24.82 0-47.289 10.06-63.554 26.325z" fill="#f87c68"/><path d="m413.459 246.106v9.521c6.876 0 13.863-.819 20.13-2.265-7.067-1.617-13.807-4.082-20.13-7.256z" fill="#ec625e"/><path d="m373.199 125.488c.091-.091.189-.177.281-.268 8.698-17.186 22.76-31.188 39.979-39.831v-9.521c-24.114 0-46.791 9.561-63.555 26.325z" fill="#ec625e"/><path d="m349.905 229.302 23.295-23.295c-10.303-10.303-16.676-24.537-16.676-40.259h-32.944c0 24.819 10.06 47.289 26.325 63.554z" fill="#ec625e"/><path d="m453.719 125.488c10.303 10.303 16.676 24.538 16.676 40.26h32.944c0-24.82-10.06-47.29-26.325-63.554z" fill="#f87c68"/><circle cx="413.459" cy="165.748" fill="#477b9e" r="57.655"/><path d="m389.164 165.748c0-26.041 17.268-48.04 40.976-55.195-5.281-1.594-10.879-2.46-16.68-2.46-31.842 0-57.655 25.813-57.655 57.656 0 31.842 25.813 57.655 57.655 57.655 5.801 0 11.398-.866 16.68-2.46-23.708-7.156-40.976-29.155-40.976-55.196z" fill="#3f6d8e"/></g></svg>