<?xml version="1.0" encoding="iso-8859-1"?>
<!-- Generator: Adobe Illustrator 19.0.0, SVG Export Plug-In . SVG Version: 6.00 Build 0)  -->
<svg version="1.1" id="Capa_1" xmlns="http://www.w3.org/2000/svg" xmlns:xlink="http://www.w3.org/1999/xlink" x="0px" y="0px"
	 viewBox="0 0 512 512" style="enable-background:new 0 0 512 512;" xml:space="preserve">
<g>
	<g>
		<g>
			<path d="M486.4,25.6h-17.067V8.533c0-4.713-3.82-8.533-8.533-8.533s-8.533,3.82-8.533,8.533V25.6h-51.2V8.533
				c0-4.713-3.821-8.533-8.533-8.533C387.821,0,384,3.82,384,8.533V25.6h-51.2V8.533c0-4.713-3.82-8.533-8.533-8.533
				s-8.533,3.82-8.533,8.533V25.6h-51.2V8.533C264.533,3.82,260.713,0,256,0s-8.533,3.82-8.533,8.533V25.6h-51.2V8.533
				c0-4.713-3.82-8.533-8.533-8.533S179.2,3.82,179.2,8.533V25.6H128V8.533C128,3.82,124.18,0,119.467,0s-8.533,3.82-8.533,8.533
				V25.6h-51.2V8.533C59.733,3.82,55.913,0,51.2,0s-8.533,3.82-8.533,8.533V25.6H25.6C11.461,25.6,0,37.062,0,51.2v435.2
				C0,500.539,11.461,512,25.6,512h460.8c14.138,0,25.6-11.461,25.6-25.6V51.2C512,37.062,500.539,25.6,486.4,25.6z M494.933,486.4
				c0,4.713-3.82,8.533-8.533,8.533H25.6c-4.713,0-8.533-3.82-8.533-8.533V119.467h409.6c4.713,0,8.533-3.82,8.533-8.533
				s-3.82-8.533-8.533-8.533h-409.6V51.2c0-4.713,3.82-8.533,8.533-8.533h460.8c4.713,0,8.533,3.82,8.533,8.533V486.4z"/>
			<path d="M45.141,62.208c-2.462,2.441-3.201,6.129-1.872,9.331c1.329,3.202,4.464,5.281,7.931,5.261
				c3.467,0.02,6.601-2.059,7.931-5.261s0.59-6.89-1.872-9.331C53.837,59.051,48.563,59.051,45.141,62.208z"/>
			<path d="M113.408,62.208c-3.312,3.34-3.298,8.73,0.033,12.051c3.331,3.321,8.721,3.321,12.051,0
				c3.331-3.321,3.345-8.712,0.033-12.051C122.095,59.071,116.838,59.071,113.408,62.208z"/>
			<path d="M181.675,62.208c-3.312,3.34-3.298,8.73,0.033,12.051c3.331,3.321,8.721,3.321,12.052,0
				c3.331-3.321,3.345-8.712,0.033-12.051C190.362,59.071,185.105,59.071,181.675,62.208z"/>
			<path d="M249.941,62.208c-3.312,3.34-3.298,8.73,0.033,12.051s8.721,3.321,12.051,0s3.345-8.712,0.033-12.051
				C258.629,59.071,253.371,59.071,249.941,62.208z"/>
			<path d="M318.208,62.208c-3.312,3.34-3.298,8.73,0.033,12.051c3.331,3.321,8.721,3.321,12.051,0s3.345-8.712,0.033-12.051
				C326.895,59.071,321.638,59.071,318.208,62.208z"/>
			<path d="M386.475,62.208c-3.312,3.34-3.298,8.73,0.033,12.051s8.721,3.321,12.051,0s3.345-8.712,0.033-12.051
				C395.162,59.071,389.905,59.071,386.475,62.208z"/>
			<path d="M454.741,62.208c-3.312,3.34-3.298,8.73,0.033,12.051s8.721,3.321,12.051,0s3.345-8.712,0.033-12.051
				C463.429,59.071,458.171,59.071,454.741,62.208z"/>
			<path d="M443.733,162.133H68.267c-9.426,0-17.067,7.641-17.067,17.067v256c0,9.426,7.641,17.067,17.067,17.067h375.467
				c9.426,0,17.067-7.641,17.067-17.067v-256C460.8,169.774,453.159,162.133,443.733,162.133z M153.6,435.2H68.267V384H153.6V435.2z
				 M153.6,366.933H68.267v-51.2H153.6V366.933z M153.6,298.667H68.267v-51.2H153.6V298.667z M153.6,230.4H68.267v-51.2H153.6V230.4
				z M247.467,435.2h-76.8V384h76.8V435.2z M247.467,366.933h-76.8v-51.2h76.8V366.933z M247.467,298.667h-76.8v-51.2h76.8V298.667z
				 M247.467,230.4h-76.8v-51.2h76.8V230.4z M341.333,435.2h-76.8V384h76.8V435.2z M341.333,366.933h-76.8v-51.2h76.8V366.933z
				 M341.333,298.667h-76.8v-51.2h76.8V298.667z M341.333,230.4h-76.8v-51.2h76.8V230.4z M443.733,435.2H358.4V384h85.333V435.2z
				 M443.733,366.933H358.4v-51.2h85.333V366.933z M443.733,298.667H358.4v-51.2h85.333V298.667z M443.733,230.4H358.4v-51.2h85.333
				V230.4z"/>
		</g>
	</g>
</g>
<g>
</g>
<g>
</g>
<g>
</g>
<g>
</g>
<g>
</g>
<g>
</g>
<g>
</g>
<g>
</g>
<g>
</g>
<g>
</g>
<g>
</g>
<g>
</g>
<g>
</g>
<g>
</g>
<g>
</g>
</svg>
