<svg id="Capa_1" enable-background="new 0 0 512 512" height="512" viewBox="0 0 512 512" width="512" xmlns="http://www.w3.org/2000/svg"><g><path d="m283.83 0h-55.66c-6.975 0-12.682 5.707-12.682 12.682v21.884h81.023v-21.884c0-6.975-5.706-12.682-12.681-12.682z" fill="#ce775f"/><g fill="#c0694e"><path d="m268.682 0h-40.511c-6.975 0-12.682 5.707-12.682 12.682v21.884h40.511v-21.884c0-6.975 5.707-12.682 12.682-12.682z"/><path d="m407.184 476.89-70.582-123.291h-37.534l79.966 139.681c2.37 4.139 7.618 5.558 11.722 3.168l13.287-7.736c4.104-2.39 5.511-7.682 3.141-11.822z"/><path d="m175.398 353.599-70.582 123.291c-2.37 4.139-.963 9.432 3.141 11.822l13.287 7.736c4.104 2.39 9.353.971 11.722-3.168l79.966-139.681z"/></g><g><g><path d="m239.747 353.599v149.746c0 4.78 3.842 8.654 8.581 8.654h15.342c4.739 0 8.581-3.875 8.581-8.654v-149.746z" fill="#c0694e"/></g></g><path d="m317.955 353.6h-18.887l79.966 139.681c2.37 4.139 7.618 5.558 11.722 3.168l6.734-3.921z" fill="#b25d46"/><path d="m126.844 488.712c-4.104-2.39-5.511-7.683-3.141-11.822l70.582-123.29h-18.887l-70.582 123.29c-2.37 4.139-.964 9.432 3.141 11.822l13.287 7.736c4.104 2.39 9.353.971 11.722-3.168l.431-.753z" fill="#b25d46"/><path d="m258.635 503.346v-149.746h-18.887v149.746c0 4.78 3.842 8.654 8.581 8.654h15.342c.608 0 1.2-.066 1.772-.187-3.888-.824-6.808-4.301-6.808-8.467z" fill="#b25d46"/><path d="m438.231 32.505h-364.462c-7.913 0-14.328 6.415-14.328 14.328v195.377l112.213-112.212c7.12-7.12 18.692-7.031 25.702.198l108.535 111.94c7.277 7.505 19.39 7.272 26.372-.509l36.743-40.946c6.902-7.691 18.841-8.022 26.159-.726l57.394 57.23v-210.352c0-7.913-6.415-14.328-14.328-14.328z" fill="#7fb3fa"/><path d="m110.773 44.324c0-5.544 3.7-10.264 8.752-11.819h-45.756c-7.913 0-14.328 6.415-14.328 14.328v195.377l51.332-51.332z" fill="#64a6f4"/><path d="m112.273 342.252c0 6.975 5.707 12.682 12.682 12.682h262.091c6.975 0 12.682-5.707 12.682-12.682v-21.884h-287.455z" fill="#ce775f"/><path d="m170.338 342.252v-21.884h-58.066v21.884c0 6.975 5.707 12.682 12.682 12.682h58.066c-6.975 0-12.682-5.707-12.682-12.682z" fill="#c0694e"/><path d="m452.559 308.101v-56.068l-57.394-57.229c-7.317-7.296-19.257-6.965-26.158.726l-36.743 40.946c-6.982 7.781-19.095 8.015-26.372.509l-108.535-111.94c-7.01-7.23-18.581-7.319-25.702-.198l-112.214 112.212v71.042c0 7.913 6.415 14.328 14.328 14.328h364.461c7.914 0 14.329-6.415 14.329-14.328z" fill="#64d465"/><path d="m110.773 310.61v-124.883l-51.332 51.332v71.042c0 7.913 6.415 14.328 14.328 14.328h45.756c-5.052-1.554-8.752-6.274-8.752-11.819z" fill="#40c140"/><circle cx="314.066" cy="120.386" fill="#f4dd45" r="28.663"/><path d="m311.845 120.386c0-11.06 6.268-20.65 15.442-25.429-3.957-2.061-8.451-3.233-13.221-3.233-15.83 0-28.663 12.833-28.663 28.663s12.833 28.663 28.663 28.663c4.77 0 9.264-1.172 13.221-3.233-9.174-4.782-15.442-14.372-15.442-25.431z" fill="#fcc101"/><g><g><path d="m314.066 75.423c-4.267 0-7.727-3.459-7.727-7.727v-9.511c0-4.267 3.459-7.727 7.727-7.727 4.267 0 7.727 3.459 7.727 7.727v9.511c-.001 4.267-3.46 7.727-7.727 7.727z" fill="#f4dd45"/></g></g><g><g><path d="m314.066 190.313c-4.267 0-7.727-3.459-7.727-7.727v-9.511c0-4.267 3.459-7.727 7.727-7.727 4.267 0 7.727 3.459 7.727 7.727v9.511c-.001 4.268-3.46 7.727-7.727 7.727z" fill="#f4dd45"/></g></g><g><g><path d="m276.809 90.855c-1.977 0-3.955-.755-5.463-2.263l-6.725-6.726c-3.017-3.017-3.017-7.91 0-10.927s7.91-3.017 10.927 0l6.726 6.726c3.017 3.017 3.017 7.91 0 10.927-1.51 1.508-3.488 2.263-5.465 2.263z" fill="#f4dd45"/></g></g><g><g><path d="m358.049 172.095c-1.977 0-3.955-.755-5.463-2.263l-6.725-6.725c-3.018-3.017-3.018-7.91 0-10.927 3.017-3.017 7.91-3.017 10.927 0l6.725 6.725c3.018 3.017 3.018 7.91 0 10.927-1.509 1.508-3.487 2.263-5.464 2.263z" fill="#f4dd45"/></g></g><g><g><path d="m261.376 128.112h-9.511c-4.267 0-7.727-3.459-7.727-7.727s3.459-7.727 7.727-7.727h9.511c4.267 0 7.727 3.459 7.727 7.727s-3.46 7.727-7.727 7.727z" fill="#f4dd45"/></g></g><g><g><path d="m376.267 128.112h-9.511c-4.267 0-7.727-3.459-7.727-7.727s3.459-7.727 7.727-7.727h9.511c4.267 0 7.727 3.459 7.727 7.727s-3.46 7.727-7.727 7.727z" fill="#f4dd45"/></g></g><g><g><path d="m270.083 172.095c-1.977 0-3.955-.755-5.463-2.263-3.017-3.017-3.017-7.91 0-10.927l6.725-6.725c3.017-3.017 7.91-3.017 10.927 0s3.017 7.91 0 10.927l-6.726 6.725c-1.508 1.508-3.485 2.263-5.463 2.263z" fill="#f4dd45"/></g></g><g><g><path d="m351.323 90.855c-1.977 0-3.955-.755-5.463-2.263-3.018-3.017-3.018-7.91 0-10.927l6.725-6.726c3.017-3.017 7.91-3.017 10.927 0 3.018 3.017 3.018 7.91 0 10.927l-6.725 6.726c-1.509 1.508-3.486 2.263-5.464 2.263z" fill="#f4dd45"/></g></g></g></svg>