<svg id="Capa_1" enable-background="new 0 0 512 512" height="512" viewBox="0 0 512 512" width="512" xmlns="http://www.w3.org/2000/svg"><g><circle cx="342.932" cy="152.105" fill="#fcd0a3" r="42.784"/><path d="m209.793 198.667c5.197 5.532 5.186 14.154-.024 19.674l-59.257 62.716c.776.033 1.554.058 2.338.058 14.822 0 29.297-5.878 39.17-15.429 7.252-7.015 18.589-7.015 25.841 0 9.872 9.551 23.317 15.429 38.139 15.429 14.823 0 28.268-5.879 38.14-15.43 7.251-7.015 18.588-7.015 25.84 0 9.872 9.551 24.347 15.43 39.17 15.43 1.865 0 3.709-.094 5.526-.276l-135.967-146.29c-1.467-1.561-1.464-4.006.007-5.565l75.838-80.343c10.934-11.584 10.408-29.839-1.177-40.774-11.584-10.933-29.839-10.406-40.773 1.176l-75.837 80.343c-22.381 23.71-22.425 60.896-.102 84.659z" fill="#fcd0a3"/><path d="m332.183 152.104c0-17.963 11.076-33.331 26.767-39.673-4.949-2-10.352-3.111-16.017-3.111-23.629 0-42.784 19.155-42.784 42.784s19.155 42.784 42.784 42.784c5.665 0 11.069-1.111 16.017-3.111-15.691-6.341-26.767-21.709-26.767-39.673z" fill="#feb983"/><g><path d="m208.242 260.729 33.562-35.521c5.21-5.519 5.221-14.142.024-19.674l-23.129-24.621c-22.323-23.763-22.278-60.949.102-84.659l75.838-80.343c2.886-3.057 6.284-5.335 9.932-6.845-.385-.408-.78-.81-1.193-1.2-11.584-10.933-29.839-10.406-40.773 1.176l-75.837 80.343c-22.38 23.71-22.425 60.896-.102 84.659l23.129 24.621c5.197 5.532 5.186 14.154-.024 19.674l-59.257 62.716c.776.033 1.554.058 2.338.058 14.822 0 29.297-5.878 39.17-15.429 4.486-4.341 10.539-5.988 16.22-4.955z" fill="#feb983"/></g><path d="m11.933 345.415c10.002 10.547 24.147 17.125 39.83 17.125 14.823 0 28.267-5.879 38.14-15.43 7.251-7.015 18.588-7.015 25.839 0 9.872 9.551 23.316 15.43 38.139 15.43 14.822 0 28.267-5.878 38.139-15.429 7.252-7.015 18.589-7.015 25.841 0 9.873 9.551 23.317 15.429 38.139 15.429 14.823 0 28.268-5.879 38.14-15.43 7.251-7.015 18.588-7.015 25.84 0 9.872 9.551 23.317 15.429 38.14 15.429s28.268-5.878 38.139-15.429c7.251-7.016 18.588-7.016 25.84 0 9.873 9.551 23.317 15.43 38.14 15.43 15.683 0 29.827-6.578 39.829-17.125 4.19-4.419 11.648-1.352 11.648 4.738v-82.456c0-6.09-7.457-9.156-11.648-4.738-10.002 10.547-24.146 17.125-39.829 17.125-14.823 0-28.268-5.879-38.14-15.43-7.251-7.015-18.588-7.015-25.84 0-9.872 9.551-23.317 15.43-38.139 15.43-14.823 0-28.268-5.879-38.14-15.43-7.251-7.016-18.588-7.016-25.84 0-9.873 9.551-23.317 15.43-38.14 15.43-14.822 0-28.266-5.878-38.139-15.429-7.252-7.015-18.589-7.015-25.841 0-9.872 9.551-23.317 15.429-38.139 15.429-14.823 0-28.267-5.879-38.139-15.43-7.251-7.016-18.588-7.016-25.839 0-9.873 9.551-23.317 15.43-38.14 15.43-15.683 0-29.828-6.578-39.83-17.125-4.19-4.418-11.647-1.352-11.647 4.738v82.454c.001-6.088 7.457-9.154 11.647-4.736z" fill="#7fb3fa"/><g><g><g><path d="m75.923 285.783c0-4.906 1.416-9.495 3.854-13.387-8.2 4.881-17.777 7.687-28.015 7.687-15.683 0-29.828-6.578-39.83-17.125-4.19-4.418-11.647-1.352-11.647 4.738v82.454c.002-6.088 7.458-9.154 11.647-4.736 10.002 10.547 24.147 17.125 39.83 17.125 8.675 0 16.87-2.026 24.161-5.61z" fill="#64a6f4"/></g></g></g><path d="m500.067 412.419c-10.002 10.547-24.146 17.125-39.829 17.125-14.823 0-28.268-5.878-38.14-15.43-7.251-7.016-18.588-7.015-25.84 0-9.872 9.551-23.317 15.429-38.139 15.429-14.823 0-28.268-5.878-38.14-15.429-7.251-7.016-18.588-7.016-25.84 0-9.873 9.551-23.317 15.43-38.14 15.43-14.822 0-28.266-5.878-38.139-15.429-7.252-7.015-18.589-7.015-25.841 0-9.872 9.551-23.317 15.429-38.139 15.429-14.823 0-28.267-5.879-38.139-15.43-7.251-7.016-18.588-7.016-25.839 0-9.873 9.551-23.317 15.43-38.14 15.43-15.683 0-29.828-6.578-39.83-17.125-4.19-4.418-11.646-1.352-11.647 4.736v66.679c0 5.057 3.566 9.413 8.523 10.411 1.97.397 3.775 1.356 5.234 2.737 9.835 9.309 23.11 15.018 37.72 15.018 14.823 0 28.267-5.879 38.14-15.43 7.251-7.015 18.588-7.015 25.839 0 9.872 9.551 23.316 15.43 38.139 15.43 14.822 0 28.267-5.878 38.139-15.429 7.252-7.015 18.589-7.015 25.841 0 9.873 9.551 23.317 15.429 38.139 15.429 14.823 0 28.268-5.879 38.14-15.43 7.251-7.015 18.588-7.015 25.84 0 9.872 9.551 23.317 15.43 38.14 15.43s28.268-5.879 38.139-15.43c7.251-7.016 18.588-7.016 25.84 0 9.873 9.551 23.317 15.43 38.14 15.43 14.58 0 27.83-5.686 37.658-14.96 1.52-1.434 3.445-2.311 5.514-2.609 4.76-.685 8.304-4.766 8.304-9.587v-67.688c.001-6.089-7.457-9.156-11.647-4.737z" fill="#7fb3fa"/><g><g><g><path d="m75.923 468.224v-44.291c-7.291 3.585-15.486 5.61-24.161 5.61-15.683 0-29.828-6.578-39.83-17.125-4.19-4.418-11.646-1.352-11.647 4.736v66.679c0 5.057 3.566 9.413 8.523 10.411 1.97.397 3.775 1.356 5.234 2.737 9.835 9.31 23.11 15.019 37.72 15.019 14.823 0 28.267-5.879 38.14-15.43 1.653-1.599 3.524-2.815 5.504-3.685-11.137-2.67-19.483-12.735-19.483-24.661z" fill="#64a6f4"/></g></g></g><path d="m500.067 340.265c-10.002 10.547-24.146 17.125-39.829 17.125-14.823 0-28.268-5.879-38.14-15.43-7.251-7.015-18.588-7.015-25.84 0-9.872 9.551-23.317 15.429-38.139 15.429-14.823 0-28.268-5.878-38.14-15.429-7.251-7.016-18.588-7.016-25.84 0-9.873 9.551-23.317 15.43-38.14 15.43-14.822 0-28.266-5.878-38.139-15.429-7.252-7.015-18.589-7.015-25.841 0-9.872 9.551-23.317 15.429-38.139 15.429-14.823 0-28.267-5.879-38.139-15.43-7.251-7.016-18.588-7.016-25.839 0-9.873 9.551-23.317 15.43-38.14 15.43-15.683 0-29.828-6.578-39.83-17.125-4.19-4.418-11.647-1.352-11.647 4.738v77.305c0-6.089 7.457-9.156 11.647-4.738 10.002 10.547 24.147 17.125 39.83 17.125 14.823 0 28.267-5.879 38.14-15.43 7.251-7.015 18.588-7.015 25.839 0 9.872 9.551 23.316 15.43 38.139 15.43 14.822 0 28.267-5.878 38.139-15.429 7.252-7.015 18.589-7.015 25.841 0 9.873 9.551 23.317 15.429 38.139 15.429 14.823 0 28.268-5.878 38.14-15.43 7.251-7.016 18.588-7.015 25.84 0 9.872 9.551 23.317 15.429 38.14 15.429s28.268-5.878 38.139-15.429c7.251-7.016 18.588-7.016 25.84 0 9.873 9.551 23.317 15.43 38.14 15.43 15.683 0 29.827-6.578 39.829-17.125 4.19-4.419 11.648-1.352 11.648 4.738v-77.305c0-6.09-7.458-9.157-11.648-4.738z" fill="#64a6f4"/><g><path d="m75.923 351.779c-7.291 3.585-15.486 5.61-24.161 5.61-15.683 0-29.828-6.578-39.83-17.125-4.19-4.418-11.647-1.352-11.647 4.738v77.305c0-6.089 7.457-9.156 11.647-4.738 10.002 10.547 24.147 17.125 39.83 17.125 8.675 0 16.87-2.026 24.161-5.61z" fill="#3d8bd8"/></g></g></svg>