<?xml version="1.0" encoding="iso-8859-1"?>
<!-- Generator: Adobe Illustrator 19.0.0, SVG Export Plug-In . SVG Version: 6.00 Build 0)  -->
<svg version="1.1" id="Capa_1" xmlns="http://www.w3.org/2000/svg" xmlns:xlink="http://www.w3.org/1999/xlink" x="0px" y="0px"
	 viewBox="0 0 512 512" style="enable-background:new 0 0 512 512;" xml:space="preserve">
<g>
	<g>
		<g>
			<path d="M196.267,460.8c-4.713,0-8.533,3.82-8.533,8.533s3.82,8.533,8.533,8.533h17.067c4.713,0,8.533-3.82,8.533-8.533
				s-3.82-8.533-8.533-8.533H196.267z"/>
			<path d="M435.2,153.6h-76.8V128c0-4.713-3.821-8.533-8.533-8.533s-8.533,3.82-8.533,8.533v25.6h-128
				c-14.138,0-25.6,11.461-25.6,25.6v153.6c0,14.138,11.461,25.6,25.6,25.6h128v59.733h-25.6c-4.713,0-8.533,3.82-8.533,8.533
				s3.82,8.533,8.533,8.533h25.6v51.2c0,4.713-3.82,8.533-8.533,8.533h-256c-4.713,0-8.533-3.82-8.533-8.533v-51.2h196.267
				c4.713,0,8.533-3.82,8.533-8.533s-3.82-8.533-8.533-8.533H68.267v-332.8h25.6c4.713,0,8.533-3.82,8.533-8.533
				s-3.82-8.533-8.533-8.533h-25.6V25.6c0-4.713,3.82-8.533,8.533-8.533h256c4.713,0,8.533,3.82,8.533,8.533v42.667H145.067
				c-4.713,0-8.533,3.82-8.533,8.533s3.82,8.533,8.533,8.533h204.8c4.713,0,8.533-3.82,8.533-8.533V25.6
				c0-14.138-11.462-25.6-25.6-25.6h-256C62.662,0,51.2,11.461,51.2,25.6v460.8c0,14.138,11.461,25.6,25.6,25.6h256
				c14.138,0,25.6-11.461,25.6-25.6v-128h76.8c14.138,0,25.6-11.462,25.6-25.6V179.2C460.8,165.062,449.339,153.6,435.2,153.6z
				 M443.733,332.8c0,4.713-3.82,8.533-8.533,8.533H213.333c-4.713,0-8.533-3.821-8.533-8.533V179.2c0-4.713,3.82-8.533,8.533-8.533
				H435.2c4.713,0,8.533,3.82,8.533,8.533V332.8z"/>
			<path d="M419.455,196.357c-2.242-0.354-4.533,0.2-6.365,1.539l-88.823,64.623l-88.849-64.623
				c-2.466-1.793-5.702-2.133-8.487-0.894c-2.786,1.24-4.698,3.871-5.018,6.903s1.003,6.005,3.47,7.797l93.867,68.267
				c0.276,0.155,0.561,0.295,0.853,0.418c0.275,0.16,0.56,0.302,0.853,0.427c1.039,0.484,2.165,0.751,3.311,0.785
				c1.157-0.03,2.296-0.297,3.345-0.785c0.293-0.124,0.578-0.267,0.853-0.427c0.292-0.123,0.577-0.263,0.853-0.418l93.867-68.267
				c3.802-2.781,4.631-8.117,1.852-11.921C423.706,197.944,421.697,196.711,419.455,196.357z"/>
			<path d="M262.767,271.3l-38.4,38.4c-2.218,2.143-3.108,5.315-2.327,8.299c0.781,2.983,3.111,5.313,6.094,6.094
				s6.156-0.109,8.299-2.327l38.4-38.4c3.234-3.348,3.188-8.671-0.104-11.962C271.438,268.113,266.115,268.066,262.767,271.3z"/>
			<path d="M385.766,271.3c-3.348-3.234-8.671-3.188-11.962,0.104c-3.292,3.292-3.338,8.614-0.104,11.962l38.4,38.4
				c3.348,3.234,8.671,3.188,11.962-0.104c3.292-3.292,3.338-8.614,0.104-11.962L385.766,271.3z"/>
		</g>
	</g>
</g>
<g>
</g>
<g>
</g>
<g>
</g>
<g>
</g>
<g>
</g>
<g>
</g>
<g>
</g>
<g>
</g>
<g>
</g>
<g>
</g>
<g>
</g>
<g>
</g>
<g>
</g>
<g>
</g>
<g>
</g>
</svg>
