<svg id="Capa_1" enable-background="new 0 0 512 512" height="512" viewBox="0 0 512 512" width="512" xmlns="http://www.w3.org/2000/svg"><g><g><g><path d="m314.179 268.931c18.642 0 36.72 2.112 53.949 6.068l-5.355-22.612c-5.098-21.529-30.852-29.703-46.742-14.722-11.142 10.505-21.728 21.565-31.747 33.108 9.769-1.207 19.747-1.842 29.895-1.842z" fill="#fcc101"/></g></g><path d="m341.825 396.705c6.715 7.129 13.593 13.968 20.635 20.473 13.813 12.759 30.717 1.504 30.699-20.315l-.009-11.719c-16.221 5.611-33.422 9.552-51.325 11.561z" fill="#fcc101"/><path d="m315.433 268.949c7.301-7.935 14.867-15.634 22.724-23.043 4.961-4.677 10.884-7.097 16.84-7.559-10.21-10.178-27.26-11.72-38.967-.683-11.142 10.505-21.728 21.565-31.747 33.108 9.769-1.207 19.747-1.842 29.895-1.842.421.001.836.017 1.255.019z" fill="#efac08"/><path d="m383.625 406.876c-5.118-4.728-10.147-9.637-15.092-14.701-8.698 1.984-17.611 3.509-26.708 4.53 6.716 7.129 13.593 13.968 20.635 20.473 10.325 9.538 22.375 5.654 27.795-6.027-2.235-.872-4.47-2.28-6.63-4.275z" fill="#efac08"/><path d="m134.532 366.244-21.328 11.849c-6.21 3.45-8.841 11.263-5.515 17.54 2.75 5.19 8.504 7.715 13.945 6.628 1.801-.36 3.426 1.151 3.232 2.977-3.187 29.95-25.449 47.141-49.62 47.569-40.154.713-64.514-45.639-38.971-78.191l28.104-35.814c14.745-18.79 22.866-42.292 22.866-66.178v-25.13c0-4.225 2.266-8.187 6.012-10.141 13.927-7.262 23.2-22.267 22.05-39.272-1.37-20.27-17.77-36.715-38.037-38.134-23.973-1.679-44.017 17.35-44.017 40.972 0 15.869 9.05 29.657 22.258 36.493 3.674 1.901 5.901 5.777 5.901 9.913v25.298c0 18.214-6.111 35.901-17.356 50.23l-28.103 35.813c-38.195 48.676-3.476 119.981 58.36 119.981 40.178 0 71.937-30.248 76.065-69.012l3.233-30.358c1.187-11.177-10.183-17.978-19.079-13.033zm-75.447-165.323c0-8.404 6.837-15.242 15.242-15.242s15.242 6.838 15.242 15.242-6.837 15.242-15.242 15.242-15.242-6.838-15.242-15.242z" fill="#dbedff"/><g><path d="m31.061 359.699 28.103-35.813c11.245-14.329 17.356-32.016 17.356-50.23v-25.298c0-4.137-2.227-8.012-5.901-9.913-13.208-6.836-22.258-20.624-22.258-36.493 0-21.036 15.899-38.415 36.31-40.786-2.392-.626-4.867-1.039-7.402-1.216-23.973-1.679-44.017 17.35-44.017 40.972 0 15.869 9.05 29.657 22.258 36.493 3.674 1.901 5.901 5.777 5.901 9.913v25.298c0 18.214-6.111 35.901-17.356 50.23l-28.103 35.813c-38.195 48.676-3.476 119.981 58.36 119.981.743 0 1.477-.032 2.214-.052-53.552-9.066-80.914-73.723-45.465-118.899z" fill="#b5dcff"/></g><g><g><path d="m74.327 193.406c-4.267 0-7.726-3.459-7.726-7.726v-144.603c0-4.268 3.459-7.726 7.726-7.726s7.726 3.459 7.726 7.726v144.603c.001 4.267-3.459 7.726-7.726 7.726z" fill="#f87c68"/></g></g><path d="m495.051 290.44c-8.821 4.864-17.196 10.438-25.049 16.643-6.598 5.214-15.788 5.551-22.723.794-36.458-25.01-82.73-39.98-133.101-39.98-25.352 0-49.663 3.799-72.212 10.752 10.712 15.5 16.998 34.293 16.998 54.561s-6.286 39.06-16.998 54.561c22.549 6.953 46.86 10.752 72.212 10.752 50.371 0 96.643-14.97 133.101-39.979 6.935-4.757 16.124-4.42 22.723.794 7.852 6.205 16.227 11.779 25.049 16.643 7.616 4.2 16.949-1.373 16.949-10.07v-65.4c0-8.698-9.333-14.271-16.949-10.071z" fill="#ffe97b"/><g><g><path d="m495.051 338.107c-8.822-4.864-17.196-10.438-25.049-16.643-6.598-5.214-15.788-5.55-22.723-.794-36.458 25.009-82.73 39.979-133.101 39.979-19.918 0-39.188-2.354-57.472-6.731-2.715 12.338-7.787 23.792-14.74 33.852 22.549 6.953 46.86 10.752 72.212 10.752 50.371 0 96.643-14.97 133.101-39.979 6.935-4.757 16.124-4.42 22.723.794 7.852 6.205 16.227 11.779 25.049 16.643 7.616 4.2 16.949-1.373 16.949-10.07v-37.873c0 8.697-9.333 14.269-16.949 10.07z" fill="#f4dd45"/></g></g><g><g><path d="m303.154 366.564c-4.639 0-9.262-1.373-13.262-4.089-3.026-2.054-6.015-4.245-8.882-6.511-3.348-2.646-3.917-7.505-1.27-10.852 2.646-3.348 7.506-3.918 10.853-1.271 2.575 2.036 5.26 4.004 7.978 5.849 2.544 1.726 5.675 1.903 8.374.473 1.277-.676 4.245-2.719 4.245-7.068v-12.382c0-3.038-1.611-5.707-4.309-7.141-1.263-.671-4.579-1.975-8.095.404-2.767 1.869-5.507 3.872-8.143 5.954-3.35 2.646-8.208 2.073-10.852-1.278-2.644-3.349-2.071-8.207 1.278-10.851 2.935-2.317 5.984-4.546 9.065-6.628 7.15-4.834 16.345-5.313 23.996-1.249 7.719 4.099 12.514 12.065 12.514 20.788v12.382c0 8.709-4.776 16.65-12.463 20.723-3.468 1.837-7.253 2.747-11.027 2.747z" fill="#fcc101"/></g></g><path d="m167.317 348.267c21.625 17.623 47.58 31.392 76.357 40.027 10.932-15.599 17.351-34.591 17.351-55.085s-6.42-39.486-17.351-55.085c-28.777 8.636-54.732 22.405-76.357 40.028-9.554 7.786-9.554 22.33 0 30.115z" fill="#f4dd45"/><path d="m170.049 315.984c-.914.72-1.833 1.436-2.732 2.169-9.554 7.786-9.554 22.329 0 30.115 21.626 17.623 47.58 31.392 76.357 40.028 7.077-10.099 12.248-21.626 15.025-34.057-33.253-8.563-63.326-21.672-88.65-38.255z" fill="#fcc101"/><path d="m223.407 311.153c-7.102 0-12.858 5.757-12.858 12.858 0 7.102 5.757 12.859 12.858 12.859s12.859-5.757 12.859-12.859c0-7.101-5.757-12.858-12.859-12.858z" fill="#e1960f"/></g></svg>