<svg id="Capa_1" enable-background="new 0 0 512 512" height="512" viewBox="0 0 512 512" width="512" xmlns="http://www.w3.org/2000/svg"><g><path d="m481.196 74.175-.912-2.785h-34.064c-1.49 4.548-12.299 37.533-13.804 42.127l2.658 3.331h57.177l1.837-3.331z" fill="#dbedff"/><path d="m477.056 71.39h-30.836c-1.49 4.548-12.299 37.533-13.804 42.127l2.658 3.331h30.836l-2.658-3.331c1.505-4.595 12.314-37.58 13.804-42.127z" fill="#b5dcff"/><path d="m432.416 426.426h61.672v35.371h-61.672z" fill="#dbedff"/><path d="m432.416 426.426h30.836v35.371h-30.836z" fill="#b5dcff"/><g><path d="m385.408 0h-264.541l-102.954 102.954v393.486c0 8.594 6.966 15.56 15.56 15.56h351.936c8.593 0 15.56-6.967 15.56-15.56v-480.88c-.001-8.593-6.967-15.56-15.561-15.56z" fill="#dbedff"/><path d="m59.465 496.44v-386.144c0-3.174.869-6.251 2.445-8.944h-42.395l-1.602 1.602v393.486c0 8.594 6.966 15.56 15.56 15.56h41.552c-8.594 0-15.56-6.966-15.56-15.56z" fill="#b5dcff"/><path d="m17.913 102.954h87.394c8.593 0 15.56-6.966 15.56-15.56v-87.394z" fill="#b5dcff"/><path d="m120.867 0-102.954 102.954h43.268l59.686-59.685z" fill="#8bcaff"/><g><path d="m325.872 160.586h-232.864c-4.267 0-7.727-3.459-7.727-7.727 0-4.267 3.459-7.727 7.727-7.727h232.864c4.267 0 7.727 3.459 7.727 7.727 0 4.267-3.459 7.727-7.727 7.727z" fill="#8bcaff"/></g><g><path d="m325.872 199.928h-232.864c-4.267 0-7.727-3.459-7.727-7.727 0-4.267 3.459-7.727 7.727-7.727h232.864c4.267 0 7.727 3.459 7.727 7.727s-3.459 7.727-7.727 7.727z" fill="#8bcaff"/></g><g><path d="m257.927 121.243h-96.974c-4.267 0-7.727-3.459-7.727-7.727s3.459-7.727 7.727-7.727h96.974c4.267 0 7.727 3.459 7.727 7.727s-3.46 7.727-7.727 7.727z" fill="#8bcaff"/></g><g><path d="m325.872 239.271h-232.864c-4.267 0-7.727-3.459-7.727-7.727 0-4.267 3.459-7.727 7.727-7.727h232.864c4.267 0 7.727 3.459 7.727 7.727 0 4.267-3.459 7.727-7.727 7.727z" fill="#8bcaff"/></g><g><path d="m325.872 278.613h-232.864c-4.267 0-7.727-3.459-7.727-7.727 0-4.267 3.459-7.727 7.727-7.727h232.864c4.267 0 7.727 3.459 7.727 7.727 0 4.267-3.459 7.727-7.727 7.727z" fill="#8bcaff"/></g><g><path d="m325.872 317.955h-232.864c-4.267 0-7.727-3.459-7.727-7.727 0-4.267 3.459-7.727 7.727-7.727h232.864c4.267 0 7.727 3.459 7.727 7.727s-3.459 7.727-7.727 7.727z" fill="#8bcaff"/></g><g><path d="m325.872 357.298h-232.864c-4.267 0-7.727-3.459-7.727-7.727 0-4.267 3.459-7.727 7.727-7.727h232.864c4.267 0 7.727 3.459 7.727 7.727 0 4.267-3.459 7.727-7.727 7.727z" fill="#8bcaff"/></g><g><path d="m325.872 396.64h-232.864c-4.267 0-7.727-3.459-7.727-7.727s3.459-7.727 7.727-7.727h232.864c4.267 0 7.727 3.459 7.727 7.727s-3.459 7.727-7.727 7.727z" fill="#8bcaff"/></g><g><path d="m325.872 435.982h-232.864c-4.267 0-7.727-3.459-7.727-7.727s3.459-7.727 7.727-7.727h232.864c4.267 0 7.727 3.459 7.727 7.727s-3.459 7.727-7.727 7.727z" fill="#8bcaff"/></g></g><path d="m432.416 113.517h32.92v314.739h-32.92z" fill="#fcc101"/><path d="m463.251 113.517h30.836v314.739h-30.836z" fill="#f4dd45"/><path d="m432.416 460.155v21.009c0 17.03 13.806 30.836 30.836 30.836s30.836-13.806 30.836-30.836v-21.009z" fill="#f87c68"/><path d="m463.251 481.164v-21.009h-30.836v21.009c0 17.03 13.806 30.836 30.836 30.836 5.619 0 10.881-1.51 15.418-4.135-9.214-5.333-15.418-15.289-15.418-26.701z" fill="#ec625e"/><path d="m456.172 41.019-10.865 33.156h35.888l-10.865-33.156c-2.24-6.84-11.917-6.84-14.158 0z" fill="#477b9e"/></g></svg>