<svg id="Capa_1" enable-background="new 0 0 512 512" height="512" viewBox="0 0 512 512" width="512" xmlns="http://www.w3.org/2000/svg"><g><path d="m363.343 355.156v-73.916h17.346c0-125.572 0-260.531 0-264.194 0-8.541-6.923-15.464-15.464-15.464h-262.907l-102.318 102.318v391.055c0 8.541 6.923 15.464 15.464 15.464h349.762c8.54 0 15.464-6.923 15.464-15.464 0-3.059 0-56.568 0-139.799z" fill="#ff94d5"/><path d="m38.482 494.955v-383.007c0-3.643 1.041-7.17 2.928-10.218h-39.24l-2.17 2.17v391.055c0 8.541 6.923 15.464 15.464 15.464h38.482c-8.541 0-15.464-6.924-15.464-15.464z" fill="#ff72c7"/><path d="m0 103.9h86.854c8.54 0 15.464-6.923 15.464-15.464v-86.854z" fill="#ff72c7"/><path d="m102.318 1.582-102.318 102.318h40.177l62.141-62.141z" fill="#ff4fb9"/><path d="m347.588 338.758c-2.39-6.567-7.202-12.042-13.542-14.982-2.707-1.255-5.153-2.945-7.267-4.97l-13.867 34.498c2.621-.565 5.406-.415 8.05.547l13.031 4.743c2.872 1.045 5.212 2.902 6.864 5.215l8.58-19.972z" fill="#8bcaff"/><path d="m400.695 145.007c-2.588-4.871-9.723-4.373-11.609.81l-41.71 112.796 22.658 62.253c2.942-2.818 6.266-7.321 7.685-11.221l28.919-79.454c10.175-27.954 8.015-58.913-5.943-85.184z" fill="#b5dcff"/><path d="m401.105 180.203c1.678-4.608 7.496-5.502 10.587-2.222-1.792-11.408-5.463-22.56-10.996-32.974-2.588-4.87-9.723-4.373-11.609.81l-41.71 112.796 12.269 33.709z" fill="#8bcaff"/><path d="m227.352 506.55c33.764 12.33 71.089-5.866 83.383-39.643l32.999-90.664c2.753-7.564-1.147-15.927-8.711-18.68l-13.031-4.743c-5.925-2.156-12.564-.259-16.454 4.703l-15.415 19.662c-5.103 6.509-13.686 9.115-21.592 6.685-.181-.056-.363-.111-.546-.165-31.848-9.49-66.143 7.085-78.497 37.935-13.646 34.075 3.657 72.419 37.864 84.91zm-10.007-72.521c6.475-17.79 26.145-26.962 43.934-20.487s26.962 26.145 20.487 43.935-26.145 26.962-43.934 20.487-26.962-26.146-20.487-43.935z" fill="#f4dd45"/><g><g fill="#fcc101"><path d="m299.234 385.286c.182.055.364.109.546.165 7.906 2.431 16.489-.176 21.592-6.685l15.415-19.662c.139-.177.289-.341.434-.511-.695-.394-1.422-.748-2.198-1.031l-13.031-4.743c-5.925-2.156-12.564-.259-16.454 4.703l-15.415 19.662c-1.857 2.368-4.178 4.213-6.756 5.493 5.283.2 10.608 1.042 15.867 2.609z"/><path d="m258.601 508.131c-23.732-8.666-39.315-29.778-42.084-53.272-1.834-6.631-1.704-13.873.828-20.831.083-.229.178-.45.266-.676.757-3.399 1.787-6.786 3.127-10.131 8.371-20.902 26.816-35.237 47.745-39.366-.165-.051-.331-.101-.497-.15-31.848-9.49-66.143 7.085-78.497 37.935-13.646 34.075 3.656 72.419 37.864 84.91 11.401 4.163 23.205 4.835 34.317 2.612-1.026-.317-2.05-.658-3.069-1.031z"/></g></g><path d="m355.956 363.808c1.652-2.312 3.992-4.169 6.864-5.215l13.031-4.743c2.644-.962 5.429-1.112 8.05-.548l-76.174-207.486c-1.886-5.183-9.021-5.681-11.609-.81-13.958 26.271-16.118 57.23-5.943 85.184l28.919 79.454c2.439 6.701 7.447 12.158 13.922 15.16 6.341 2.94 11.152 8.415 13.542 14.982z" fill="#dbedff"/><path d="m367.419 336.182c-2.39-6.568-7.201-12.042-13.542-14.982-6.475-3.002-11.483-8.459-13.922-15.16l-28.919-79.454c-8.49-23.326-8.385-48.742-.01-71.783l-3.299-8.986c-1.886-5.183-9.021-5.681-11.609-.81-13.958 26.271-16.118 57.23-5.943 85.184l28.919 79.454c2.439 6.701 7.447 12.158 13.922 15.16 6.341 2.94 11.152 8.415 13.542 14.982l9.398 24.021c1.652-2.313 3.992-4.17 6.864-5.215l11.701-4.259z" fill="#b5dcff"/><path d="m507.325 421.64c-12.355-30.85-46.649-47.425-78.497-37.935-.182.055-.364.109-.546.165-7.906 2.43-16.489-.176-21.592-6.685l-15.415-19.662c-3.89-4.962-10.529-6.859-16.454-4.703l-13.031 4.743c-7.564 2.753-11.464 11.116-8.711 18.68l32.999 90.664c12.294 33.777 49.619 51.973 83.383 39.643 34.207-12.491 51.51-50.835 37.864-84.91zm-48.344 56.323c-17.79 6.475-37.46-2.697-43.935-20.487s2.698-37.46 20.487-43.935 37.46 2.697 43.934 20.487c6.476 17.79-2.696 37.46-20.486 43.935z" fill="#f4dd45"/><g><g><path d="m419.373 465.686c-1.766-2.472-3.237-5.216-4.326-8.21-1.024-2.813-1.654-5.674-1.923-8.521l-28.34-77.863c-2.12-5.824-.284-12.112 4.121-15.958-3.907-3.125-9.234-4.079-14.084-2.314l-13.031 4.743c-7.564 2.753-11.464 11.116-8.711 18.68l32.999 90.664c12.294 33.777 49.619 51.973 83.383 39.643 1.328-.485 2.622-1.022 3.899-1.584-23.104-2.196-44.196-16.907-53.987-39.28z" fill="#fcc101"/></g></g><g><path d="m341.202 308.119h-1.409c-4.267 0-7.726-3.459-7.726-7.726s3.459-7.726 7.726-7.726h1.409c4.267 0 7.726 3.459 7.726 7.726s-3.459 7.726-7.726 7.726z" fill="#8bcaff"/></g></g></svg>