<svg id="Capa_1" enable-background="new 0 0 511.985 511.985" height="512" viewBox="0 0 511.985 511.985" width="512" xmlns="http://www.w3.org/2000/svg"><g><g><path d="m498.613 464.203-232.58-292.76c-2.576-3.243-2.036-7.961 1.207-10.538 3.243-2.576 7.961-2.036 10.538 1.207l232.58 292.76c2.576 3.243 2.036 7.961-1.208 10.537-3.24 2.576-7.959 2.04-10.537-1.206z" fill="#dbedff"/></g><g><path d="m2.835 465.41c-3.243-2.576-3.783-7.294-1.207-10.537l232.58-292.76c2.578-3.243 7.295-3.782 10.538-1.207 3.244 2.577 3.784 7.294 1.208 10.538l-232.58 292.76c-2.58 3.245-7.3 3.781-10.539 1.206z" fill="#dbedff"/></g><g><g><path d="m255.993 138.933c-4.142 0-7.5-3.358-7.5-7.5v-32.116c0-4.142 3.358-7.5 7.5-7.5s7.5 3.358 7.5 7.5v32.117c0 4.141-3.358 7.499-7.5 7.499z" fill="#ce775f"/></g></g><g><g><path d="m255.993 154.779c-4.142 0-7.5-3.358-7.5-7.5v-47.962c0-4.142 3.358-7.5 7.5-7.5s7.5 3.358 7.5 7.5v47.962c0 4.142-3.358 7.5-7.5 7.5z" fill="#ce775f"/></g></g><g><path d="m480.471 498.389c-3.841-1.55-5.698-5.921-4.147-9.762l17.369-43.021c1.551-3.842 5.922-5.699 9.762-4.146 3.841 1.55 5.698 5.921 4.147 9.762l-17.369 43.021c-1.553 3.847-5.931 5.696-9.762 4.146z" fill="#ce775f"/></g><path d="m269.181 148.584c-6.081-9.766-20.296-9.766-26.376 0l-214.098 343.851h227.286 227.286z" fill="#f4dd45"/><path d="m255.993 141.26c-5.074 0-10.148 2.441-13.188 7.324l-214.098 343.851h40.562l186.724-299.887z" fill="#fcc101"/><g><path d="m21.752 494.242-17.369-43.02c-1.551-3.841.306-8.212 4.147-9.762 3.841-1.553 8.212.306 9.762 4.146l17.369 43.021c1.551 3.841-.306 8.212-4.147 9.762-3.83 1.549-8.208-.298-9.762-4.147z" fill="#ce775f"/></g><g><g><path d="m255.993 317.279c-4.142 0-7.5-3.357-7.5-7.5v-168.519c0-4.142 3.358-7.5 7.5-7.5s7.5 3.358 7.5 7.5v168.519c0 4.142-3.358 7.5-7.5 7.5z" fill="#f2ab08"/></g></g><path d="m307.252 306.249h-53.259v186.186h69.614v-169.831c0-8.995-7.36-16.355-16.355-16.355z" fill="#f87c68"/><path d="m363.778 61.935c1.009-2.857-1.947-5.467-4.637-4.073-19.599 10.159-32.778 30.98-31.833 54.791 1.214 30.588 26.116 55.418 56.707 56.55 20.696.766 39.114-9.14 50.216-24.645 1.734-2.422-.405-5.728-3.326-5.147-44.879 8.917-82.254-34.665-67.127-77.476z" fill="#f4dd45"/><path d="m400.014 155.16c-30.591-1.132-55.493-25.962-56.707-56.55-.585-14.748 4.252-28.345 12.673-38.976-17.838 10.685-29.566 30.514-28.673 53.019 1.214 30.588 26.116 55.418 56.707 56.55 19.652.727 37.245-8.172 48.475-22.345-9.434 5.65-20.576 8.742-32.475 8.302z" fill="#fcc101"/><g fill="#f4dd45"><path d="m445.437 66.904h-1.47v-1.47c0-4.142-3.358-7.5-7.5-7.5s-7.5 3.358-7.5 7.5v1.47h-1.469c-4.142 0-7.5 3.358-7.5 7.5s3.358 7.5 7.5 7.5h1.469v1.47c0 4.142 3.358 7.5 7.5 7.5s7.5-3.358 7.5-7.5v-1.47h1.47c4.142 0 7.5-3.358 7.5-7.5s-3.358-7.5-7.5-7.5z"/><path d="m422.492 32.833c0-4.142-3.358-7.5-7.5-7.5h-5.782v-5.782c0-4.142-3.358-7.5-7.5-7.5s-7.5 3.358-7.5 7.5v5.782h-5.782c-4.142 0-7.5 3.358-7.5 7.5s3.358 7.5 7.5 7.5h5.782v5.782c0 4.142 3.358 7.5 7.5 7.5s7.5-3.358 7.5-7.5v-5.782h5.782c4.143 0 7.5-3.358 7.5-7.5z"/></g><path d="m204.734 306.249c-8.995 0-16.355 7.36-16.355 16.355v169.831h67.614v-186.186z" fill="#ec625e"/><path d="m236.541 306.249h-31.807c-8.995 0-16.355 7.36-16.355 16.355v169.831h31.807v-169.831c0-8.995 7.359-16.355 16.355-16.355z" fill="#df4854"/><g><path d="m491.963 499.935h-471.941c-4.142 0-7.5-3.357-7.5-7.5s3.358-7.5 7.5-7.5h471.941c4.142 0 7.5 3.357 7.5 7.5s-3.358 7.5-7.5 7.5z" fill="#64d465"/></g></g></svg>