<?xml version="1.0" encoding="iso-8859-1"?>
<!-- Generator: Adobe Illustrator 19.0.0, SVG Export Plug-In . SVG Version: 6.00 Build 0)  -->
<svg version="1.1" id="Capa_1" xmlns="http://www.w3.org/2000/svg" xmlns:xlink="http://www.w3.org/1999/xlink" x="0px" y="0px"
	 viewBox="0 0 512 512" style="enable-background:new 0 0 512 512;" xml:space="preserve">
<g>
	<g>
		<g>
			<path d="M486.4,51.127H315.733c-4.713,0-8.533,3.82-8.533,8.533s3.82,8.533,8.533,8.533H486.4c4.713,0,8.533,3.82,8.533,8.533
				v273.067H17.067V76.727c0-4.713,3.82-8.533,8.533-8.533h170.667c4.713,0,8.533-3.82,8.533-8.533s-3.82-8.533-8.533-8.533H25.6
				c-14.138,0-25.6,11.461-25.6,25.6v332.8c0,14.138,11.461,25.6,25.6,25.6h170.667v59.733H128c-4.713,0-8.533,3.82-8.533,8.533
				s3.82,8.533,8.533,8.533h256c4.713,0,8.533-3.82,8.533-8.533s-3.82-8.533-8.533-8.533h-85.333v-59.733H486.4
				c14.138,0,25.6-11.461,25.6-25.6v-332.8C512,62.589,500.539,51.127,486.4,51.127z M281.6,494.861h-68.267v-59.733H281.6V494.861z
				 M494.933,409.527c0,4.713-3.82,8.533-8.533,8.533H25.6c-4.713,0-8.533-3.82-8.533-8.533v-42.667h477.867V409.527z"/>
			<path d="M230.4,119.394c1.683-0.001,3.327-0.5,4.727-1.434L256,104.034l20.864,13.909c2.536,1.692,5.783,1.902,8.517,0.552
				s4.539-4.057,4.736-7.1s-1.244-5.959-3.781-7.651l-25.6-17.067c-0.934-0.619-1.981-1.048-3.081-1.263
				c-1.095-0.011-2.19-0.011-3.285,0c-1.101,0.216-2.148,0.648-3.081,1.271l-25.6,17.067c-3.133,2.081-4.534,5.968-3.45,9.569
				C223.325,116.923,226.639,119.389,230.4,119.394z"/>
			<path d="M230.4,76.727c1.683-0.001,3.327-0.5,4.727-1.434L256,61.367l20.864,13.909c2.536,1.692,5.783,1.902,8.517,0.552
				c2.734-1.351,4.539-4.057,4.736-7.1s-1.244-5.959-3.781-7.651l-25.6-17.067c-0.934-0.619-1.981-1.048-3.081-1.263
				c-1.095-0.011-2.19-0.011-3.285,0c-1.099,0.216-2.146,0.645-3.081,1.263l-25.6,17.067c-3.141,2.078-4.548,5.97-3.463,9.576
				C223.312,74.26,226.634,76.728,230.4,76.727z"/>
			<path d="M230.4,34.061c1.683-0.001,3.327-0.5,4.727-1.434L256,18.701l20.864,13.909c2.536,1.692,5.783,1.902,8.517,0.552
				s4.539-4.057,4.736-7.1s-1.244-5.959-3.781-7.651l-25.6-17.067c-0.934-0.619-1.981-1.048-3.081-1.263
				c-1.092-0.011-2.185-0.011-3.277,0c-1.103,0.216-2.153,0.648-3.089,1.271l-25.6,17.067c-3.133,2.081-4.534,5.968-3.45,9.569
				C223.325,31.589,226.639,34.056,230.4,34.061z"/>
			<path d="M153.6,170.594v136.533h-8.533c-4.713,0-8.533,3.82-8.533,8.533s3.82,8.533,8.533,8.533H179.2
				c4.713,0,8.533-3.82,8.533-8.533s-3.82-8.533-8.533-8.533h-8.533V170.594c0-4.713,3.82-8.533,8.533-8.533h107.401l54.733,54.733
				v90.334H221.867c-4.713,0-8.533,3.82-8.533,8.533s3.82,8.533,8.533,8.533h153.6c4.713,0,8.533-3.82,8.533-8.533
				s-3.82-8.533-8.533-8.533H358.4v-93.867c-0.005-1.119-0.229-2.226-0.657-3.26c-0.426-1.036-1.053-1.979-1.843-2.773
				l-59.733-59.733c-0.794-0.791-1.737-1.417-2.773-1.843c-1.034-0.429-2.141-0.652-3.26-0.657H179.2
				C165.062,144.994,153.6,156.456,153.6,170.594z"/>
		</g>
	</g>
</g>
<g>
</g>
<g>
</g>
<g>
</g>
<g>
</g>
<g>
</g>
<g>
</g>
<g>
</g>
<g>
</g>
<g>
</g>
<g>
</g>
<g>
</g>
<g>
</g>
<g>
</g>
<g>
</g>
<g>
</g>
</svg>
